%TF.GenerationSoftware,KiCad,Pcbnew,9.0.0*%
%TF.CreationDate,2025-03-09T16:10:17+04:00*%
%TF.ProjectId,Arbaa_Amp_V0.1,41726261-615f-4416-9d70-5f56302e312e,rev?*%
%TF.SameCoordinates,Original*%
%TF.FileFunction,Paste,Top*%
%TF.FilePolarity,Positive*%
%FSLAX46Y46*%
G04 Gerber Fmt 4.6, Leading zero omitted, Abs format (unit mm)*
G04 Created by KiCad (PCBNEW 9.0.0) date 2025-03-09 16:10:17*
%MOMM*%
%LPD*%
G01*
G04 APERTURE LIST*
G04 Aperture macros list*
%AMRoundRect*
0 Rectangle with rounded corners*
0 $1 Rounding radius*
0 $2 $3 $4 $5 $6 $7 $8 $9 X,Y pos of 4 corners*
0 Add a 4 corners polygon primitive as box body*
4,1,4,$2,$3,$4,$5,$6,$7,$8,$9,$2,$3,0*
0 Add four circle primitives for the rounded corners*
1,1,$1+$1,$2,$3*
1,1,$1+$1,$4,$5*
1,1,$1+$1,$6,$7*
1,1,$1+$1,$8,$9*
0 Add four rect primitives between the rounded corners*
20,1,$1+$1,$2,$3,$4,$5,0*
20,1,$1+$1,$4,$5,$6,$7,0*
20,1,$1+$1,$6,$7,$8,$9,0*
20,1,$1+$1,$8,$9,$2,$3,0*%
G04 Aperture macros list end*
%ADD10RoundRect,0.225000X-0.250000X0.225000X-0.250000X-0.225000X0.250000X-0.225000X0.250000X0.225000X0*%
%ADD11RoundRect,0.250000X-1.000000X-0.650000X1.000000X-0.650000X1.000000X0.650000X-1.000000X0.650000X0*%
%ADD12RoundRect,0.200000X-0.200000X-0.800000X0.200000X-0.800000X0.200000X0.800000X-0.200000X0.800000X0*%
%ADD13RoundRect,0.200000X-0.800000X0.200000X-0.800000X-0.200000X0.800000X-0.200000X0.800000X0.200000X0*%
%ADD14RoundRect,0.375000X0.375000X-0.625000X0.375000X0.625000X-0.375000X0.625000X-0.375000X-0.625000X0*%
%ADD15RoundRect,0.500000X1.400000X-0.500000X1.400000X0.500000X-1.400000X0.500000X-1.400000X-0.500000X0*%
%ADD16RoundRect,0.150000X-0.825000X-0.150000X0.825000X-0.150000X0.825000X0.150000X-0.825000X0.150000X0*%
%ADD17RoundRect,0.150000X0.150000X-0.825000X0.150000X0.825000X-0.150000X0.825000X-0.150000X-0.825000X0*%
%ADD18RoundRect,0.200000X-0.200000X-0.275000X0.200000X-0.275000X0.200000X0.275000X-0.200000X0.275000X0*%
%ADD19RoundRect,0.200000X0.275000X-0.200000X0.275000X0.200000X-0.275000X0.200000X-0.275000X-0.200000X0*%
%ADD20RoundRect,0.200000X-0.275000X0.200000X-0.275000X-0.200000X0.275000X-0.200000X0.275000X0.200000X0*%
%ADD21RoundRect,0.150000X0.150000X-0.587500X0.150000X0.587500X-0.150000X0.587500X-0.150000X-0.587500X0*%
%ADD22RoundRect,0.150000X-0.150000X-0.500000X0.150000X-0.500000X0.150000X0.500000X-0.150000X0.500000X0*%
%ADD23RoundRect,0.075000X-0.075000X-0.575000X0.075000X-0.575000X0.075000X0.575000X-0.075000X0.575000X0*%
%ADD24RoundRect,0.218750X0.256250X-0.218750X0.256250X0.218750X-0.256250X0.218750X-0.256250X-0.218750X0*%
%ADD25R,0.400000X0.480000*%
%ADD26RoundRect,0.250000X-0.650000X1.000000X-0.650000X-1.000000X0.650000X-1.000000X0.650000X1.000000X0*%
%ADD27RoundRect,0.225000X0.225000X0.250000X-0.225000X0.250000X-0.225000X-0.250000X0.225000X-0.250000X0*%
%ADD28RoundRect,0.225000X0.250000X-0.225000X0.250000X0.225000X-0.250000X0.225000X-0.250000X-0.225000X0*%
%ADD29RoundRect,0.225000X-0.225000X-0.250000X0.225000X-0.250000X0.225000X0.250000X-0.225000X0.250000X0*%
%ADD30RoundRect,0.250000X-0.650000X0.325000X-0.650000X-0.325000X0.650000X-0.325000X0.650000X0.325000X0*%
%ADD31RoundRect,0.250000X0.650000X-0.325000X0.650000X0.325000X-0.650000X0.325000X-0.650000X-0.325000X0*%
%ADD32RoundRect,0.250000X0.325000X0.650000X-0.325000X0.650000X-0.325000X-0.650000X0.325000X-0.650000X0*%
%ADD33RoundRect,0.250000X-0.325000X-0.650000X0.325000X-0.650000X0.325000X0.650000X-0.325000X0.650000X0*%
%ADD34R,1.050000X1.050000*%
%ADD35R,0.900000X1.500000*%
%ADD36R,1.500000X0.900000*%
G04 APERTURE END LIST*
D10*
%TO.C,C4*%
X172500000Y-127950000D03*
X172500000Y-129500000D03*
%TD*%
D11*
%TO.C,D13*%
X144000000Y-118500000D03*
X148000000Y-118500000D03*
%TD*%
%TO.C,D12*%
X135000000Y-118500000D03*
X139000000Y-118500000D03*
%TD*%
%TO.C,D11*%
X126000000Y-118500000D03*
X130000000Y-118500000D03*
%TD*%
%TO.C,D10*%
X117000000Y-118500000D03*
X121000000Y-118500000D03*
%TD*%
D12*
%TO.C,SW2*%
X151600000Y-115300000D03*
X155800000Y-115300000D03*
%TD*%
D13*
%TO.C,SW1*%
X166000000Y-94400000D03*
X166000000Y-98600000D03*
%TD*%
D14*
%TO.C,U3*%
X117700000Y-130570000D03*
X120000000Y-130570000D03*
D15*
X120000000Y-124270000D03*
D14*
X122300000Y-130570000D03*
%TD*%
D16*
%TO.C,U2*%
X152025000Y-128055000D03*
X152025000Y-129325000D03*
X152025000Y-130595000D03*
X152025000Y-131865000D03*
X152025000Y-133135000D03*
X152025000Y-134405000D03*
X152025000Y-135675000D03*
X152025000Y-136945000D03*
X156975000Y-136945000D03*
X156975000Y-135675000D03*
X156975000Y-134405000D03*
X156975000Y-133135000D03*
X156975000Y-131865000D03*
X156975000Y-130595000D03*
X156975000Y-129325000D03*
X156975000Y-128055000D03*
%TD*%
D17*
%TO.C,U1*%
X133555000Y-128475000D03*
X134825000Y-128475000D03*
X136095000Y-128475000D03*
X137365000Y-128475000D03*
X138635000Y-128475000D03*
X139905000Y-128475000D03*
X141175000Y-128475000D03*
X142445000Y-128475000D03*
X142445000Y-123525000D03*
X141175000Y-123525000D03*
X139905000Y-123525000D03*
X138635000Y-123525000D03*
X137365000Y-123525000D03*
X136095000Y-123525000D03*
X134825000Y-123525000D03*
X133555000Y-123525000D03*
%TD*%
D18*
%TO.C,R19*%
X161175000Y-96000000D03*
X162825000Y-96000000D03*
%TD*%
%TO.C,R18*%
X157675000Y-96000000D03*
X159325000Y-96000000D03*
%TD*%
D19*
%TO.C,R17*%
X144660000Y-133437500D03*
X144660000Y-131787500D03*
%TD*%
D18*
%TO.C,R16*%
X154275000Y-96000000D03*
X155925000Y-96000000D03*
%TD*%
%TO.C,R15*%
X150875000Y-96000000D03*
X152525000Y-96000000D03*
%TD*%
%TO.C,R14*%
X151100000Y-108100000D03*
X152750000Y-108100000D03*
%TD*%
D20*
%TO.C,R13*%
X169500000Y-95675000D03*
X169500000Y-97325000D03*
%TD*%
D18*
%TO.C,R12*%
X151175000Y-104950000D03*
X152825000Y-104950000D03*
%TD*%
D20*
%TO.C,R11*%
X155000000Y-124675000D03*
X155000000Y-126325000D03*
%TD*%
%TO.C,R10*%
X150650000Y-124575000D03*
X150650000Y-126225000D03*
%TD*%
D18*
%TO.C,R9*%
X120675000Y-136000000D03*
X122325000Y-136000000D03*
%TD*%
D19*
%TO.C,R8*%
X141560000Y-133437500D03*
X141560000Y-131787500D03*
%TD*%
%TO.C,R7*%
X138460000Y-133437500D03*
X138460000Y-131787500D03*
%TD*%
%TO.C,R6*%
X135360000Y-133437500D03*
X135360000Y-131787500D03*
%TD*%
%TO.C,R5*%
X132260000Y-133437500D03*
X132260000Y-131787500D03*
%TD*%
%TO.C,R4*%
X129160000Y-133437500D03*
X129160000Y-131787500D03*
%TD*%
D20*
%TO.C,R3*%
X176050000Y-136825000D03*
X176050000Y-138475000D03*
%TD*%
%TO.C,R2*%
X174250000Y-136850000D03*
X174250000Y-138500000D03*
%TD*%
D19*
%TO.C,R1*%
X130000000Y-125425000D03*
X130000000Y-123775000D03*
%TD*%
D21*
%TO.C,Q2*%
X155050000Y-122500000D03*
X156950000Y-122500000D03*
X156000000Y-120625000D03*
%TD*%
%TO.C,Q1*%
X150600000Y-122500000D03*
X152500000Y-122500000D03*
X151550000Y-120625000D03*
%TD*%
D22*
%TO.C,J1*%
X163980000Y-132755000D03*
X164780000Y-132755000D03*
D23*
X165930000Y-132755000D03*
X166930000Y-132755000D03*
X167430000Y-132755000D03*
X168430000Y-132755000D03*
D22*
X169580000Y-132755000D03*
X170380000Y-132755000D03*
X170380000Y-132755000D03*
X169580000Y-132755000D03*
D23*
X168930000Y-132755000D03*
X167930000Y-132755000D03*
X166430000Y-132755000D03*
X165430000Y-132755000D03*
D22*
X164780000Y-132755000D03*
X163980000Y-132755000D03*
%TD*%
D24*
%TO.C,D14*%
X144700000Y-137187500D03*
X144700000Y-135612500D03*
%TD*%
%TO.C,D9*%
X141600000Y-137187500D03*
X141600000Y-135612500D03*
%TD*%
%TO.C,D8*%
X138500000Y-137187500D03*
X138500000Y-135612500D03*
%TD*%
%TO.C,D7*%
X135400000Y-137187500D03*
X135400000Y-135612500D03*
%TD*%
%TO.C,D6*%
X132300000Y-137187500D03*
X132300000Y-135612500D03*
%TD*%
%TO.C,D5*%
X129200000Y-137187500D03*
X129200000Y-135612500D03*
%TD*%
D25*
%TO.C,D4*%
X166400000Y-128140000D03*
X166400000Y-129460000D03*
%TD*%
D26*
%TO.C,D3*%
X176500000Y-128500000D03*
X176500000Y-132500000D03*
%TD*%
D25*
%TO.C,D2*%
X167850000Y-128140000D03*
X167850000Y-129460000D03*
%TD*%
%TO.C,D1*%
X164950000Y-128140000D03*
X164950000Y-129460000D03*
%TD*%
D27*
%TO.C,C12*%
X152700000Y-111100000D03*
X151150000Y-111100000D03*
%TD*%
D28*
%TO.C,C11*%
X171500000Y-97275000D03*
X171500000Y-95725000D03*
%TD*%
D29*
%TO.C,C10*%
X175725000Y-99000000D03*
X177275000Y-99000000D03*
%TD*%
%TO.C,C9*%
X175725000Y-96000000D03*
X177275000Y-96000000D03*
%TD*%
D10*
%TO.C,C8*%
X128000000Y-123825000D03*
X128000000Y-125375000D03*
%TD*%
D30*
%TO.C,C7*%
X125500000Y-123845000D03*
X125500000Y-126795000D03*
%TD*%
D31*
%TO.C,C6*%
X148500000Y-135975000D03*
X148500000Y-133025000D03*
%TD*%
D32*
%TO.C,C5*%
X122375000Y-133500000D03*
X119425000Y-133500000D03*
%TD*%
D29*
%TO.C,C3*%
X114045000Y-136000000D03*
X115595000Y-136000000D03*
%TD*%
D33*
%TO.C,C2*%
X112525000Y-133500000D03*
X115475000Y-133500000D03*
%TD*%
D10*
%TO.C,C1*%
X144700000Y-123025000D03*
X144700000Y-124575000D03*
%TD*%
D34*
%TO.C,U4*%
X168525000Y-111595000D03*
X170050000Y-111595000D03*
X171575000Y-111595000D03*
X168525000Y-110070000D03*
X170050000Y-110070000D03*
X171575000Y-110070000D03*
X168525000Y-108545000D03*
X170050000Y-108545000D03*
X171575000Y-108545000D03*
D35*
X177390000Y-119500000D03*
X176120000Y-119500000D03*
X174850000Y-119500000D03*
X173580000Y-119500000D03*
X172310000Y-119500000D03*
X171040000Y-119500000D03*
X169770000Y-119500000D03*
X168500000Y-119500000D03*
X167230000Y-119500000D03*
X165960000Y-119500000D03*
X164690000Y-119500000D03*
X163420000Y-119500000D03*
X162150000Y-119500000D03*
X160880000Y-119500000D03*
D36*
X159630000Y-116470000D03*
X159630000Y-115200000D03*
X159630000Y-113930000D03*
X159630000Y-112660000D03*
X159630000Y-111390000D03*
X159630000Y-110120000D03*
X159630000Y-108850000D03*
X159630000Y-107580000D03*
X159630000Y-106310000D03*
X159630000Y-105040000D03*
D35*
X160880000Y-102000000D03*
X162150000Y-102000000D03*
X163420000Y-102000000D03*
X164690000Y-102000000D03*
X165960000Y-102000000D03*
X167230000Y-102000000D03*
X168500000Y-102000000D03*
X169770000Y-102000000D03*
X171040000Y-102000000D03*
X172310000Y-102000000D03*
X173580000Y-102000000D03*
X174850000Y-102000000D03*
X176120000Y-102000000D03*
X177390000Y-102000000D03*
%TD*%
M02*
