%TF.GenerationSoftware,KiCad,Pcbnew,9.0.0*%
%TF.CreationDate,2025-03-09T16:10:17+04:00*%
%TF.ProjectId,Arbaa_Amp_V0.1,41726261-615f-4416-9d70-5f56302e312e,rev?*%
%TF.SameCoordinates,Original*%
%TF.FileFunction,Soldermask,Bot*%
%TF.FilePolarity,Negative*%
%FSLAX46Y46*%
G04 Gerber Fmt 4.6, Leading zero omitted, Abs format (unit mm)*
G04 Created by KiCad (PCBNEW 9.0.0) date 2025-03-09 16:10:17*
%MOMM*%
%LPD*%
G01*
G04 APERTURE LIST*
%ADD10C,3.000000*%
%ADD11R,3.000000X3.000000*%
%ADD12R,2.000000X1.700000*%
%ADD13O,2.000000X1.700000*%
%ADD14C,1.650000*%
%ADD15R,1.650000X1.650000*%
%ADD16R,1.700000X1.700000*%
%ADD17O,1.700000X1.700000*%
%ADD18C,0.650000*%
%ADD19O,1.000000X2.100000*%
%ADD20O,1.000000X1.600000*%
G04 APERTURE END LIST*
D10*
%TO.C,J3*%
X166600000Y-88500000D03*
X161520000Y-88500000D03*
X156440000Y-88500000D03*
X151360000Y-88500000D03*
X146280000Y-88500000D03*
D11*
X141200000Y-88500000D03*
%TD*%
D12*
%TO.C,PS1*%
X104462500Y-97997500D03*
D13*
X99462500Y-97997500D03*
X109462500Y-127077500D03*
X94462500Y-127077500D03*
%TD*%
D14*
%TO.C,K4*%
X147700000Y-95000000D03*
X147700000Y-102000000D03*
D15*
X143000000Y-113500000D03*
D14*
X147700000Y-113500000D03*
%TD*%
%TO.C,K3*%
X138866667Y-95000000D03*
X138866667Y-102000000D03*
D15*
X134166667Y-113500000D03*
D14*
X138866667Y-113500000D03*
%TD*%
%TO.C,K2*%
X130033333Y-95000000D03*
X130033333Y-102000000D03*
D15*
X125333333Y-113500000D03*
D14*
X130033333Y-113500000D03*
%TD*%
%TO.C,K1*%
X121200000Y-95000000D03*
X121200000Y-102000000D03*
D15*
X116500000Y-113500000D03*
D14*
X121200000Y-113500000D03*
%TD*%
D16*
%TO.C,J4*%
X168850000Y-123650000D03*
D17*
X171390000Y-123650000D03*
X173930000Y-123650000D03*
X176470000Y-123650000D03*
%TD*%
D11*
%TO.C,J2*%
X101420000Y-88500000D03*
D10*
X106500000Y-88500000D03*
X111580000Y-88500000D03*
X116660000Y-88500000D03*
X121740000Y-88500000D03*
X126820000Y-88500000D03*
%TD*%
D18*
%TO.C,J1*%
X164290000Y-133895000D03*
X170070000Y-133895000D03*
D19*
X162860000Y-133395000D03*
D20*
X162860000Y-137575000D03*
D19*
X171500000Y-133395000D03*
D20*
X171500000Y-137575000D03*
%TD*%
M02*
