%TF.GenerationSoftware,KiCad,Pcbnew,9.0.0*%
%TF.CreationDate,2025-03-09T16:10:17+04:00*%
%TF.ProjectId,Arbaa_Amp_V0.1,41726261-615f-4416-9d70-5f56302e312e,rev?*%
%TF.SameCoordinates,Original*%
%TF.FileFunction,Legend,Bot*%
%TF.FilePolarity,Positive*%
%FSLAX46Y46*%
G04 Gerber Fmt 4.6, Leading zero omitted, Abs format (unit mm)*
G04 Created by KiCad (PCBNEW 9.0.0) date 2025-03-09 16:10:17*
%MOMM*%
%LPD*%
G01*
G04 APERTURE LIST*
%ADD10C,0.200000*%
%ADD11C,0.010000*%
G04 APERTURE END LIST*
D10*
G36*
X132484867Y-119481049D02*
G01*
X132488450Y-119481303D01*
X132491771Y-119482679D01*
X132511280Y-119484600D01*
X132844816Y-119484600D01*
X132936744Y-119530563D01*
X132982708Y-119622491D01*
X132982708Y-119718135D01*
X132936744Y-119810064D01*
X132844816Y-119856028D01*
X132534887Y-119856028D01*
X132468423Y-119822796D01*
X132468423Y-119474756D01*
X132484867Y-119481049D01*
G37*
G36*
X140237757Y-118609642D02*
G01*
X140286235Y-118658119D01*
X140345500Y-118776647D01*
X140411279Y-119039765D01*
X140411279Y-119372291D01*
X140345500Y-119635408D01*
X140286235Y-119753937D01*
X140237758Y-119802413D01*
X140130529Y-119856028D01*
X140034886Y-119856028D01*
X139927657Y-119802414D01*
X139879181Y-119753937D01*
X139819915Y-119635407D01*
X139754136Y-119372289D01*
X139754136Y-119039767D01*
X139819915Y-118776648D01*
X139879180Y-118658120D01*
X139927656Y-118609643D01*
X140034886Y-118556028D01*
X140130529Y-118556028D01*
X140237757Y-118609642D01*
G37*
G36*
X145936743Y-119101993D02*
G01*
X145982707Y-119193920D01*
X145982707Y-119334047D01*
X145468422Y-119231190D01*
X145468422Y-119193920D01*
X145514385Y-119101992D01*
X145606314Y-119056028D01*
X145844814Y-119056028D01*
X145936743Y-119101993D01*
G37*
G36*
X147411279Y-119141742D02*
G01*
X146963457Y-119141742D01*
X146856229Y-119088128D01*
X146807749Y-119039648D01*
X146754136Y-118932421D01*
X146754136Y-118765348D01*
X146807749Y-118658120D01*
X146856226Y-118609643D01*
X146963457Y-118556028D01*
X147411279Y-118556028D01*
X147411279Y-119141742D01*
G37*
G36*
X138482708Y-116674344D02*
G01*
X138482708Y-117407880D01*
X138416244Y-117441112D01*
X138177743Y-117441112D01*
X138070514Y-117387498D01*
X138022038Y-117339021D01*
X137968422Y-117231789D01*
X137968422Y-116850434D01*
X138022037Y-116743204D01*
X138070513Y-116694727D01*
X138177743Y-116641112D01*
X138416243Y-116641112D01*
X138482708Y-116674344D01*
G37*
G36*
X126166330Y-116694728D02*
G01*
X126214807Y-116743204D01*
X126268421Y-116850432D01*
X126268421Y-117231791D01*
X126214807Y-117339018D01*
X126166327Y-117387498D01*
X126059100Y-117441112D01*
X125892028Y-117441112D01*
X125784799Y-117387498D01*
X125736323Y-117339021D01*
X125682707Y-117231789D01*
X125682707Y-116850434D01*
X125736322Y-116743204D01*
X125784798Y-116694727D01*
X125892028Y-116641112D01*
X126059099Y-116641112D01*
X126166330Y-116694728D01*
G37*
G36*
X128699152Y-117066133D02*
G01*
X128702735Y-117066387D01*
X128706056Y-117067763D01*
X128725565Y-117069684D01*
X129059101Y-117069684D01*
X129151029Y-117115647D01*
X129196993Y-117207575D01*
X129196993Y-117303219D01*
X129151029Y-117395148D01*
X129059101Y-117441112D01*
X128749172Y-117441112D01*
X128682708Y-117407880D01*
X128682708Y-117059840D01*
X128699152Y-117066133D01*
G37*
G36*
X132452045Y-116694728D02*
G01*
X132500522Y-116743204D01*
X132554136Y-116850432D01*
X132554136Y-117231791D01*
X132500522Y-117339018D01*
X132452042Y-117387498D01*
X132344815Y-117441112D01*
X132177743Y-117441112D01*
X132070514Y-117387498D01*
X132022038Y-117339021D01*
X131968422Y-117231789D01*
X131968422Y-116850434D01*
X132022037Y-116743204D01*
X132070513Y-116694727D01*
X132177743Y-116641112D01*
X132344814Y-116641112D01*
X132452045Y-116694728D01*
G37*
G36*
X143413438Y-117066133D02*
G01*
X143417021Y-117066387D01*
X143420342Y-117067763D01*
X143439851Y-117069684D01*
X143773387Y-117069684D01*
X143865315Y-117115647D01*
X143911279Y-117207575D01*
X143911279Y-117303219D01*
X143865315Y-117395148D01*
X143773387Y-117441112D01*
X143463458Y-117441112D01*
X143396994Y-117407880D01*
X143396994Y-117059840D01*
X143413438Y-117066133D01*
G37*
G36*
X145196994Y-116674344D02*
G01*
X145196994Y-117407880D01*
X145130530Y-117441112D01*
X144892029Y-117441112D01*
X144784800Y-117387498D01*
X144736324Y-117339021D01*
X144682708Y-117231789D01*
X144682708Y-116850434D01*
X144736323Y-116743204D01*
X144784799Y-116694727D01*
X144892029Y-116641112D01*
X145130529Y-116641112D01*
X145196994Y-116674344D01*
G37*
G36*
X136015394Y-117012541D02*
G01*
X135578592Y-117012541D01*
X135796993Y-116357339D01*
X136015394Y-117012541D01*
G37*
G36*
X141801108Y-117012541D02*
G01*
X141364306Y-117012541D01*
X141582707Y-116357339D01*
X141801108Y-117012541D01*
G37*
G36*
X147443965Y-117012541D02*
G01*
X147007163Y-117012541D01*
X147225564Y-116357339D01*
X147443965Y-117012541D01*
G37*
G36*
X147991446Y-120792203D02*
G01*
X122816042Y-120792203D01*
X122816042Y-119241637D01*
X122982709Y-119241637D01*
X122982715Y-119241671D01*
X122982709Y-119241742D01*
X122982709Y-119527457D01*
X122982715Y-119527527D01*
X122982709Y-119527562D01*
X122983656Y-119537076D01*
X122984630Y-119546966D01*
X122984644Y-119547000D01*
X122984651Y-119547069D01*
X123056080Y-119904212D01*
X123057891Y-119910161D01*
X123059270Y-119916223D01*
X123130699Y-120130508D01*
X123133589Y-120136982D01*
X123136124Y-120143606D01*
X123207552Y-120286463D01*
X123210866Y-120291728D01*
X123213790Y-120297212D01*
X123356647Y-120511498D01*
X123356691Y-120511552D01*
X123356705Y-120511585D01*
X123362885Y-120519116D01*
X123369067Y-120526665D01*
X123369096Y-120526684D01*
X123369141Y-120526739D01*
X123440570Y-120598168D01*
X123455724Y-120610604D01*
X123491772Y-120625536D01*
X123530790Y-120625536D01*
X123566838Y-120610604D01*
X123594428Y-120583014D01*
X123609360Y-120546966D01*
X123609360Y-120507948D01*
X123594428Y-120471900D01*
X123581992Y-120456746D01*
X123517563Y-120392317D01*
X123383654Y-120191453D01*
X123318186Y-120060518D01*
X123250975Y-119858885D01*
X123182709Y-119517554D01*
X123182709Y-119313171D01*
X123911280Y-119313171D01*
X123911280Y-119670314D01*
X123913201Y-119689823D01*
X123914576Y-119693143D01*
X123914831Y-119696727D01*
X123921837Y-119715036D01*
X123993266Y-119857892D01*
X123998552Y-119866290D01*
X123999562Y-119868728D01*
X124001813Y-119871471D01*
X124003709Y-119874483D01*
X124005706Y-119876215D01*
X124011998Y-119883882D01*
X124083427Y-119955311D01*
X124091097Y-119961605D01*
X124092827Y-119963600D01*
X124095834Y-119965493D01*
X124098581Y-119967747D01*
X124101020Y-119968757D01*
X124109417Y-119974043D01*
X124252274Y-120045471D01*
X124270583Y-120052477D01*
X124274165Y-120052731D01*
X124277486Y-120054107D01*
X124296995Y-120056028D01*
X124654138Y-120056028D01*
X124673647Y-120054107D01*
X124676967Y-120052731D01*
X124680551Y-120052477D01*
X124698859Y-120045471D01*
X124841716Y-119974043D01*
X124850112Y-119968757D01*
X124852553Y-119967747D01*
X124855298Y-119965493D01*
X124858307Y-119963600D01*
X124860039Y-119961602D01*
X124867706Y-119955310D01*
X124939134Y-119883881D01*
X124951571Y-119868728D01*
X124966502Y-119832679D01*
X124966501Y-119793661D01*
X124951570Y-119757613D01*
X124923980Y-119730023D01*
X124887931Y-119715092D01*
X124848913Y-119715093D01*
X124812865Y-119730024D01*
X124797712Y-119742461D01*
X124737759Y-119802414D01*
X124630531Y-119856028D01*
X124320602Y-119856028D01*
X124213374Y-119802414D01*
X124164894Y-119753934D01*
X124111280Y-119646705D01*
X124111280Y-119336779D01*
X124164894Y-119229550D01*
X124213374Y-119181070D01*
X124320602Y-119127457D01*
X124630531Y-119127457D01*
X124737759Y-119181070D01*
X124797712Y-119241024D01*
X124812865Y-119253461D01*
X124817519Y-119255389D01*
X124821415Y-119258576D01*
X124835406Y-119262797D01*
X124848913Y-119268392D01*
X124853948Y-119268392D01*
X124858770Y-119269847D01*
X124873315Y-119268392D01*
X124887931Y-119268393D01*
X124892583Y-119266465D01*
X124897594Y-119265965D01*
X124910471Y-119259057D01*
X124923980Y-119253462D01*
X124927542Y-119249899D01*
X124931978Y-119247520D01*
X124941227Y-119236214D01*
X124951570Y-119225872D01*
X124953498Y-119221215D01*
X124956685Y-119217321D01*
X124960905Y-119203332D01*
X124966501Y-119189824D01*
X124966501Y-119184788D01*
X124967956Y-119179967D01*
X124967927Y-119160363D01*
X124926065Y-118741742D01*
X125339851Y-118741742D01*
X125339851Y-118884600D01*
X125340823Y-118894473D01*
X125340636Y-118897108D01*
X125341423Y-118900571D01*
X125341772Y-118904109D01*
X125342783Y-118906550D01*
X125344983Y-118916223D01*
X125416412Y-119130508D01*
X125424403Y-119148408D01*
X125426758Y-119151123D01*
X125428133Y-119154442D01*
X125440569Y-119169596D01*
X126127002Y-119856028D01*
X125439851Y-119856028D01*
X125420342Y-119857949D01*
X125384294Y-119872881D01*
X125356704Y-119900471D01*
X125341772Y-119936519D01*
X125341772Y-119975537D01*
X125356704Y-120011585D01*
X125384294Y-120039175D01*
X125420342Y-120054107D01*
X125439851Y-120056028D01*
X126368423Y-120056028D01*
X126387932Y-120054107D01*
X126423980Y-120039175D01*
X126451570Y-120011585D01*
X126466502Y-119975537D01*
X126466502Y-119936519D01*
X126455360Y-119909620D01*
X126451570Y-119900470D01*
X126439133Y-119885317D01*
X125918908Y-119365091D01*
X126841773Y-119365091D01*
X126841773Y-119404109D01*
X126856705Y-119440157D01*
X126884295Y-119467747D01*
X126920343Y-119482679D01*
X126939852Y-119484600D01*
X128082709Y-119484600D01*
X128102218Y-119482679D01*
X128138266Y-119467747D01*
X128165856Y-119440157D01*
X128180788Y-119404109D01*
X128180788Y-119365091D01*
X128165856Y-119329043D01*
X128138266Y-119301453D01*
X128102218Y-119286521D01*
X128082709Y-119284600D01*
X126939852Y-119284600D01*
X126920343Y-119286521D01*
X126884295Y-119301453D01*
X126856705Y-119329043D01*
X126841773Y-119365091D01*
X125918908Y-119365091D01*
X125724131Y-119170314D01*
X128696995Y-119170314D01*
X128696995Y-119956028D01*
X128698916Y-119975537D01*
X128713848Y-120011585D01*
X128741438Y-120039175D01*
X128777486Y-120054107D01*
X128816504Y-120054107D01*
X128852552Y-120039175D01*
X128880142Y-120011585D01*
X128895074Y-119975537D01*
X128896995Y-119956028D01*
X128896995Y-119193920D01*
X128942958Y-119101992D01*
X129034887Y-119056028D01*
X129201958Y-119056028D01*
X129309189Y-119109644D01*
X129339852Y-119140306D01*
X129339852Y-119956028D01*
X129341773Y-119975537D01*
X129356705Y-120011585D01*
X129384295Y-120039175D01*
X129420343Y-120054107D01*
X129459361Y-120054107D01*
X129495409Y-120039175D01*
X129522999Y-120011585D01*
X129537931Y-119975537D01*
X129539852Y-119956028D01*
X129539852Y-119014950D01*
X129983494Y-119014950D01*
X129986260Y-119053870D01*
X130003709Y-119088769D01*
X130033186Y-119114333D01*
X130070202Y-119126672D01*
X130109122Y-119123906D01*
X130127431Y-119116900D01*
X130249173Y-119056028D01*
X130487672Y-119056028D01*
X130594903Y-119109644D01*
X130643380Y-119158120D01*
X130696994Y-119265348D01*
X130696994Y-119646707D01*
X130643380Y-119753934D01*
X130594900Y-119802414D01*
X130487673Y-119856028D01*
X130249173Y-119856028D01*
X130127430Y-119795157D01*
X130109122Y-119788151D01*
X130070201Y-119785385D01*
X130033186Y-119797724D01*
X130003709Y-119823289D01*
X129986260Y-119858187D01*
X129983494Y-119897108D01*
X129995833Y-119934123D01*
X130021398Y-119963600D01*
X130037988Y-119974043D01*
X130180845Y-120045471D01*
X130199154Y-120052477D01*
X130202736Y-120052731D01*
X130206057Y-120054107D01*
X130225566Y-120056028D01*
X130511280Y-120056028D01*
X130530789Y-120054107D01*
X130534109Y-120052731D01*
X130537693Y-120052477D01*
X130556001Y-120045471D01*
X130698858Y-119974043D01*
X130707256Y-119968756D01*
X130709694Y-119967747D01*
X130712437Y-119965495D01*
X130715449Y-119963600D01*
X130717181Y-119961602D01*
X130724848Y-119955311D01*
X130796277Y-119883882D01*
X130802571Y-119876211D01*
X130804566Y-119874482D01*
X130806459Y-119871474D01*
X130808713Y-119868728D01*
X130809723Y-119866288D01*
X130815009Y-119857892D01*
X130886437Y-119715035D01*
X130893443Y-119696726D01*
X130893697Y-119693143D01*
X130895073Y-119689823D01*
X130896994Y-119670314D01*
X130896994Y-119241742D01*
X130895073Y-119222233D01*
X130893697Y-119218912D01*
X130893443Y-119215330D01*
X130886437Y-119197021D01*
X130815009Y-119054164D01*
X130809724Y-119045768D01*
X130808713Y-119043327D01*
X130806457Y-119040579D01*
X130804566Y-119037574D01*
X130802571Y-119035843D01*
X130796276Y-119028174D01*
X130724847Y-118956746D01*
X130717180Y-118950453D01*
X130715449Y-118948457D01*
X130712441Y-118946563D01*
X130709694Y-118944309D01*
X130707252Y-118943297D01*
X130698858Y-118938014D01*
X130695868Y-118936519D01*
X131127486Y-118936519D01*
X131127486Y-118975537D01*
X131142418Y-119011585D01*
X131170008Y-119039175D01*
X131206056Y-119054107D01*
X131225565Y-119056028D01*
X131344815Y-119056028D01*
X131452043Y-119109642D01*
X131500521Y-119158119D01*
X131554137Y-119265349D01*
X131554137Y-119956028D01*
X131556058Y-119975537D01*
X131570990Y-120011585D01*
X131598580Y-120039175D01*
X131634628Y-120054107D01*
X131673646Y-120054107D01*
X131709694Y-120039175D01*
X131737284Y-120011585D01*
X131752216Y-119975537D01*
X131754137Y-119956028D01*
X131754137Y-119170314D01*
X132268423Y-119170314D01*
X132268423Y-119956028D01*
X132270344Y-119975537D01*
X132285276Y-120011585D01*
X132312866Y-120039175D01*
X132348914Y-120054107D01*
X132387932Y-120054107D01*
X132423980Y-120039175D01*
X132433975Y-120029179D01*
X132466559Y-120045471D01*
X132484868Y-120052477D01*
X132488450Y-120052731D01*
X132491771Y-120054107D01*
X132511280Y-120056028D01*
X132868423Y-120056028D01*
X132887932Y-120054107D01*
X132891252Y-120052731D01*
X132894836Y-120052477D01*
X132913144Y-120045471D01*
X133056001Y-119974043D01*
X133059263Y-119971989D01*
X133060804Y-119971476D01*
X133062721Y-119969812D01*
X133072592Y-119963600D01*
X133080808Y-119954125D01*
X133090280Y-119945911D01*
X133096493Y-119936039D01*
X133098156Y-119934123D01*
X133098669Y-119932584D01*
X133100723Y-119929321D01*
X133172151Y-119786463D01*
X133179158Y-119768154D01*
X133179412Y-119764568D01*
X133180787Y-119761251D01*
X133182708Y-119741742D01*
X133182708Y-119598885D01*
X133180787Y-119579376D01*
X133179411Y-119576055D01*
X133179157Y-119572473D01*
X133172151Y-119554164D01*
X133100723Y-119411307D01*
X133098669Y-119408043D01*
X133098156Y-119406505D01*
X133096493Y-119404588D01*
X133090280Y-119394717D01*
X133080809Y-119386503D01*
X133072592Y-119377028D01*
X133062718Y-119370813D01*
X133060803Y-119369152D01*
X133059264Y-119368639D01*
X133056001Y-119366585D01*
X132913144Y-119295157D01*
X132894836Y-119288151D01*
X132891252Y-119287896D01*
X132887932Y-119286521D01*
X132868423Y-119284600D01*
X132534887Y-119284600D01*
X132468423Y-119251367D01*
X132468423Y-119193920D01*
X132514386Y-119101992D01*
X132606315Y-119056028D01*
X132844815Y-119056028D01*
X132966558Y-119116900D01*
X132984867Y-119123906D01*
X133023787Y-119126672D01*
X133060803Y-119114333D01*
X133090279Y-119088769D01*
X133107729Y-119053870D01*
X133110495Y-119014950D01*
X133098156Y-118977934D01*
X133072592Y-118948457D01*
X133056001Y-118938014D01*
X132913145Y-118866585D01*
X132894836Y-118859579D01*
X132891252Y-118859324D01*
X132887932Y-118857949D01*
X132868423Y-118856028D01*
X132582708Y-118856028D01*
X132563199Y-118857949D01*
X132559878Y-118859324D01*
X132556295Y-118859579D01*
X132537986Y-118866585D01*
X132395129Y-118938014D01*
X132391864Y-118940068D01*
X132390328Y-118940581D01*
X132388413Y-118942240D01*
X132378539Y-118948457D01*
X132370323Y-118957929D01*
X132360851Y-118966145D01*
X132354636Y-118976018D01*
X132352975Y-118977934D01*
X132352462Y-118979472D01*
X132350408Y-118982736D01*
X132278980Y-119125593D01*
X132271974Y-119143901D01*
X132271719Y-119147484D01*
X132270344Y-119150805D01*
X132268423Y-119170314D01*
X131754137Y-119170314D01*
X131754137Y-118956028D01*
X131752216Y-118936519D01*
X131737284Y-118900471D01*
X131709694Y-118872881D01*
X131673646Y-118857949D01*
X131634628Y-118857949D01*
X131598580Y-118872881D01*
X131570990Y-118900471D01*
X131556058Y-118936519D01*
X131555915Y-118937971D01*
X131413143Y-118866585D01*
X131394835Y-118859579D01*
X131391251Y-118859324D01*
X131387931Y-118857949D01*
X131368422Y-118856028D01*
X131225565Y-118856028D01*
X131206056Y-118857949D01*
X131170008Y-118872881D01*
X131142418Y-118900471D01*
X131127486Y-118936519D01*
X130695868Y-118936519D01*
X130556002Y-118866585D01*
X130537693Y-118859579D01*
X130534109Y-118859324D01*
X130530789Y-118857949D01*
X130511280Y-118856028D01*
X130225566Y-118856028D01*
X130206057Y-118857949D01*
X130202736Y-118859324D01*
X130199153Y-118859579D01*
X130180844Y-118866585D01*
X130037987Y-118938014D01*
X130021397Y-118948457D01*
X129995833Y-118977934D01*
X129983494Y-119014950D01*
X129539852Y-119014950D01*
X129539852Y-118456028D01*
X133625566Y-118456028D01*
X133625566Y-119956028D01*
X133627487Y-119975537D01*
X133642419Y-120011585D01*
X133670009Y-120039175D01*
X133706057Y-120054107D01*
X133745075Y-120054107D01*
X133781123Y-120039175D01*
X133808713Y-120011585D01*
X133823645Y-119975537D01*
X133825566Y-119956028D01*
X133825566Y-118906784D01*
X134134948Y-119569746D01*
X134139180Y-119576891D01*
X134140060Y-119579309D01*
X134141625Y-119581018D01*
X134144939Y-119586612D01*
X134156149Y-119596878D01*
X134166411Y-119608084D01*
X134170436Y-119609962D01*
X134173714Y-119612964D01*
X134187996Y-119618157D01*
X134201769Y-119624585D01*
X134206208Y-119624780D01*
X134210383Y-119626298D01*
X134225566Y-119625630D01*
X134240749Y-119626298D01*
X134244922Y-119624780D01*
X134249364Y-119624585D01*
X134263148Y-119618152D01*
X134277418Y-119612963D01*
X134280691Y-119609965D01*
X134284721Y-119608085D01*
X134294993Y-119596868D01*
X134306193Y-119586612D01*
X134309502Y-119581024D01*
X134311073Y-119579310D01*
X134311954Y-119576885D01*
X134316184Y-119569746D01*
X134625566Y-118906783D01*
X134625566Y-119956028D01*
X134627487Y-119975537D01*
X134642419Y-120011585D01*
X134670009Y-120039175D01*
X134706057Y-120054107D01*
X134745075Y-120054107D01*
X134781123Y-120039175D01*
X134808713Y-120011585D01*
X134823645Y-119975537D01*
X134825566Y-119956028D01*
X134825566Y-118456028D01*
X134824303Y-118443204D01*
X134824407Y-118440844D01*
X134823946Y-118439576D01*
X134823645Y-118436519D01*
X134817007Y-118420495D01*
X134811073Y-118404175D01*
X134809565Y-118402528D01*
X134808713Y-118400471D01*
X134796455Y-118388213D01*
X134784721Y-118375400D01*
X134782697Y-118374455D01*
X134781123Y-118372881D01*
X134765107Y-118366246D01*
X134749364Y-118358900D01*
X134747134Y-118358802D01*
X134745075Y-118357949D01*
X134727723Y-118357949D01*
X134710383Y-118357187D01*
X134708287Y-118357949D01*
X134706057Y-118357949D01*
X134690026Y-118364589D01*
X134673714Y-118370521D01*
X134672068Y-118372027D01*
X134670009Y-118372881D01*
X134657741Y-118385148D01*
X134644939Y-118396873D01*
X134643372Y-118399517D01*
X134642419Y-118400471D01*
X134641515Y-118402652D01*
X134634948Y-118413739D01*
X134225565Y-119290986D01*
X133816184Y-118413739D01*
X133809616Y-118402652D01*
X133808713Y-118400471D01*
X133807759Y-118399517D01*
X133806193Y-118396873D01*
X133793396Y-118385154D01*
X133781123Y-118372881D01*
X133779061Y-118372027D01*
X133777418Y-118370522D01*
X133761116Y-118364593D01*
X133745075Y-118357949D01*
X133742844Y-118357949D01*
X133740749Y-118357187D01*
X133723409Y-118357949D01*
X133706057Y-118357949D01*
X133703997Y-118358802D01*
X133701769Y-118358900D01*
X133686038Y-118366241D01*
X133670009Y-118372881D01*
X133668432Y-118374457D01*
X133666411Y-118375401D01*
X133654692Y-118388197D01*
X133642419Y-118400471D01*
X133641565Y-118402532D01*
X133640060Y-118404176D01*
X133634131Y-118420477D01*
X133627487Y-118436519D01*
X133627185Y-118439577D01*
X133626725Y-118440845D01*
X133626828Y-118443204D01*
X133625566Y-118456028D01*
X129539852Y-118456028D01*
X129537931Y-118436519D01*
X129522999Y-118400471D01*
X129495409Y-118372881D01*
X129459361Y-118357949D01*
X129420343Y-118357949D01*
X129384295Y-118372881D01*
X129356705Y-118400471D01*
X129341773Y-118436519D01*
X129339852Y-118456028D01*
X129339852Y-118901367D01*
X129270288Y-118866585D01*
X129251979Y-118859579D01*
X129248395Y-118859324D01*
X129245075Y-118857949D01*
X129225566Y-118856028D01*
X129011280Y-118856028D01*
X128991771Y-118857949D01*
X128988450Y-118859324D01*
X128984867Y-118859579D01*
X128966558Y-118866585D01*
X128823701Y-118938014D01*
X128820436Y-118940068D01*
X128818900Y-118940581D01*
X128816985Y-118942240D01*
X128807111Y-118948457D01*
X128798895Y-118957929D01*
X128789423Y-118966145D01*
X128783208Y-118976018D01*
X128781547Y-118977934D01*
X128781034Y-118979472D01*
X128778980Y-118982736D01*
X128707552Y-119125593D01*
X128700546Y-119143901D01*
X128700291Y-119147484D01*
X128698916Y-119150805D01*
X128696995Y-119170314D01*
X125724131Y-119170314D01*
X125598682Y-119044865D01*
X125539851Y-118868372D01*
X125539851Y-118765350D01*
X125593466Y-118658119D01*
X125641942Y-118609643D01*
X125749173Y-118556028D01*
X126059101Y-118556028D01*
X126166330Y-118609643D01*
X126226283Y-118669595D01*
X126241436Y-118682032D01*
X126277485Y-118696963D01*
X126316503Y-118696963D01*
X126352551Y-118682032D01*
X126380141Y-118654442D01*
X126395072Y-118618394D01*
X126395072Y-118579376D01*
X126380141Y-118543327D01*
X126367704Y-118528174D01*
X126296277Y-118456746D01*
X126288610Y-118450454D01*
X126286878Y-118448457D01*
X126283866Y-118446561D01*
X126281123Y-118444310D01*
X126278685Y-118443300D01*
X126270287Y-118438014D01*
X126127431Y-118366585D01*
X126109122Y-118359579D01*
X126105538Y-118359324D01*
X126102218Y-118357949D01*
X126082709Y-118356028D01*
X125725566Y-118356028D01*
X125706057Y-118357949D01*
X125702736Y-118359324D01*
X125699153Y-118359579D01*
X125680844Y-118366585D01*
X125537987Y-118438014D01*
X125529592Y-118443298D01*
X125527152Y-118444309D01*
X125524405Y-118446563D01*
X125521397Y-118448457D01*
X125519665Y-118450453D01*
X125511999Y-118456746D01*
X125440570Y-118528174D01*
X125434277Y-118535840D01*
X125432280Y-118537573D01*
X125430386Y-118540581D01*
X125428133Y-118543327D01*
X125427122Y-118545767D01*
X125421837Y-118554164D01*
X125350408Y-118697020D01*
X125343402Y-118715329D01*
X125343147Y-118718912D01*
X125341772Y-118722233D01*
X125339851Y-118741742D01*
X124926065Y-118741742D01*
X124896499Y-118446078D01*
X124895074Y-118438969D01*
X124895074Y-118436519D01*
X124894122Y-118434221D01*
X124892646Y-118426857D01*
X124885736Y-118413976D01*
X124880142Y-118400471D01*
X124876581Y-118396910D01*
X124874201Y-118392473D01*
X124862888Y-118383217D01*
X124852552Y-118372881D01*
X124847899Y-118370953D01*
X124844003Y-118367766D01*
X124830013Y-118363545D01*
X124816504Y-118357949D01*
X124809026Y-118357212D01*
X124806648Y-118356495D01*
X124804211Y-118356738D01*
X124796995Y-118356028D01*
X124082709Y-118356028D01*
X124063200Y-118357949D01*
X124027152Y-118372881D01*
X123999562Y-118400471D01*
X123984630Y-118436519D01*
X123984630Y-118475537D01*
X123999562Y-118511585D01*
X124027152Y-118539175D01*
X124063200Y-118554107D01*
X124082709Y-118556028D01*
X124706496Y-118556028D01*
X124747106Y-118962137D01*
X124698859Y-118938014D01*
X124680551Y-118931008D01*
X124676967Y-118930753D01*
X124673647Y-118929378D01*
X124654138Y-118927457D01*
X124296995Y-118927457D01*
X124277486Y-118929378D01*
X124274165Y-118930753D01*
X124270583Y-118931008D01*
X124252274Y-118938014D01*
X124109417Y-119009442D01*
X124101020Y-119014727D01*
X124098581Y-119015738D01*
X124095834Y-119017991D01*
X124092827Y-119019885D01*
X124091097Y-119021879D01*
X124083427Y-119028174D01*
X124011998Y-119099603D01*
X124005706Y-119107269D01*
X124003709Y-119109002D01*
X124001813Y-119112013D01*
X123999562Y-119114757D01*
X123998552Y-119117194D01*
X123993266Y-119125593D01*
X123921837Y-119268449D01*
X123914831Y-119286758D01*
X123914576Y-119290341D01*
X123913201Y-119293662D01*
X123911280Y-119313171D01*
X123182709Y-119313171D01*
X123182709Y-119251644D01*
X123250975Y-118910314D01*
X123318188Y-118708679D01*
X123383654Y-118577745D01*
X123517563Y-118376881D01*
X123581992Y-118312453D01*
X123594428Y-118297299D01*
X123609360Y-118261251D01*
X123609360Y-118222233D01*
X135198915Y-118222233D01*
X135198915Y-118261251D01*
X135213847Y-118297299D01*
X135226283Y-118312453D01*
X135290711Y-118376881D01*
X135424619Y-118577743D01*
X135490088Y-118708679D01*
X135557299Y-118910312D01*
X135625566Y-119251644D01*
X135625566Y-119517554D01*
X135557299Y-119858885D01*
X135490089Y-120060517D01*
X135424619Y-120191455D01*
X135290711Y-120392317D01*
X135226283Y-120456746D01*
X135213847Y-120471900D01*
X135198915Y-120507948D01*
X135198915Y-120546966D01*
X135213847Y-120583014D01*
X135241437Y-120610604D01*
X135277485Y-120625536D01*
X135316503Y-120625536D01*
X135352551Y-120610604D01*
X135367705Y-120598168D01*
X135439134Y-120526739D01*
X135439178Y-120526684D01*
X135439208Y-120526665D01*
X135445389Y-120519116D01*
X135451570Y-120511585D01*
X135451583Y-120511552D01*
X135451628Y-120511498D01*
X135594485Y-120297212D01*
X135597407Y-120291731D01*
X135600723Y-120286464D01*
X135672152Y-120143607D01*
X135674688Y-120136978D01*
X135677577Y-120130508D01*
X135742240Y-119936519D01*
X137413200Y-119936519D01*
X137413200Y-119975537D01*
X137428132Y-120011585D01*
X137455722Y-120039175D01*
X137491770Y-120054107D01*
X137511279Y-120056028D01*
X138368422Y-120056028D01*
X138387931Y-120054107D01*
X138423979Y-120039175D01*
X138451569Y-120011585D01*
X138466501Y-119975537D01*
X138466501Y-119936519D01*
X138451569Y-119900471D01*
X138423979Y-119872881D01*
X138405173Y-119865091D01*
X138841772Y-119865091D01*
X138841772Y-119904109D01*
X138844055Y-119909620D01*
X138856704Y-119940158D01*
X138869141Y-119955311D01*
X138940570Y-120026739D01*
X138955723Y-120039176D01*
X138979983Y-120049224D01*
X138991771Y-120054107D01*
X138991772Y-120054107D01*
X139030789Y-120054107D01*
X139051906Y-120045359D01*
X139066838Y-120039175D01*
X139066842Y-120039170D01*
X139081991Y-120026739D01*
X139153418Y-119955311D01*
X139165855Y-119940158D01*
X139177358Y-119912386D01*
X139180786Y-119904110D01*
X139180787Y-119865092D01*
X139165856Y-119829043D01*
X139153419Y-119813890D01*
X139081991Y-119742461D01*
X139066838Y-119730024D01*
X139051906Y-119723839D01*
X139030789Y-119715092D01*
X138991771Y-119715092D01*
X138981213Y-119719465D01*
X138955723Y-119730023D01*
X138955717Y-119730028D01*
X138940569Y-119742460D01*
X138869140Y-119813889D01*
X138856708Y-119829037D01*
X138856703Y-119829043D01*
X138852239Y-119839821D01*
X138841772Y-119865091D01*
X138405173Y-119865091D01*
X138387931Y-119857949D01*
X138368422Y-119856028D01*
X138039851Y-119856028D01*
X138039851Y-119027457D01*
X139554136Y-119027457D01*
X139554136Y-119384600D01*
X139554471Y-119388002D01*
X139554254Y-119389461D01*
X139555333Y-119396758D01*
X139556057Y-119404109D01*
X139556621Y-119405472D01*
X139557122Y-119408854D01*
X139628551Y-119694567D01*
X139629064Y-119696004D01*
X139629116Y-119696727D01*
X139632227Y-119704857D01*
X139635146Y-119713028D01*
X139635575Y-119713607D01*
X139636122Y-119715036D01*
X139707551Y-119857892D01*
X139712834Y-119866286D01*
X139713846Y-119868728D01*
X139716100Y-119871475D01*
X139717994Y-119874483D01*
X139719990Y-119876214D01*
X139726283Y-119883881D01*
X139797711Y-119955310D01*
X139805380Y-119961605D01*
X139807111Y-119963600D01*
X139810116Y-119965491D01*
X139812864Y-119967747D01*
X139815305Y-119968758D01*
X139823701Y-119974043D01*
X139966558Y-120045471D01*
X139984867Y-120052477D01*
X139988449Y-120052731D01*
X139991770Y-120054107D01*
X140011279Y-120056028D01*
X140154136Y-120056028D01*
X140173645Y-120054107D01*
X140176965Y-120052731D01*
X140180548Y-120052477D01*
X140198857Y-120045471D01*
X140341715Y-119974043D01*
X140350111Y-119968757D01*
X140352552Y-119967747D01*
X140355297Y-119965493D01*
X140358306Y-119963600D01*
X140360038Y-119961602D01*
X140367705Y-119955310D01*
X140439133Y-119883881D01*
X140445425Y-119876214D01*
X140447422Y-119874483D01*
X140449315Y-119871474D01*
X140451570Y-119868728D01*
X140452580Y-119866287D01*
X140457865Y-119857893D01*
X140529294Y-119715036D01*
X140529840Y-119713607D01*
X140530270Y-119713028D01*
X140533188Y-119704857D01*
X140536300Y-119696727D01*
X140536351Y-119696004D01*
X140536865Y-119694567D01*
X140608293Y-119408854D01*
X140608793Y-119405472D01*
X140609358Y-119404109D01*
X140610081Y-119396758D01*
X140611161Y-119389461D01*
X140610943Y-119388002D01*
X140611279Y-119384600D01*
X140611279Y-119027457D01*
X140610943Y-119024054D01*
X140611161Y-119022596D01*
X140610081Y-119015299D01*
X140609358Y-119007948D01*
X140608792Y-119006583D01*
X140608293Y-119003204D01*
X140536865Y-118717489D01*
X140536351Y-118716051D01*
X140536300Y-118715329D01*
X140533188Y-118707198D01*
X140530270Y-118699028D01*
X140529840Y-118698448D01*
X140529294Y-118697020D01*
X140457865Y-118554163D01*
X140452579Y-118545765D01*
X140451569Y-118543327D01*
X140449316Y-118540582D01*
X140447422Y-118537573D01*
X140445424Y-118535840D01*
X140439132Y-118528174D01*
X140379494Y-118468535D01*
X140840635Y-118468535D01*
X140844982Y-118487651D01*
X141344982Y-119987651D01*
X141352973Y-120005551D01*
X141357656Y-120010950D01*
X141360851Y-120017340D01*
X141370323Y-120025555D01*
X141378539Y-120035028D01*
X141384928Y-120038222D01*
X141390327Y-120042905D01*
X141402223Y-120046870D01*
X141413437Y-120052477D01*
X141420564Y-120052983D01*
X141427343Y-120055243D01*
X141439850Y-120054354D01*
X141452357Y-120055243D01*
X141459135Y-120052983D01*
X141466263Y-120052477D01*
X141477475Y-120046870D01*
X141489373Y-120042905D01*
X141494772Y-120038221D01*
X141501162Y-120035027D01*
X141509377Y-120025555D01*
X141518849Y-120017340D01*
X141522043Y-120010950D01*
X141526727Y-120005551D01*
X141534718Y-119987651D01*
X141742238Y-119365091D01*
X142341772Y-119365091D01*
X142341772Y-119404109D01*
X142356704Y-119440157D01*
X142384294Y-119467747D01*
X142420342Y-119482679D01*
X142439851Y-119484600D01*
X143582708Y-119484600D01*
X143602217Y-119482679D01*
X143638265Y-119467747D01*
X143665855Y-119440157D01*
X143680787Y-119404109D01*
X143680787Y-119365091D01*
X143665855Y-119329043D01*
X143638265Y-119301453D01*
X143602217Y-119286521D01*
X143582708Y-119284600D01*
X142439851Y-119284600D01*
X142420342Y-119286521D01*
X142384294Y-119301453D01*
X142356704Y-119329043D01*
X142341772Y-119365091D01*
X141742238Y-119365091D01*
X141873721Y-118970643D01*
X144055209Y-118970643D01*
X144059962Y-118989662D01*
X144417105Y-119989662D01*
X144425475Y-120007388D01*
X144428845Y-120011110D01*
X144430993Y-120015645D01*
X144441841Y-120025465D01*
X144451662Y-120036314D01*
X144456196Y-120038461D01*
X144459919Y-120041832D01*
X144473705Y-120046755D01*
X144486924Y-120053017D01*
X144491935Y-120053266D01*
X144496664Y-120054955D01*
X144511279Y-120054228D01*
X144525894Y-120054955D01*
X144530622Y-120053266D01*
X144535634Y-120053017D01*
X144548857Y-120046753D01*
X144562639Y-120041831D01*
X144566359Y-120038462D01*
X144570896Y-120036314D01*
X144580718Y-120025463D01*
X144591565Y-120015645D01*
X144593712Y-120011110D01*
X144597083Y-120007388D01*
X144605453Y-119989662D01*
X144898077Y-119170314D01*
X145268422Y-119170314D01*
X145268422Y-119313171D01*
X145270343Y-119332680D01*
X145274092Y-119341732D01*
X145275994Y-119351343D01*
X145281485Y-119359579D01*
X145285275Y-119368728D01*
X145292201Y-119375654D01*
X145297637Y-119383808D01*
X145305865Y-119389318D01*
X145312865Y-119396318D01*
X145321916Y-119400067D01*
X145330057Y-119405519D01*
X145348810Y-119411229D01*
X145348911Y-119411249D01*
X145348913Y-119411250D01*
X145348915Y-119411250D01*
X145982707Y-119538008D01*
X145982707Y-119718135D01*
X145936743Y-119810064D01*
X145844815Y-119856028D01*
X145606314Y-119856028D01*
X145484571Y-119795157D01*
X145466263Y-119788151D01*
X145427342Y-119785385D01*
X145390327Y-119797724D01*
X145360850Y-119823289D01*
X145343401Y-119858187D01*
X145340635Y-119897108D01*
X145352974Y-119934123D01*
X145378539Y-119963600D01*
X145395129Y-119974043D01*
X145537986Y-120045471D01*
X145556295Y-120052477D01*
X145559877Y-120052731D01*
X145563198Y-120054107D01*
X145582707Y-120056028D01*
X145868422Y-120056028D01*
X145887931Y-120054107D01*
X145891251Y-120052731D01*
X145894835Y-120052477D01*
X145913143Y-120045471D01*
X146056000Y-119974043D01*
X146059262Y-119971989D01*
X146060803Y-119971476D01*
X146062720Y-119969812D01*
X146072591Y-119963600D01*
X146080807Y-119954125D01*
X146090279Y-119945911D01*
X146096492Y-119936039D01*
X146098155Y-119934123D01*
X146098668Y-119932584D01*
X146100722Y-119929321D01*
X146172150Y-119786463D01*
X146179157Y-119768154D01*
X146179411Y-119764568D01*
X146180786Y-119761251D01*
X146182707Y-119741742D01*
X146182707Y-119456138D01*
X146182708Y-119456133D01*
X146182707Y-119456127D01*
X146182707Y-119170314D01*
X146180786Y-119150805D01*
X146179410Y-119147484D01*
X146179156Y-119143902D01*
X146172150Y-119125593D01*
X146100722Y-118982736D01*
X146098668Y-118979472D01*
X146098155Y-118977934D01*
X146096492Y-118976017D01*
X146090279Y-118966146D01*
X146080808Y-118957932D01*
X146072591Y-118948457D01*
X146062717Y-118942242D01*
X146060802Y-118940581D01*
X146059263Y-118940068D01*
X146056000Y-118938014D01*
X145913144Y-118866585D01*
X145894835Y-118859579D01*
X145891251Y-118859324D01*
X145887931Y-118857949D01*
X145868422Y-118856028D01*
X145582707Y-118856028D01*
X145563198Y-118857949D01*
X145559877Y-118859324D01*
X145556294Y-118859579D01*
X145537985Y-118866585D01*
X145395128Y-118938014D01*
X145391863Y-118940068D01*
X145390327Y-118940581D01*
X145388412Y-118942240D01*
X145378538Y-118948457D01*
X145370322Y-118957929D01*
X145360850Y-118966145D01*
X145354635Y-118976018D01*
X145352974Y-118977934D01*
X145352461Y-118979472D01*
X145350407Y-118982736D01*
X145278979Y-119125593D01*
X145271973Y-119143901D01*
X145271718Y-119147484D01*
X145270343Y-119150805D01*
X145268422Y-119170314D01*
X144898077Y-119170314D01*
X144962596Y-118989662D01*
X144967349Y-118970643D01*
X144965411Y-118931673D01*
X144948708Y-118896411D01*
X144919782Y-118870225D01*
X144883037Y-118857101D01*
X144844067Y-118859039D01*
X144808805Y-118875742D01*
X144782618Y-118904668D01*
X144774248Y-118922394D01*
X144511279Y-119658706D01*
X144248310Y-118922394D01*
X144239940Y-118904668D01*
X144213753Y-118875742D01*
X144178491Y-118859039D01*
X144139521Y-118857101D01*
X144102776Y-118870224D01*
X144073850Y-118896411D01*
X144057147Y-118931673D01*
X144055209Y-118970643D01*
X141873721Y-118970643D01*
X141950021Y-118741742D01*
X146554136Y-118741742D01*
X146554136Y-118956028D01*
X146556057Y-118975537D01*
X146557432Y-118978857D01*
X146557687Y-118982441D01*
X146564693Y-119000749D01*
X146636121Y-119143606D01*
X146641407Y-119152004D01*
X146642417Y-119154442D01*
X146644668Y-119157185D01*
X146646564Y-119160197D01*
X146648561Y-119161929D01*
X146654853Y-119169596D01*
X146726282Y-119241025D01*
X146733952Y-119247319D01*
X146735682Y-119249314D01*
X146738689Y-119251207D01*
X146741436Y-119253461D01*
X146743875Y-119254471D01*
X146752272Y-119259757D01*
X146895129Y-119331185D01*
X146913438Y-119338191D01*
X146917020Y-119338445D01*
X146920341Y-119339821D01*
X146939850Y-119341742D01*
X146962071Y-119341742D01*
X146572213Y-119898682D01*
X146562599Y-119915766D01*
X146554159Y-119953860D01*
X146560940Y-119992285D01*
X146581909Y-120025190D01*
X146613874Y-120047565D01*
X146651968Y-120056005D01*
X146690393Y-120049224D01*
X146723298Y-120028255D01*
X146736059Y-120013374D01*
X147206201Y-119341742D01*
X147411279Y-119341742D01*
X147411279Y-119956028D01*
X147413200Y-119975537D01*
X147428132Y-120011585D01*
X147455722Y-120039175D01*
X147491770Y-120054107D01*
X147530788Y-120054107D01*
X147566836Y-120039175D01*
X147594426Y-120011585D01*
X147609358Y-119975537D01*
X147611279Y-119956028D01*
X147611279Y-118456028D01*
X147609358Y-118436519D01*
X147594426Y-118400471D01*
X147566836Y-118372881D01*
X147530788Y-118357949D01*
X147511279Y-118356028D01*
X146939850Y-118356028D01*
X146920341Y-118357949D01*
X146917020Y-118359324D01*
X146913437Y-118359579D01*
X146895128Y-118366585D01*
X146752271Y-118438014D01*
X146743876Y-118443298D01*
X146741436Y-118444309D01*
X146738689Y-118446563D01*
X146735681Y-118448457D01*
X146733949Y-118450453D01*
X146726283Y-118456746D01*
X146654854Y-118528174D01*
X146648561Y-118535840D01*
X146646564Y-118537573D01*
X146644670Y-118540581D01*
X146642417Y-118543327D01*
X146641406Y-118545767D01*
X146636121Y-118554164D01*
X146564693Y-118697021D01*
X146557687Y-118715329D01*
X146557432Y-118718912D01*
X146556057Y-118722233D01*
X146554136Y-118741742D01*
X141950021Y-118741742D01*
X142034718Y-118487651D01*
X142039065Y-118468535D01*
X142036299Y-118429615D01*
X142018849Y-118394716D01*
X141989373Y-118369151D01*
X141952357Y-118356813D01*
X141913437Y-118359579D01*
X141878539Y-118377028D01*
X141852973Y-118406505D01*
X141844982Y-118424405D01*
X141439850Y-119639801D01*
X141034718Y-118424405D01*
X141026727Y-118406505D01*
X141001162Y-118377029D01*
X140966263Y-118359579D01*
X140927343Y-118356813D01*
X140890327Y-118369151D01*
X140860851Y-118394716D01*
X140843401Y-118429615D01*
X140840635Y-118468535D01*
X140379494Y-118468535D01*
X140367705Y-118456746D01*
X140360038Y-118450454D01*
X140358306Y-118448457D01*
X140355294Y-118446561D01*
X140352551Y-118444310D01*
X140350113Y-118443300D01*
X140341715Y-118438014D01*
X140198857Y-118366585D01*
X140180549Y-118359579D01*
X140176965Y-118359324D01*
X140173645Y-118357949D01*
X140154136Y-118356028D01*
X140011279Y-118356028D01*
X139991770Y-118357949D01*
X139988449Y-118359324D01*
X139984866Y-118359579D01*
X139966557Y-118366585D01*
X139823700Y-118438014D01*
X139815302Y-118443299D01*
X139812864Y-118444310D01*
X139810119Y-118446562D01*
X139807110Y-118448457D01*
X139805377Y-118450454D01*
X139797711Y-118456747D01*
X139726283Y-118528174D01*
X139719991Y-118535840D01*
X139717994Y-118537573D01*
X139716098Y-118540584D01*
X139713847Y-118543328D01*
X139712837Y-118545765D01*
X139707551Y-118554164D01*
X139636122Y-118697020D01*
X139635575Y-118698448D01*
X139635146Y-118699028D01*
X139632227Y-118707198D01*
X139629116Y-118715329D01*
X139629064Y-118716051D01*
X139628551Y-118717489D01*
X139557122Y-119003203D01*
X139556621Y-119006584D01*
X139556057Y-119007948D01*
X139555333Y-119015298D01*
X139554254Y-119022596D01*
X139554471Y-119024054D01*
X139554136Y-119027457D01*
X138039851Y-119027457D01*
X138039851Y-118768878D01*
X138154854Y-118883881D01*
X138162520Y-118890173D01*
X138164253Y-118892171D01*
X138167262Y-118894065D01*
X138170007Y-118896318D01*
X138172445Y-118897328D01*
X138180843Y-118902614D01*
X138323700Y-118974043D01*
X138342009Y-118981049D01*
X138380929Y-118983815D01*
X138417945Y-118971476D01*
X138447421Y-118945912D01*
X138464871Y-118911013D01*
X138467637Y-118872093D01*
X138455298Y-118835077D01*
X138429734Y-118805600D01*
X138413143Y-118795157D01*
X138284799Y-118730984D01*
X138160419Y-118606603D01*
X138023056Y-118400558D01*
X138023011Y-118400503D01*
X138022998Y-118400471D01*
X138022924Y-118400397D01*
X138010636Y-118385391D01*
X138002407Y-118379880D01*
X137995408Y-118372881D01*
X137986356Y-118369131D01*
X137978216Y-118363680D01*
X137968508Y-118361738D01*
X137959360Y-118357949D01*
X137949561Y-118357949D01*
X137939956Y-118356028D01*
X137930245Y-118357949D01*
X137920342Y-118357949D01*
X137911289Y-118361698D01*
X137901679Y-118363600D01*
X137893440Y-118369092D01*
X137884294Y-118372881D01*
X137877367Y-118379807D01*
X137869214Y-118385243D01*
X137863703Y-118393471D01*
X137856704Y-118400471D01*
X137852954Y-118409522D01*
X137847503Y-118417663D01*
X137845561Y-118427370D01*
X137841772Y-118436519D01*
X137839871Y-118455821D01*
X137839851Y-118455923D01*
X137839857Y-118455957D01*
X137839851Y-118456028D01*
X137839851Y-119856028D01*
X137511279Y-119856028D01*
X137491770Y-119857949D01*
X137455722Y-119872881D01*
X137428132Y-119900471D01*
X137413200Y-119936519D01*
X135742240Y-119936519D01*
X135749005Y-119916223D01*
X135750383Y-119910162D01*
X135752195Y-119904212D01*
X135823624Y-119547069D01*
X135823630Y-119547000D01*
X135823645Y-119546966D01*
X135824618Y-119537076D01*
X135825566Y-119527562D01*
X135825559Y-119527527D01*
X135825566Y-119527457D01*
X135825566Y-119241742D01*
X135825559Y-119241671D01*
X135825566Y-119241637D01*
X135824618Y-119232122D01*
X135823645Y-119222233D01*
X135823630Y-119222198D01*
X135823624Y-119222130D01*
X135752195Y-118864988D01*
X135750383Y-118859037D01*
X135749005Y-118852977D01*
X135677577Y-118638691D01*
X135674688Y-118632220D01*
X135672152Y-118625592D01*
X135600723Y-118482735D01*
X135597407Y-118477467D01*
X135594485Y-118471987D01*
X135451628Y-118257701D01*
X135451583Y-118257646D01*
X135451570Y-118257614D01*
X135445389Y-118250082D01*
X135439208Y-118242534D01*
X135439178Y-118242514D01*
X135439134Y-118242460D01*
X135367705Y-118171031D01*
X135352551Y-118158595D01*
X135316503Y-118143663D01*
X135277485Y-118143663D01*
X135241437Y-118158595D01*
X135213847Y-118186185D01*
X135198915Y-118222233D01*
X123609360Y-118222233D01*
X123594428Y-118186185D01*
X123566838Y-118158595D01*
X123530790Y-118143663D01*
X123491772Y-118143663D01*
X123455724Y-118158595D01*
X123440570Y-118171031D01*
X123369141Y-118242460D01*
X123369096Y-118242514D01*
X123369067Y-118242534D01*
X123362885Y-118250082D01*
X123356705Y-118257614D01*
X123356691Y-118257646D01*
X123356647Y-118257701D01*
X123213790Y-118471987D01*
X123210866Y-118477470D01*
X123207552Y-118482736D01*
X123136124Y-118625593D01*
X123133589Y-118632216D01*
X123130699Y-118638691D01*
X123059270Y-118852977D01*
X123057891Y-118859038D01*
X123056080Y-118864988D01*
X122984651Y-119222130D01*
X122984644Y-119222198D01*
X122984630Y-119222233D01*
X122983656Y-119232122D01*
X122982709Y-119241637D01*
X122816042Y-119241637D01*
X122816042Y-116755398D01*
X124196993Y-116755398D01*
X124196993Y-117541112D01*
X124198914Y-117560621D01*
X124213846Y-117596669D01*
X124241436Y-117624259D01*
X124277484Y-117639191D01*
X124316502Y-117639191D01*
X124352550Y-117624259D01*
X124380140Y-117596669D01*
X124395072Y-117560621D01*
X124396993Y-117541112D01*
X124396993Y-116779004D01*
X124442956Y-116687076D01*
X124534885Y-116641112D01*
X124701956Y-116641112D01*
X124809187Y-116694728D01*
X124839850Y-116725390D01*
X124839850Y-117541112D01*
X124841771Y-117560621D01*
X124856703Y-117596669D01*
X124884293Y-117624259D01*
X124920341Y-117639191D01*
X124959359Y-117639191D01*
X124995407Y-117624259D01*
X125022997Y-117596669D01*
X125037929Y-117560621D01*
X125039850Y-117541112D01*
X125039850Y-116826826D01*
X125482707Y-116826826D01*
X125482707Y-117255398D01*
X125484628Y-117274907D01*
X125486003Y-117278227D01*
X125486258Y-117281811D01*
X125493264Y-117300120D01*
X125564693Y-117442976D01*
X125569976Y-117451370D01*
X125570988Y-117453812D01*
X125573242Y-117456559D01*
X125575136Y-117459567D01*
X125577132Y-117461298D01*
X125583425Y-117468965D01*
X125654853Y-117540394D01*
X125662522Y-117546689D01*
X125664253Y-117548684D01*
X125667258Y-117550575D01*
X125670006Y-117552831D01*
X125672447Y-117553842D01*
X125680843Y-117559127D01*
X125823700Y-117630555D01*
X125842009Y-117637561D01*
X125845591Y-117637815D01*
X125848912Y-117639191D01*
X125868421Y-117641112D01*
X126082707Y-117641112D01*
X126102216Y-117639191D01*
X126105536Y-117637815D01*
X126109120Y-117637561D01*
X126127428Y-117630555D01*
X126270285Y-117559127D01*
X126278683Y-117553840D01*
X126281121Y-117552831D01*
X126283864Y-117550579D01*
X126286876Y-117548684D01*
X126288608Y-117546686D01*
X126296275Y-117540395D01*
X126367704Y-117468966D01*
X126373998Y-117461295D01*
X126375993Y-117459566D01*
X126377886Y-117456558D01*
X126380140Y-117453812D01*
X126381150Y-117451372D01*
X126386436Y-117442976D01*
X126457864Y-117300119D01*
X126464870Y-117281810D01*
X126465124Y-117278227D01*
X126466500Y-117274907D01*
X126468421Y-117255398D01*
X126468421Y-116826826D01*
X126466500Y-116807317D01*
X126465124Y-116803996D01*
X126464870Y-116800414D01*
X126457864Y-116782105D01*
X126386436Y-116639248D01*
X126381151Y-116630852D01*
X126380140Y-116628411D01*
X126377884Y-116625663D01*
X126375993Y-116622658D01*
X126373998Y-116620927D01*
X126367703Y-116613258D01*
X126296274Y-116541830D01*
X126295399Y-116541112D01*
X126911279Y-116541112D01*
X126911279Y-117541112D01*
X126913200Y-117560621D01*
X126928132Y-117596669D01*
X126955722Y-117624259D01*
X126991770Y-117639191D01*
X127030788Y-117639191D01*
X127066836Y-117624259D01*
X127094426Y-117596669D01*
X127109358Y-117560621D01*
X127111279Y-117541112D01*
X127111279Y-116541112D01*
X127109358Y-116521603D01*
X127413200Y-116521603D01*
X127413200Y-116560621D01*
X127428132Y-116596669D01*
X127455722Y-116624259D01*
X127491770Y-116639191D01*
X127511279Y-116641112D01*
X127768422Y-116641112D01*
X127768422Y-117303219D01*
X127722457Y-117395148D01*
X127630529Y-117441112D01*
X127511279Y-117441112D01*
X127491770Y-117443033D01*
X127455722Y-117457965D01*
X127428132Y-117485555D01*
X127413200Y-117521603D01*
X127413200Y-117560621D01*
X127428132Y-117596669D01*
X127455722Y-117624259D01*
X127491770Y-117639191D01*
X127511279Y-117641112D01*
X127654136Y-117641112D01*
X127673645Y-117639191D01*
X127676965Y-117637815D01*
X127680549Y-117637561D01*
X127698857Y-117630555D01*
X127841714Y-117559127D01*
X127844977Y-117557072D01*
X127846516Y-117556560D01*
X127848431Y-117554898D01*
X127858305Y-117548684D01*
X127866520Y-117539211D01*
X127875993Y-117530996D01*
X127882207Y-117521122D01*
X127883869Y-117519207D01*
X127884381Y-117517668D01*
X127886436Y-117514405D01*
X127957865Y-117371547D01*
X127964871Y-117353239D01*
X127965125Y-117349655D01*
X127966501Y-117346335D01*
X127968422Y-117326826D01*
X127968422Y-116755398D01*
X128482708Y-116755398D01*
X128482708Y-117541112D01*
X128484629Y-117560621D01*
X128499561Y-117596669D01*
X128527151Y-117624259D01*
X128563199Y-117639191D01*
X128602217Y-117639191D01*
X128638265Y-117624259D01*
X128648260Y-117614263D01*
X128680844Y-117630555D01*
X128699153Y-117637561D01*
X128702735Y-117637815D01*
X128706056Y-117639191D01*
X128725565Y-117641112D01*
X129082708Y-117641112D01*
X129102217Y-117639191D01*
X129105537Y-117637815D01*
X129109121Y-117637561D01*
X129127429Y-117630555D01*
X129270286Y-117559127D01*
X129273548Y-117557073D01*
X129275089Y-117556560D01*
X129277006Y-117554896D01*
X129286877Y-117548684D01*
X129295093Y-117539209D01*
X129304565Y-117530995D01*
X129310778Y-117521123D01*
X129312441Y-117519207D01*
X129312954Y-117517668D01*
X129315008Y-117514405D01*
X129386436Y-117371547D01*
X129393443Y-117353238D01*
X129393697Y-117349652D01*
X129395072Y-117346335D01*
X129396993Y-117326826D01*
X129396993Y-117183969D01*
X129395072Y-117164460D01*
X129393696Y-117161139D01*
X129393442Y-117157557D01*
X129386436Y-117139248D01*
X129315008Y-116996391D01*
X129312954Y-116993127D01*
X129312441Y-116991589D01*
X129310778Y-116989672D01*
X129304565Y-116979801D01*
X129295094Y-116971587D01*
X129286877Y-116962112D01*
X129277003Y-116955897D01*
X129275088Y-116954236D01*
X129273549Y-116953723D01*
X129270286Y-116951669D01*
X129127429Y-116880241D01*
X129109121Y-116873235D01*
X129105537Y-116872980D01*
X129102217Y-116871605D01*
X129082708Y-116869684D01*
X128749172Y-116869684D01*
X128682708Y-116836451D01*
X128682708Y-116779004D01*
X128694511Y-116755398D01*
X129839850Y-116755398D01*
X129839850Y-117541112D01*
X129841771Y-117560621D01*
X129856703Y-117596669D01*
X129884293Y-117624259D01*
X129920341Y-117639191D01*
X129959359Y-117639191D01*
X129995407Y-117624259D01*
X130022997Y-117596669D01*
X130037929Y-117560621D01*
X130039850Y-117541112D01*
X130039850Y-116779006D01*
X130085815Y-116687076D01*
X130177743Y-116641112D01*
X130344814Y-116641112D01*
X130436743Y-116687077D01*
X130482708Y-116779005D01*
X130482708Y-117541112D01*
X130484629Y-117560621D01*
X130499561Y-117596669D01*
X130527151Y-117624259D01*
X130563199Y-117639191D01*
X130602217Y-117639191D01*
X130638265Y-117624259D01*
X130665855Y-117596669D01*
X130680787Y-117560621D01*
X130682708Y-117541112D01*
X130682708Y-116779004D01*
X130728671Y-116687076D01*
X130820600Y-116641112D01*
X130987671Y-116641112D01*
X131094902Y-116694728D01*
X131125565Y-116725390D01*
X131125565Y-117541112D01*
X131127486Y-117560621D01*
X131142418Y-117596669D01*
X131170008Y-117624259D01*
X131206056Y-117639191D01*
X131245074Y-117639191D01*
X131281122Y-117624259D01*
X131308712Y-117596669D01*
X131323644Y-117560621D01*
X131325565Y-117541112D01*
X131325565Y-116826826D01*
X131768422Y-116826826D01*
X131768422Y-117255398D01*
X131770343Y-117274907D01*
X131771718Y-117278227D01*
X131771973Y-117281811D01*
X131778979Y-117300120D01*
X131850408Y-117442976D01*
X131855691Y-117451370D01*
X131856703Y-117453812D01*
X131858957Y-117456559D01*
X131860851Y-117459567D01*
X131862847Y-117461298D01*
X131869140Y-117468965D01*
X131940568Y-117540394D01*
X131948237Y-117546689D01*
X131949968Y-117548684D01*
X131952973Y-117550575D01*
X131955721Y-117552831D01*
X131958162Y-117553842D01*
X131966558Y-117559127D01*
X132109415Y-117630555D01*
X132127724Y-117637561D01*
X132131306Y-117637815D01*
X132134627Y-117639191D01*
X132154136Y-117641112D01*
X132368422Y-117641112D01*
X132387931Y-117639191D01*
X132391251Y-117637815D01*
X132394835Y-117637561D01*
X132413143Y-117630555D01*
X132556000Y-117559127D01*
X132564398Y-117553840D01*
X132566836Y-117552831D01*
X132569579Y-117550579D01*
X132572591Y-117548684D01*
X132574323Y-117546686D01*
X132581990Y-117540395D01*
X132653419Y-117468966D01*
X132659713Y-117461295D01*
X132661708Y-117459566D01*
X132663601Y-117456558D01*
X132665855Y-117453812D01*
X132666865Y-117451372D01*
X132672151Y-117442976D01*
X132743579Y-117300119D01*
X132750585Y-117281810D01*
X132750839Y-117278227D01*
X132752215Y-117274907D01*
X132754136Y-117255398D01*
X132754136Y-116826826D01*
X132752215Y-116807317D01*
X132750839Y-116803996D01*
X132750585Y-116800414D01*
X132743579Y-116782105D01*
X132672151Y-116639248D01*
X132666866Y-116630852D01*
X132665855Y-116628411D01*
X132663599Y-116625663D01*
X132661708Y-116622658D01*
X132659713Y-116620927D01*
X132653418Y-116613258D01*
X132581989Y-116541830D01*
X132574322Y-116535537D01*
X132572591Y-116533541D01*
X132569583Y-116531647D01*
X132566836Y-116529393D01*
X132564394Y-116528381D01*
X132556000Y-116523098D01*
X132553010Y-116521603D01*
X132984629Y-116521603D01*
X132984629Y-116560621D01*
X132999561Y-116596669D01*
X133027151Y-116624259D01*
X133063199Y-116639191D01*
X133082708Y-116641112D01*
X133339851Y-116641112D01*
X133339851Y-117303219D01*
X133293886Y-117395148D01*
X133201958Y-117441112D01*
X133082708Y-117441112D01*
X133063199Y-117443033D01*
X133027151Y-117457965D01*
X132999561Y-117485555D01*
X132984629Y-117521603D01*
X132984629Y-117560621D01*
X132999561Y-117596669D01*
X133027151Y-117624259D01*
X133063199Y-117639191D01*
X133082708Y-117641112D01*
X133225565Y-117641112D01*
X133245074Y-117639191D01*
X133248394Y-117637815D01*
X133251978Y-117637561D01*
X133270286Y-117630555D01*
X133413143Y-117559127D01*
X133416406Y-117557072D01*
X133417945Y-117556560D01*
X133419860Y-117554898D01*
X133429734Y-117548684D01*
X133437949Y-117539211D01*
X133447422Y-117530996D01*
X133453636Y-117521122D01*
X133455298Y-117519207D01*
X133455810Y-117517668D01*
X133457865Y-117514405D01*
X133529294Y-117371547D01*
X133536300Y-117353239D01*
X133536554Y-117349655D01*
X133537930Y-117346335D01*
X133539851Y-117326826D01*
X133539851Y-116641112D01*
X133654136Y-116641112D01*
X133673645Y-116639191D01*
X133709693Y-116624259D01*
X133737283Y-116596669D01*
X133752215Y-116560621D01*
X133752215Y-116541112D01*
X134054137Y-116541112D01*
X134054137Y-117541112D01*
X134056058Y-117560621D01*
X134070990Y-117596669D01*
X134098580Y-117624259D01*
X134134628Y-117639191D01*
X134173646Y-117639191D01*
X134209694Y-117624259D01*
X134237284Y-117596669D01*
X134240482Y-117588946D01*
X134323701Y-117630555D01*
X134342010Y-117637561D01*
X134345592Y-117637815D01*
X134348913Y-117639191D01*
X134368422Y-117641112D01*
X134582708Y-117641112D01*
X134602217Y-117639191D01*
X134605537Y-117637815D01*
X134609121Y-117637561D01*
X134627429Y-117630555D01*
X134770286Y-117559127D01*
X134773549Y-117557072D01*
X134775088Y-117556560D01*
X134777003Y-117554898D01*
X134786877Y-117548684D01*
X134795092Y-117539211D01*
X134804565Y-117530996D01*
X134806070Y-117528605D01*
X135197778Y-117528605D01*
X135200544Y-117567525D01*
X135217994Y-117602424D01*
X135247470Y-117627989D01*
X135284486Y-117640327D01*
X135323406Y-117637561D01*
X135358305Y-117620111D01*
X135383870Y-117590635D01*
X135391861Y-117572735D01*
X135511926Y-117212541D01*
X136082060Y-117212541D01*
X136202125Y-117572735D01*
X136210116Y-117590635D01*
X136235682Y-117620112D01*
X136270580Y-117637561D01*
X136309500Y-117640327D01*
X136346516Y-117627989D01*
X136375992Y-117602424D01*
X136393442Y-117567525D01*
X136396208Y-117528605D01*
X136391861Y-117509489D01*
X136164307Y-116826826D01*
X137768422Y-116826826D01*
X137768422Y-117255398D01*
X137770343Y-117274907D01*
X137771718Y-117278227D01*
X137771973Y-117281811D01*
X137778979Y-117300120D01*
X137850408Y-117442976D01*
X137855691Y-117451370D01*
X137856703Y-117453812D01*
X137858957Y-117456559D01*
X137860851Y-117459567D01*
X137862847Y-117461298D01*
X137869140Y-117468965D01*
X137940568Y-117540394D01*
X137948237Y-117546689D01*
X137949968Y-117548684D01*
X137952973Y-117550575D01*
X137955721Y-117552831D01*
X137958162Y-117553842D01*
X137966558Y-117559127D01*
X138109415Y-117630555D01*
X138127724Y-117637561D01*
X138131306Y-117637815D01*
X138134627Y-117639191D01*
X138154136Y-117641112D01*
X138439851Y-117641112D01*
X138459360Y-117639191D01*
X138462680Y-117637815D01*
X138466264Y-117637561D01*
X138482708Y-117631268D01*
X138482708Y-118041112D01*
X138484629Y-118060621D01*
X138499561Y-118096669D01*
X138527151Y-118124259D01*
X138563199Y-118139191D01*
X138602217Y-118139191D01*
X138638265Y-118124259D01*
X138665855Y-118096669D01*
X138680787Y-118060621D01*
X138682708Y-118041112D01*
X138682708Y-116755398D01*
X139196993Y-116755398D01*
X139196993Y-117541112D01*
X139198914Y-117560621D01*
X139213846Y-117596669D01*
X139241436Y-117624259D01*
X139277484Y-117639191D01*
X139316502Y-117639191D01*
X139352550Y-117624259D01*
X139380140Y-117596669D01*
X139395072Y-117560621D01*
X139396993Y-117541112D01*
X139396993Y-116779006D01*
X139442958Y-116687076D01*
X139534886Y-116641112D01*
X139701957Y-116641112D01*
X139793886Y-116687077D01*
X139839851Y-116779005D01*
X139839851Y-117541112D01*
X139841772Y-117560621D01*
X139856704Y-117596669D01*
X139884294Y-117624259D01*
X139920342Y-117639191D01*
X139959360Y-117639191D01*
X139995408Y-117624259D01*
X140022998Y-117596669D01*
X140037930Y-117560621D01*
X140039851Y-117541112D01*
X140039851Y-116779004D01*
X140085814Y-116687076D01*
X140177743Y-116641112D01*
X140344814Y-116641112D01*
X140452045Y-116694728D01*
X140482708Y-116725390D01*
X140482708Y-117541112D01*
X140484629Y-117560621D01*
X140499561Y-117596669D01*
X140527151Y-117624259D01*
X140563199Y-117639191D01*
X140602217Y-117639191D01*
X140638265Y-117624259D01*
X140665855Y-117596669D01*
X140680787Y-117560621D01*
X140682708Y-117541112D01*
X140682708Y-117528605D01*
X140983492Y-117528605D01*
X140986258Y-117567525D01*
X141003708Y-117602424D01*
X141033184Y-117627989D01*
X141070200Y-117640327D01*
X141109120Y-117637561D01*
X141144019Y-117620111D01*
X141169584Y-117590635D01*
X141177575Y-117572735D01*
X141297640Y-117212541D01*
X141867774Y-117212541D01*
X141987839Y-117572735D01*
X141995830Y-117590635D01*
X142021396Y-117620112D01*
X142056294Y-117637561D01*
X142095214Y-117640327D01*
X142132230Y-117627989D01*
X142161706Y-117602424D01*
X142179156Y-117567525D01*
X142181922Y-117528605D01*
X142177575Y-117509489D01*
X141926211Y-116755398D01*
X143196994Y-116755398D01*
X143196994Y-117541112D01*
X143198915Y-117560621D01*
X143213847Y-117596669D01*
X143241437Y-117624259D01*
X143277485Y-117639191D01*
X143316503Y-117639191D01*
X143352551Y-117624259D01*
X143362546Y-117614263D01*
X143395130Y-117630555D01*
X143413439Y-117637561D01*
X143417021Y-117637815D01*
X143420342Y-117639191D01*
X143439851Y-117641112D01*
X143796994Y-117641112D01*
X143816503Y-117639191D01*
X143819823Y-117637815D01*
X143823407Y-117637561D01*
X143841715Y-117630555D01*
X143984572Y-117559127D01*
X143987834Y-117557073D01*
X143989375Y-117556560D01*
X143991292Y-117554896D01*
X144001163Y-117548684D01*
X144009379Y-117539209D01*
X144018851Y-117530995D01*
X144025064Y-117521123D01*
X144026727Y-117519207D01*
X144027240Y-117517668D01*
X144029294Y-117514405D01*
X144100722Y-117371547D01*
X144107729Y-117353238D01*
X144107983Y-117349652D01*
X144109358Y-117346335D01*
X144111279Y-117326826D01*
X144111279Y-117183969D01*
X144109358Y-117164460D01*
X144107982Y-117161139D01*
X144107728Y-117157557D01*
X144100722Y-117139248D01*
X144029294Y-116996391D01*
X144027240Y-116993127D01*
X144026727Y-116991589D01*
X144025064Y-116989672D01*
X144018851Y-116979801D01*
X144009380Y-116971587D01*
X144001163Y-116962112D01*
X143991289Y-116955897D01*
X143989374Y-116954236D01*
X143987835Y-116953723D01*
X143984572Y-116951669D01*
X143841715Y-116880241D01*
X143823407Y-116873235D01*
X143819823Y-116872980D01*
X143816503Y-116871605D01*
X143796994Y-116869684D01*
X143463458Y-116869684D01*
X143396994Y-116836451D01*
X143396994Y-116826826D01*
X144482708Y-116826826D01*
X144482708Y-117255398D01*
X144484629Y-117274907D01*
X144486004Y-117278227D01*
X144486259Y-117281811D01*
X144493265Y-117300120D01*
X144564694Y-117442976D01*
X144569977Y-117451370D01*
X144570989Y-117453812D01*
X144573243Y-117456559D01*
X144575137Y-117459567D01*
X144577133Y-117461298D01*
X144583426Y-117468965D01*
X144654854Y-117540394D01*
X144662523Y-117546689D01*
X144664254Y-117548684D01*
X144667259Y-117550575D01*
X144670007Y-117552831D01*
X144672448Y-117553842D01*
X144680844Y-117559127D01*
X144823701Y-117630555D01*
X144842010Y-117637561D01*
X144845592Y-117637815D01*
X144848913Y-117639191D01*
X144868422Y-117641112D01*
X145154137Y-117641112D01*
X145173646Y-117639191D01*
X145176966Y-117637815D01*
X145180550Y-117637561D01*
X145198858Y-117630555D01*
X145231441Y-117614263D01*
X145241437Y-117624259D01*
X145277485Y-117639191D01*
X145316503Y-117639191D01*
X145352551Y-117624259D01*
X145380141Y-117596669D01*
X145395073Y-117560621D01*
X145396994Y-117541112D01*
X145396994Y-116521603D01*
X145698914Y-116521603D01*
X145698914Y-116560621D01*
X145713846Y-116596669D01*
X145741436Y-116624259D01*
X145777484Y-116639191D01*
X145796993Y-116641112D01*
X145916243Y-116641112D01*
X146023471Y-116694726D01*
X146071949Y-116743203D01*
X146125565Y-116850433D01*
X146125565Y-117541112D01*
X146127486Y-117560621D01*
X146142418Y-117596669D01*
X146170008Y-117624259D01*
X146206056Y-117639191D01*
X146245074Y-117639191D01*
X146281122Y-117624259D01*
X146308712Y-117596669D01*
X146323644Y-117560621D01*
X146325565Y-117541112D01*
X146325565Y-117528605D01*
X146626349Y-117528605D01*
X146629115Y-117567525D01*
X146646565Y-117602424D01*
X146676041Y-117627989D01*
X146713057Y-117640327D01*
X146751977Y-117637561D01*
X146786876Y-117620111D01*
X146812441Y-117590635D01*
X146820432Y-117572735D01*
X146940497Y-117212541D01*
X147510631Y-117212541D01*
X147630696Y-117572735D01*
X147638687Y-117590635D01*
X147664253Y-117620112D01*
X147699151Y-117637561D01*
X147738071Y-117640327D01*
X147775087Y-117627989D01*
X147804563Y-117602424D01*
X147822013Y-117567525D01*
X147824779Y-117528605D01*
X147820432Y-117509489D01*
X147320432Y-116009489D01*
X147312441Y-115991589D01*
X147307757Y-115986189D01*
X147304563Y-115979800D01*
X147295091Y-115971584D01*
X147286876Y-115962113D01*
X147280486Y-115958918D01*
X147275087Y-115954235D01*
X147263189Y-115950269D01*
X147251977Y-115944663D01*
X147244849Y-115944156D01*
X147238071Y-115941897D01*
X147225564Y-115942785D01*
X147213057Y-115941897D01*
X147206278Y-115944156D01*
X147199151Y-115944663D01*
X147187937Y-115950269D01*
X147176041Y-115954235D01*
X147170642Y-115958917D01*
X147164253Y-115962112D01*
X147156037Y-115971584D01*
X147146565Y-115979800D01*
X147143370Y-115986189D01*
X147138687Y-115991589D01*
X147130696Y-116009489D01*
X146630696Y-117509489D01*
X146626349Y-117528605D01*
X146325565Y-117528605D01*
X146325565Y-116541112D01*
X146323644Y-116521603D01*
X146308712Y-116485555D01*
X146281122Y-116457965D01*
X146245074Y-116443033D01*
X146206056Y-116443033D01*
X146170008Y-116457965D01*
X146142418Y-116485555D01*
X146127486Y-116521603D01*
X146127343Y-116523055D01*
X145984571Y-116451669D01*
X145966263Y-116444663D01*
X145962679Y-116444408D01*
X145959359Y-116443033D01*
X145939850Y-116441112D01*
X145796993Y-116441112D01*
X145777484Y-116443033D01*
X145741436Y-116457965D01*
X145713846Y-116485555D01*
X145698914Y-116521603D01*
X145396994Y-116521603D01*
X145396994Y-116041112D01*
X145395073Y-116021603D01*
X145380141Y-115985555D01*
X145352551Y-115957965D01*
X145316503Y-115943033D01*
X145277485Y-115943033D01*
X145241437Y-115957965D01*
X145213847Y-115985555D01*
X145198915Y-116021603D01*
X145196994Y-116041112D01*
X145196994Y-116450955D01*
X145180550Y-116444663D01*
X145176966Y-116444408D01*
X145173646Y-116443033D01*
X145154137Y-116441112D01*
X144868422Y-116441112D01*
X144848913Y-116443033D01*
X144845592Y-116444408D01*
X144842009Y-116444663D01*
X144823700Y-116451669D01*
X144680843Y-116523098D01*
X144672445Y-116528383D01*
X144670007Y-116529394D01*
X144667262Y-116531646D01*
X144664253Y-116533541D01*
X144662520Y-116535538D01*
X144654854Y-116541831D01*
X144583426Y-116613258D01*
X144577134Y-116620924D01*
X144575137Y-116622657D01*
X144573241Y-116625668D01*
X144570990Y-116628412D01*
X144569980Y-116630849D01*
X144564694Y-116639248D01*
X144493265Y-116782104D01*
X144486259Y-116800413D01*
X144486004Y-116803996D01*
X144484629Y-116807317D01*
X144482708Y-116826826D01*
X143396994Y-116826826D01*
X143396994Y-116779004D01*
X143442957Y-116687076D01*
X143534886Y-116641112D01*
X143773386Y-116641112D01*
X143895129Y-116701984D01*
X143913438Y-116708990D01*
X143952358Y-116711756D01*
X143989374Y-116699417D01*
X144018850Y-116673853D01*
X144036300Y-116638954D01*
X144039066Y-116600034D01*
X144026727Y-116563018D01*
X144001163Y-116533541D01*
X143984572Y-116523098D01*
X143841716Y-116451669D01*
X143823407Y-116444663D01*
X143819823Y-116444408D01*
X143816503Y-116443033D01*
X143796994Y-116441112D01*
X143511279Y-116441112D01*
X143491770Y-116443033D01*
X143488449Y-116444408D01*
X143484866Y-116444663D01*
X143466557Y-116451669D01*
X143323700Y-116523098D01*
X143320435Y-116525152D01*
X143318899Y-116525665D01*
X143316984Y-116527324D01*
X143307110Y-116533541D01*
X143298894Y-116543013D01*
X143289422Y-116551229D01*
X143283207Y-116561102D01*
X143281546Y-116563018D01*
X143281033Y-116564556D01*
X143278979Y-116567820D01*
X143207551Y-116710677D01*
X143200545Y-116728985D01*
X143200290Y-116732568D01*
X143198915Y-116735889D01*
X143196994Y-116755398D01*
X141926211Y-116755398D01*
X141683947Y-116028605D01*
X142412064Y-116028605D01*
X142414830Y-116067525D01*
X142421836Y-116085833D01*
X142564693Y-116371547D01*
X142575136Y-116388138D01*
X142604613Y-116413702D01*
X142641629Y-116426041D01*
X142680549Y-116423275D01*
X142715448Y-116405826D01*
X142741012Y-116376349D01*
X142753351Y-116339333D01*
X142750585Y-116300413D01*
X142743579Y-116282105D01*
X142600722Y-115996391D01*
X142590279Y-115979800D01*
X142560802Y-115954236D01*
X142523786Y-115941897D01*
X142484866Y-115944663D01*
X142449967Y-115962112D01*
X142424403Y-115991589D01*
X142412064Y-116028605D01*
X141683947Y-116028605D01*
X141677575Y-116009489D01*
X141669584Y-115991589D01*
X141664900Y-115986189D01*
X141661706Y-115979800D01*
X141652234Y-115971584D01*
X141644019Y-115962113D01*
X141637629Y-115958918D01*
X141632230Y-115954235D01*
X141620332Y-115950269D01*
X141609120Y-115944663D01*
X141601992Y-115944156D01*
X141595214Y-115941897D01*
X141582707Y-115942785D01*
X141570200Y-115941897D01*
X141563421Y-115944156D01*
X141556294Y-115944663D01*
X141545080Y-115950269D01*
X141533184Y-115954235D01*
X141527785Y-115958917D01*
X141521396Y-115962112D01*
X141513180Y-115971584D01*
X141503708Y-115979800D01*
X141500513Y-115986189D01*
X141495830Y-115991589D01*
X141487839Y-116009489D01*
X140987839Y-117509489D01*
X140983492Y-117528605D01*
X140682708Y-117528605D01*
X140682708Y-116541112D01*
X140680787Y-116521603D01*
X140665855Y-116485555D01*
X140638265Y-116457965D01*
X140602217Y-116443033D01*
X140563199Y-116443033D01*
X140527151Y-116457965D01*
X140499561Y-116485555D01*
X140496361Y-116493278D01*
X140413144Y-116451669D01*
X140394835Y-116444663D01*
X140391251Y-116444408D01*
X140387931Y-116443033D01*
X140368422Y-116441112D01*
X140154136Y-116441112D01*
X140134627Y-116443033D01*
X140131306Y-116444408D01*
X140127723Y-116444663D01*
X140109414Y-116451669D01*
X139966557Y-116523098D01*
X139963292Y-116525152D01*
X139961756Y-116525665D01*
X139959841Y-116527324D01*
X139949967Y-116533541D01*
X139941751Y-116543013D01*
X139939850Y-116544662D01*
X139937949Y-116543013D01*
X139929734Y-116533541D01*
X139919860Y-116527326D01*
X139917945Y-116525665D01*
X139916406Y-116525152D01*
X139913143Y-116523098D01*
X139770287Y-116451669D01*
X139751978Y-116444663D01*
X139748394Y-116444408D01*
X139745074Y-116443033D01*
X139725565Y-116441112D01*
X139511279Y-116441112D01*
X139491770Y-116443033D01*
X139488449Y-116444408D01*
X139484866Y-116444663D01*
X139466557Y-116451669D01*
X139323700Y-116523098D01*
X139320435Y-116525152D01*
X139318899Y-116525665D01*
X139316984Y-116527324D01*
X139307110Y-116533541D01*
X139298894Y-116543013D01*
X139289422Y-116551229D01*
X139283207Y-116561102D01*
X139281546Y-116563018D01*
X139281033Y-116564556D01*
X139278979Y-116567820D01*
X139207550Y-116710676D01*
X139200544Y-116728985D01*
X139200289Y-116732568D01*
X139198914Y-116735889D01*
X139196993Y-116755398D01*
X138682708Y-116755398D01*
X138682708Y-116541112D01*
X138680787Y-116521603D01*
X138665855Y-116485555D01*
X138638265Y-116457965D01*
X138602217Y-116443033D01*
X138563199Y-116443033D01*
X138527151Y-116457965D01*
X138517155Y-116467960D01*
X138484573Y-116451669D01*
X138466264Y-116444663D01*
X138462680Y-116444408D01*
X138459360Y-116443033D01*
X138439851Y-116441112D01*
X138154136Y-116441112D01*
X138134627Y-116443033D01*
X138131306Y-116444408D01*
X138127723Y-116444663D01*
X138109414Y-116451669D01*
X137966557Y-116523098D01*
X137958159Y-116528383D01*
X137955721Y-116529394D01*
X137952976Y-116531646D01*
X137949967Y-116533541D01*
X137948234Y-116535538D01*
X137940568Y-116541831D01*
X137869140Y-116613258D01*
X137862848Y-116620924D01*
X137860851Y-116622657D01*
X137858955Y-116625668D01*
X137856704Y-116628412D01*
X137855694Y-116630849D01*
X137850408Y-116639248D01*
X137778979Y-116782104D01*
X137771973Y-116800413D01*
X137771718Y-116803996D01*
X137770343Y-116807317D01*
X137768422Y-116826826D01*
X136164307Y-116826826D01*
X135891861Y-116009489D01*
X135883870Y-115991589D01*
X135879186Y-115986189D01*
X135875992Y-115979800D01*
X135866520Y-115971584D01*
X135858305Y-115962113D01*
X135851915Y-115958918D01*
X135846516Y-115954235D01*
X135834618Y-115950269D01*
X135823406Y-115944663D01*
X135816278Y-115944156D01*
X135809500Y-115941897D01*
X135796993Y-115942785D01*
X135784486Y-115941897D01*
X135777707Y-115944156D01*
X135770580Y-115944663D01*
X135759366Y-115950269D01*
X135747470Y-115954235D01*
X135742071Y-115958917D01*
X135735682Y-115962112D01*
X135727466Y-115971584D01*
X135717994Y-115979800D01*
X135714799Y-115986189D01*
X135710116Y-115991589D01*
X135702125Y-116009489D01*
X135202125Y-117509489D01*
X135197778Y-117528605D01*
X134806070Y-117528605D01*
X134810779Y-117521122D01*
X134812441Y-117519207D01*
X134812953Y-117517668D01*
X134815008Y-117514405D01*
X134886437Y-117371547D01*
X134893443Y-117353239D01*
X134893697Y-117349655D01*
X134895073Y-117346335D01*
X134896994Y-117326826D01*
X134896994Y-116541112D01*
X134895073Y-116521603D01*
X134880141Y-116485555D01*
X134852551Y-116457965D01*
X134816503Y-116443033D01*
X134777485Y-116443033D01*
X134741437Y-116457965D01*
X134713847Y-116485555D01*
X134698915Y-116521603D01*
X134696994Y-116541112D01*
X134696994Y-117303219D01*
X134651029Y-117395148D01*
X134559101Y-117441112D01*
X134392029Y-117441112D01*
X134284800Y-117387498D01*
X134254137Y-117356834D01*
X134254137Y-116541112D01*
X134252216Y-116521603D01*
X134237284Y-116485555D01*
X134209694Y-116457965D01*
X134173646Y-116443033D01*
X134134628Y-116443033D01*
X134098580Y-116457965D01*
X134070990Y-116485555D01*
X134056058Y-116521603D01*
X134054137Y-116541112D01*
X133752215Y-116541112D01*
X133752215Y-116521603D01*
X133737283Y-116485555D01*
X133709693Y-116457965D01*
X133673645Y-116443033D01*
X133654136Y-116441112D01*
X133539851Y-116441112D01*
X133539851Y-116041112D01*
X133537930Y-116021603D01*
X133522998Y-115985555D01*
X133495408Y-115957965D01*
X133459360Y-115943033D01*
X133420342Y-115943033D01*
X133384294Y-115957965D01*
X133356704Y-115985555D01*
X133341772Y-116021603D01*
X133339851Y-116041112D01*
X133339851Y-116441112D01*
X133082708Y-116441112D01*
X133063199Y-116443033D01*
X133027151Y-116457965D01*
X132999561Y-116485555D01*
X132984629Y-116521603D01*
X132553010Y-116521603D01*
X132413144Y-116451669D01*
X132394835Y-116444663D01*
X132391251Y-116444408D01*
X132387931Y-116443033D01*
X132368422Y-116441112D01*
X132154136Y-116441112D01*
X132134627Y-116443033D01*
X132131306Y-116444408D01*
X132127723Y-116444663D01*
X132109414Y-116451669D01*
X131966557Y-116523098D01*
X131958159Y-116528383D01*
X131955721Y-116529394D01*
X131952976Y-116531646D01*
X131949967Y-116533541D01*
X131948234Y-116535538D01*
X131940568Y-116541831D01*
X131869140Y-116613258D01*
X131862848Y-116620924D01*
X131860851Y-116622657D01*
X131858955Y-116625668D01*
X131856704Y-116628412D01*
X131855694Y-116630849D01*
X131850408Y-116639248D01*
X131778979Y-116782104D01*
X131771973Y-116800413D01*
X131771718Y-116803996D01*
X131770343Y-116807317D01*
X131768422Y-116826826D01*
X131325565Y-116826826D01*
X131325565Y-116541112D01*
X131323644Y-116521603D01*
X131308712Y-116485555D01*
X131281122Y-116457965D01*
X131245074Y-116443033D01*
X131206056Y-116443033D01*
X131170008Y-116457965D01*
X131142418Y-116485555D01*
X131139218Y-116493278D01*
X131056001Y-116451669D01*
X131037692Y-116444663D01*
X131034108Y-116444408D01*
X131030788Y-116443033D01*
X131011279Y-116441112D01*
X130796993Y-116441112D01*
X130777484Y-116443033D01*
X130774163Y-116444408D01*
X130770580Y-116444663D01*
X130752271Y-116451669D01*
X130609414Y-116523098D01*
X130606149Y-116525152D01*
X130604613Y-116525665D01*
X130602698Y-116527324D01*
X130592824Y-116533541D01*
X130584608Y-116543013D01*
X130582707Y-116544662D01*
X130580806Y-116543013D01*
X130572591Y-116533541D01*
X130562717Y-116527326D01*
X130560802Y-116525665D01*
X130559263Y-116525152D01*
X130556000Y-116523098D01*
X130413144Y-116451669D01*
X130394835Y-116444663D01*
X130391251Y-116444408D01*
X130387931Y-116443033D01*
X130368422Y-116441112D01*
X130154136Y-116441112D01*
X130134627Y-116443033D01*
X130131306Y-116444408D01*
X130127723Y-116444663D01*
X130109414Y-116451669D01*
X129966557Y-116523098D01*
X129963292Y-116525152D01*
X129961756Y-116525665D01*
X129959841Y-116527324D01*
X129949967Y-116533541D01*
X129941751Y-116543013D01*
X129932279Y-116551229D01*
X129926064Y-116561102D01*
X129924403Y-116563018D01*
X129923890Y-116564556D01*
X129921836Y-116567820D01*
X129850407Y-116710676D01*
X129843401Y-116728985D01*
X129843146Y-116732568D01*
X129841771Y-116735889D01*
X129839850Y-116755398D01*
X128694511Y-116755398D01*
X128728671Y-116687076D01*
X128820600Y-116641112D01*
X129059100Y-116641112D01*
X129180843Y-116701984D01*
X129199152Y-116708990D01*
X129238072Y-116711756D01*
X129275088Y-116699417D01*
X129304564Y-116673853D01*
X129322014Y-116638954D01*
X129324780Y-116600034D01*
X129312441Y-116563018D01*
X129286877Y-116533541D01*
X129270286Y-116523098D01*
X129127430Y-116451669D01*
X129109121Y-116444663D01*
X129105537Y-116444408D01*
X129102217Y-116443033D01*
X129082708Y-116441112D01*
X128796993Y-116441112D01*
X128777484Y-116443033D01*
X128774163Y-116444408D01*
X128770580Y-116444663D01*
X128752271Y-116451669D01*
X128609414Y-116523098D01*
X128606149Y-116525152D01*
X128604613Y-116525665D01*
X128602698Y-116527324D01*
X128592824Y-116533541D01*
X128584608Y-116543013D01*
X128575136Y-116551229D01*
X128568921Y-116561102D01*
X128567260Y-116563018D01*
X128566747Y-116564556D01*
X128564693Y-116567820D01*
X128493265Y-116710677D01*
X128486259Y-116728985D01*
X128486004Y-116732568D01*
X128484629Y-116735889D01*
X128482708Y-116755398D01*
X127968422Y-116755398D01*
X127968422Y-116641112D01*
X128082707Y-116641112D01*
X128102216Y-116639191D01*
X128138264Y-116624259D01*
X128165854Y-116596669D01*
X128180786Y-116560621D01*
X128180786Y-116521603D01*
X128165854Y-116485555D01*
X128138264Y-116457965D01*
X128102216Y-116443033D01*
X128082707Y-116441112D01*
X127968422Y-116441112D01*
X127968422Y-116041112D01*
X127966501Y-116021603D01*
X127951569Y-115985555D01*
X127923979Y-115957965D01*
X127887931Y-115943033D01*
X127848913Y-115943033D01*
X127812865Y-115957965D01*
X127785275Y-115985555D01*
X127770343Y-116021603D01*
X127768422Y-116041112D01*
X127768422Y-116441112D01*
X127511279Y-116441112D01*
X127491770Y-116443033D01*
X127455722Y-116457965D01*
X127428132Y-116485555D01*
X127413200Y-116521603D01*
X127109358Y-116521603D01*
X127094426Y-116485555D01*
X127066836Y-116457965D01*
X127030788Y-116443033D01*
X126991770Y-116443033D01*
X126955722Y-116457965D01*
X126928132Y-116485555D01*
X126913200Y-116521603D01*
X126911279Y-116541112D01*
X126295399Y-116541112D01*
X126288607Y-116535537D01*
X126286876Y-116533541D01*
X126283868Y-116531647D01*
X126281121Y-116529393D01*
X126278679Y-116528381D01*
X126270285Y-116523098D01*
X126127429Y-116451669D01*
X126109120Y-116444663D01*
X126105536Y-116444408D01*
X126102216Y-116443033D01*
X126082707Y-116441112D01*
X125868421Y-116441112D01*
X125848912Y-116443033D01*
X125845591Y-116444408D01*
X125842008Y-116444663D01*
X125823699Y-116451669D01*
X125680842Y-116523098D01*
X125672444Y-116528383D01*
X125670006Y-116529394D01*
X125667261Y-116531646D01*
X125664252Y-116533541D01*
X125662519Y-116535538D01*
X125654853Y-116541831D01*
X125583425Y-116613258D01*
X125577133Y-116620924D01*
X125575136Y-116622657D01*
X125573240Y-116625668D01*
X125570989Y-116628412D01*
X125569979Y-116630849D01*
X125564693Y-116639248D01*
X125493264Y-116782104D01*
X125486258Y-116800413D01*
X125486003Y-116803996D01*
X125484628Y-116807317D01*
X125482707Y-116826826D01*
X125039850Y-116826826D01*
X125039850Y-116541112D01*
X125037929Y-116521603D01*
X125022997Y-116485555D01*
X124995407Y-116457965D01*
X124959359Y-116443033D01*
X124920341Y-116443033D01*
X124884293Y-116457965D01*
X124856703Y-116485555D01*
X124853503Y-116493278D01*
X124770286Y-116451669D01*
X124751977Y-116444663D01*
X124748393Y-116444408D01*
X124745073Y-116443033D01*
X124725564Y-116441112D01*
X124511278Y-116441112D01*
X124491769Y-116443033D01*
X124488448Y-116444408D01*
X124484865Y-116444663D01*
X124466556Y-116451669D01*
X124323699Y-116523098D01*
X124320434Y-116525152D01*
X124318898Y-116525665D01*
X124316983Y-116527324D01*
X124307109Y-116533541D01*
X124298893Y-116543013D01*
X124289421Y-116551229D01*
X124283206Y-116561102D01*
X124281545Y-116563018D01*
X124281032Y-116564556D01*
X124278978Y-116567820D01*
X124207550Y-116710677D01*
X124200544Y-116728985D01*
X124200289Y-116732568D01*
X124198914Y-116735889D01*
X124196993Y-116755398D01*
X122816042Y-116755398D01*
X122816042Y-116093032D01*
X126841771Y-116093032D01*
X126841771Y-116132050D01*
X126850518Y-116153167D01*
X126856703Y-116168099D01*
X126869140Y-116183252D01*
X126940569Y-116254680D01*
X126955722Y-116267117D01*
X126981212Y-116277674D01*
X126991770Y-116282048D01*
X126991771Y-116282048D01*
X127030788Y-116282048D01*
X127051905Y-116273300D01*
X127066837Y-116267116D01*
X127066841Y-116267111D01*
X127081990Y-116254680D01*
X127153417Y-116183252D01*
X127165854Y-116168099D01*
X127180785Y-116132050D01*
X127180785Y-116113258D01*
X127180786Y-116093033D01*
X127165855Y-116056984D01*
X127153418Y-116041831D01*
X127081990Y-115970402D01*
X127066837Y-115957965D01*
X127051905Y-115951780D01*
X127030788Y-115943033D01*
X126991770Y-115943033D01*
X126981212Y-115947406D01*
X126955722Y-115957964D01*
X126955716Y-115957969D01*
X126940568Y-115970401D01*
X126869139Y-116041830D01*
X126856707Y-116056978D01*
X126856702Y-116056984D01*
X126846144Y-116082474D01*
X126841771Y-116093032D01*
X122816042Y-116093032D01*
X122816042Y-115775230D01*
X147991446Y-115775230D01*
X147991446Y-120792203D01*
G37*
D11*
%TO.C,REF\u002A\u002A*%
X178356184Y-134010526D02*
X173677237Y-134010526D01*
X173677237Y-132857500D01*
X178356184Y-132857500D01*
X178356184Y-134010526D01*
G36*
X178356184Y-134010526D02*
G01*
X173677237Y-134010526D01*
X173677237Y-132857500D01*
X178356184Y-132857500D01*
X178356184Y-134010526D01*
G37*
X176985938Y-126645362D02*
X176986595Y-126662572D01*
X176995141Y-126691467D01*
X177019466Y-126715972D01*
X177066918Y-126745143D01*
X177108573Y-126771793D01*
X177171989Y-126822960D01*
X177229460Y-126880400D01*
X177273422Y-126936279D01*
X177296311Y-126982762D01*
X177301919Y-127000674D01*
X177312309Y-127012970D01*
X177315812Y-127017116D01*
X177344445Y-127024083D01*
X177397141Y-127025526D01*
X177487237Y-127025526D01*
X177487237Y-127175921D01*
X177275228Y-127175921D01*
X177255433Y-127412183D01*
X177252775Y-127444483D01*
X177246583Y-127525340D01*
X177242208Y-127591135D01*
X177240030Y-127635791D01*
X177240426Y-127653233D01*
X177246185Y-127648219D01*
X177272462Y-127622083D01*
X177317888Y-127575758D01*
X177380166Y-127511647D01*
X177456997Y-127432150D01*
X177546080Y-127339669D01*
X177645119Y-127236606D01*
X177751814Y-127125362D01*
X177863865Y-127008338D01*
X177978975Y-126887936D01*
X178094844Y-126766558D01*
X178209174Y-126646604D01*
X178319666Y-126530476D01*
X178424021Y-126420575D01*
X178519940Y-126319304D01*
X178605124Y-126229063D01*
X178677275Y-126152253D01*
X178806194Y-126014539D01*
X178806781Y-126131852D01*
X178807368Y-126249164D01*
X178009286Y-127088485D01*
X177211204Y-127927807D01*
X177195250Y-128119106D01*
X177131419Y-128884528D01*
X177120138Y-129020287D01*
X177106140Y-129190154D01*
X177093220Y-129348505D01*
X177081627Y-129492228D01*
X177071607Y-129618210D01*
X177063407Y-129723338D01*
X177057274Y-129804501D01*
X177053456Y-129858586D01*
X177052199Y-129882480D01*
X177055517Y-129893429D01*
X177070429Y-129917071D01*
X177098709Y-129952703D01*
X177112358Y-129968277D01*
X177141864Y-130001948D01*
X177201399Y-130066428D01*
X177278820Y-130147768D01*
X177375632Y-130247591D01*
X177493342Y-130367520D01*
X177633454Y-130509179D01*
X177725628Y-130602136D01*
X177854119Y-130731795D01*
X177982159Y-130861079D01*
X178105900Y-130986097D01*
X178221492Y-131102959D01*
X178325085Y-131207774D01*
X178412831Y-131296652D01*
X178480881Y-131365702D01*
X178747617Y-131636757D01*
X178699169Y-131687326D01*
X178687743Y-131698719D01*
X178654035Y-131726697D01*
X178630910Y-131737895D01*
X178612805Y-131728335D01*
X178579145Y-131699649D01*
X178538792Y-131658520D01*
X178514230Y-131632542D01*
X178468423Y-131585104D01*
X178403683Y-131518566D01*
X178322295Y-131435263D01*
X178226545Y-131337528D01*
X178118721Y-131227695D01*
X178001108Y-131108096D01*
X177875992Y-130981066D01*
X177745659Y-130848938D01*
X177024831Y-130118732D01*
X176995469Y-130498017D01*
X176989068Y-130578972D01*
X176979721Y-130687793D01*
X176971290Y-130770217D01*
X176963151Y-130830575D01*
X176954679Y-130873200D01*
X176945250Y-130902424D01*
X176934237Y-130922580D01*
X176918825Y-130950750D01*
X176906143Y-131002539D01*
X176902368Y-131077152D01*
X176902368Y-131186447D01*
X176601579Y-131186447D01*
X176601579Y-130952500D01*
X175477832Y-130952500D01*
X175412875Y-131026295D01*
X175395110Y-131045511D01*
X175298831Y-131122712D01*
X175190049Y-131170239D01*
X175072262Y-131186447D01*
X174968327Y-131177854D01*
X174850770Y-131141628D01*
X174750134Y-131076882D01*
X174730520Y-131058378D01*
X174681503Y-130998475D01*
X174638497Y-130928693D01*
X174607658Y-130859909D01*
X174595141Y-130803002D01*
X174594899Y-130794741D01*
X174593099Y-130764471D01*
X174588392Y-130743563D01*
X174578544Y-130733669D01*
X174561323Y-130736444D01*
X174534494Y-130753540D01*
X174495824Y-130786610D01*
X174443080Y-130837307D01*
X174374028Y-130907285D01*
X174286434Y-130998197D01*
X174178065Y-131111695D01*
X174120342Y-131172280D01*
X174023855Y-131273718D01*
X173932568Y-131369889D01*
X173850059Y-131457013D01*
X173779906Y-131531311D01*
X173725685Y-131589003D01*
X173690974Y-131626310D01*
X173596092Y-131729539D01*
X173537449Y-131671052D01*
X173478805Y-131612566D01*
X174204179Y-130852237D01*
X174249916Y-130804263D01*
X174412633Y-130632940D01*
X174552313Y-130484738D01*
X174669373Y-130359198D01*
X174764233Y-130255861D01*
X174831309Y-130180967D01*
X175105947Y-130180967D01*
X175108106Y-130198589D01*
X175108483Y-130200430D01*
X175126480Y-130242171D01*
X175162428Y-130261620D01*
X175273237Y-130303083D01*
X175371963Y-130372156D01*
X175449611Y-130463524D01*
X175502828Y-130573195D01*
X175528258Y-130697173D01*
X175536681Y-130802105D01*
X176798482Y-130802105D01*
X176807280Y-130764506D01*
X176808836Y-130755279D01*
X176813672Y-130714018D01*
X176820271Y-130647304D01*
X176828142Y-130560453D01*
X176836797Y-130458777D01*
X176845743Y-130347592D01*
X176875409Y-129968277D01*
X176475532Y-129562198D01*
X176402187Y-129487961D01*
X176312447Y-129397837D01*
X176231940Y-129317775D01*
X176163488Y-129250542D01*
X176109917Y-129198910D01*
X176074052Y-129165646D01*
X176058715Y-129153521D01*
X176048431Y-129159314D01*
X176017801Y-129185675D01*
X175971705Y-129229709D01*
X175914265Y-129287444D01*
X175849605Y-129354911D01*
X175832738Y-129372804D01*
X175757107Y-129452839D01*
X175666984Y-129547977D01*
X175569155Y-129651067D01*
X175470405Y-129754956D01*
X175377520Y-129852493D01*
X175371940Y-129858346D01*
X175285584Y-129949214D01*
X175219690Y-130019577D01*
X175171651Y-130072783D01*
X175138863Y-130112177D01*
X175118720Y-130141108D01*
X175108616Y-130162922D01*
X175105947Y-130180967D01*
X174831309Y-130180967D01*
X174837311Y-130174266D01*
X174889026Y-130113955D01*
X174919796Y-130074466D01*
X174930040Y-130055342D01*
X174930041Y-130055229D01*
X174928636Y-130031394D01*
X174924531Y-129977967D01*
X174918048Y-129898584D01*
X174909508Y-129796880D01*
X174899233Y-129676493D01*
X174887544Y-129541057D01*
X174874763Y-129394211D01*
X174861212Y-129239590D01*
X174847212Y-129080830D01*
X174833085Y-128921568D01*
X174819153Y-128765441D01*
X174805736Y-128616083D01*
X174793157Y-128477133D01*
X174781738Y-128352226D01*
X174771799Y-128244998D01*
X174763662Y-128159087D01*
X174757650Y-128098127D01*
X174754083Y-128065756D01*
X174746891Y-128011538D01*
X174918573Y-128011538D01*
X174920772Y-128052630D01*
X174925611Y-128121735D01*
X174932848Y-128215870D01*
X174942241Y-128332053D01*
X174953547Y-128467299D01*
X174966523Y-128618627D01*
X174980929Y-128783054D01*
X174996521Y-128957597D01*
X175008710Y-129092206D01*
X175023976Y-129259145D01*
X175038269Y-129413618D01*
X175051305Y-129552649D01*
X175062800Y-129673264D01*
X175072470Y-129772489D01*
X175080030Y-129847348D01*
X175085197Y-129894867D01*
X175087686Y-129912072D01*
X175095236Y-129906742D01*
X175122922Y-129880578D01*
X175167909Y-129835637D01*
X175227100Y-129775191D01*
X175297399Y-129702509D01*
X175375708Y-129620864D01*
X175458930Y-129533526D01*
X175543969Y-129443767D01*
X175627727Y-129354858D01*
X175707107Y-129270070D01*
X175779013Y-129192673D01*
X175840347Y-129125941D01*
X175888013Y-129073142D01*
X175918913Y-129037550D01*
X175927941Y-129025186D01*
X176169574Y-129025186D01*
X176535971Y-129391299D01*
X176625569Y-129480679D01*
X176710013Y-129564320D01*
X176775427Y-129628027D01*
X176824208Y-129673868D01*
X176858753Y-129703909D01*
X176881459Y-129720218D01*
X176894722Y-129724862D01*
X176900940Y-129719908D01*
X176902509Y-129707423D01*
X176903515Y-129687363D01*
X176907140Y-129635712D01*
X176913130Y-129557320D01*
X176921198Y-129455759D01*
X176931055Y-129334602D01*
X176942413Y-129197421D01*
X176954984Y-129047787D01*
X176968480Y-128889271D01*
X176980395Y-128749563D01*
X176992811Y-128602414D01*
X177003943Y-128468805D01*
X177013526Y-128352028D01*
X177021290Y-128255378D01*
X177026969Y-128182145D01*
X177030297Y-128135624D01*
X177031004Y-128119106D01*
X177030444Y-128119416D01*
X177014663Y-128134623D01*
X176979606Y-128170303D01*
X176928363Y-128223220D01*
X176864019Y-128290139D01*
X176789664Y-128367823D01*
X176708385Y-128453036D01*
X176623270Y-128542541D01*
X176537406Y-128633102D01*
X176453881Y-128721483D01*
X176375784Y-128804448D01*
X176306202Y-128878760D01*
X176172141Y-129022434D01*
X176169574Y-129025186D01*
X175927941Y-129025186D01*
X175929951Y-129022434D01*
X175919131Y-129007785D01*
X175887674Y-128972722D01*
X175838503Y-128920265D01*
X175774544Y-128853372D01*
X175698723Y-128774999D01*
X175613967Y-128688103D01*
X175523202Y-128595641D01*
X175429356Y-128500569D01*
X175335354Y-128405845D01*
X175244124Y-128314424D01*
X175158591Y-128229265D01*
X175081683Y-128153323D01*
X175016326Y-128089556D01*
X174965446Y-128040920D01*
X174931970Y-128010372D01*
X174918824Y-128000868D01*
X174918573Y-128011538D01*
X174746891Y-128011538D01*
X174744663Y-127994737D01*
X174379079Y-127994737D01*
X174378641Y-127714835D01*
X174378414Y-127569584D01*
X174512763Y-127569584D01*
X174512763Y-127861052D01*
X174621382Y-127861052D01*
X174631045Y-127861044D01*
X174685604Y-127859880D01*
X174715276Y-127854902D01*
X174727571Y-127843477D01*
X174730000Y-127822971D01*
X174719301Y-127792829D01*
X174682654Y-127742687D01*
X174621382Y-127677237D01*
X174512763Y-127569584D01*
X174378414Y-127569584D01*
X174378204Y-127434934D01*
X173777885Y-126825000D01*
X173177567Y-126215066D01*
X173176744Y-126099337D01*
X173175921Y-125983610D01*
X173895969Y-126713449D01*
X173965564Y-126783944D01*
X174109975Y-126929828D01*
X174233442Y-127053875D01*
X174337560Y-127157611D01*
X174423925Y-127242562D01*
X174494132Y-127310256D01*
X174549776Y-127362219D01*
X174592452Y-127399977D01*
X174623756Y-127425057D01*
X174645282Y-127438986D01*
X174658625Y-127443289D01*
X174681125Y-127441986D01*
X174693756Y-127432468D01*
X174695934Y-127406427D01*
X174690697Y-127355559D01*
X174687086Y-127323533D01*
X174682061Y-127270002D01*
X174680037Y-127234408D01*
X174679045Y-127222138D01*
X174669386Y-127208996D01*
X174642703Y-127204641D01*
X174590902Y-127206542D01*
X174577676Y-127207287D01*
X174524733Y-127206447D01*
X174487073Y-127194813D01*
X174460529Y-127175921D01*
X174836974Y-127175921D01*
X174842504Y-127238585D01*
X174845058Y-127267017D01*
X174853018Y-127344642D01*
X174860861Y-127395769D01*
X174870031Y-127425711D01*
X174881973Y-127439780D01*
X174898129Y-127443289D01*
X174912656Y-127445679D01*
X174922289Y-127457098D01*
X174927672Y-127483645D01*
X174930015Y-127531414D01*
X174930526Y-127606502D01*
X174930526Y-127769715D01*
X174983948Y-127822971D01*
X175114342Y-127952960D01*
X175298158Y-128136206D01*
X175298158Y-127994737D01*
X176300790Y-127994737D01*
X176300790Y-128312237D01*
X175478827Y-128312237D01*
X175757589Y-128600493D01*
X175810984Y-128655548D01*
X175884817Y-128731120D01*
X175948929Y-128796082D01*
X175999961Y-128847060D01*
X176034557Y-128880681D01*
X176049357Y-128893574D01*
X176054983Y-128890018D01*
X176081363Y-128866118D01*
X176126849Y-128821862D01*
X176189012Y-128759708D01*
X176265422Y-128682115D01*
X176353649Y-128591540D01*
X176451262Y-128490441D01*
X176555833Y-128381275D01*
X176660940Y-128270964D01*
X176763974Y-128162246D01*
X176847530Y-128073136D01*
X176913654Y-128001271D01*
X176964387Y-127944289D01*
X177001775Y-127899828D01*
X177027860Y-127865525D01*
X177044687Y-127839017D01*
X177054298Y-127817942D01*
X177058739Y-127799939D01*
X177059916Y-127791169D01*
X177065136Y-127742847D01*
X177071742Y-127671707D01*
X177079008Y-127585861D01*
X177086207Y-127493421D01*
X177088648Y-127461225D01*
X177095701Y-127374236D01*
X177102425Y-127299203D01*
X177108160Y-127243255D01*
X177112240Y-127213520D01*
X177120242Y-127175921D01*
X174836974Y-127175921D01*
X174460529Y-127175921D01*
X174449956Y-127168396D01*
X174443563Y-127162835D01*
X174391285Y-127095487D01*
X174370581Y-127025526D01*
X174823481Y-127025526D01*
X176703306Y-127025526D01*
X176700583Y-126958684D01*
X176985921Y-126958684D01*
X176985921Y-127025526D01*
X177061706Y-127025526D01*
X177084412Y-127025366D01*
X177118054Y-127022442D01*
X177127766Y-127012970D01*
X177120227Y-126993267D01*
X177117999Y-126989511D01*
X177092990Y-126960623D01*
X177056757Y-126928563D01*
X177020613Y-126902560D01*
X176995874Y-126891842D01*
X176993650Y-126893536D01*
X176988131Y-126916810D01*
X176985921Y-126958684D01*
X176700583Y-126958684D01*
X176698397Y-126905007D01*
X176693487Y-126784488D01*
X176593224Y-126764348D01*
X176542943Y-126755214D01*
X176458975Y-126742425D01*
X176380165Y-126732776D01*
X176267368Y-126721345D01*
X176267368Y-126858421D01*
X175498684Y-126858421D01*
X175498684Y-126737596D01*
X175402599Y-126749065D01*
X175255787Y-126773646D01*
X175108032Y-126818089D01*
X174985814Y-126880062D01*
X174887062Y-126960413D01*
X174823481Y-127025526D01*
X174370581Y-127025526D01*
X174368281Y-127017754D01*
X174375328Y-126936211D01*
X174413203Y-126857434D01*
X174416868Y-126852529D01*
X174467486Y-126810327D01*
X174533474Y-126785365D01*
X174604607Y-126778725D01*
X174670664Y-126791492D01*
X174721419Y-126824750D01*
X174738604Y-126841729D01*
X174755345Y-126845844D01*
X174779318Y-126833115D01*
X174819799Y-126801332D01*
X174832219Y-126791564D01*
X174928111Y-126729911D01*
X175041715Y-126675084D01*
X175134630Y-126641184D01*
X175632368Y-126641184D01*
X175632368Y-126724737D01*
X176133684Y-126724737D01*
X176133684Y-126641184D01*
X175632368Y-126641184D01*
X175134630Y-126641184D01*
X175162453Y-126631033D01*
X175279746Y-126601706D01*
X175383017Y-126591052D01*
X175393988Y-126590968D01*
X175454970Y-126585031D01*
X175488460Y-126568385D01*
X175498684Y-126539133D01*
X175499885Y-126529917D01*
X175506449Y-126521991D01*
X175522391Y-126516189D01*
X175551719Y-126512181D01*
X175598440Y-126509639D01*
X175666559Y-126508230D01*
X175760086Y-126507628D01*
X175883026Y-126507500D01*
X175998219Y-126507725D01*
X176096126Y-126508635D01*
X176167800Y-126510469D01*
X176217001Y-126513466D01*
X176247490Y-126517863D01*
X176263025Y-126523898D01*
X176267368Y-126531808D01*
X176281653Y-126551232D01*
X176321678Y-126563627D01*
X176336997Y-126565796D01*
X176389230Y-126573430D01*
X176458737Y-126583778D01*
X176534737Y-126595240D01*
X176576651Y-126601075D01*
X176637992Y-126607394D01*
X176681273Y-126608918D01*
X176699057Y-126605197D01*
X176702094Y-126602773D01*
X176730130Y-126596785D01*
X176780564Y-126592617D01*
X176845274Y-126591052D01*
X176985921Y-126591052D01*
X176985937Y-126641184D01*
X176985938Y-126645362D01*
G36*
X176985938Y-126645362D02*
G01*
X176986595Y-126662572D01*
X176995141Y-126691467D01*
X177019466Y-126715972D01*
X177066918Y-126745143D01*
X177108573Y-126771793D01*
X177171989Y-126822960D01*
X177229460Y-126880400D01*
X177273422Y-126936279D01*
X177296311Y-126982762D01*
X177301919Y-127000674D01*
X177312309Y-127012970D01*
X177315812Y-127017116D01*
X177344445Y-127024083D01*
X177397141Y-127025526D01*
X177487237Y-127025526D01*
X177487237Y-127175921D01*
X177275228Y-127175921D01*
X177255433Y-127412183D01*
X177252775Y-127444483D01*
X177246583Y-127525340D01*
X177242208Y-127591135D01*
X177240030Y-127635791D01*
X177240426Y-127653233D01*
X177246185Y-127648219D01*
X177272462Y-127622083D01*
X177317888Y-127575758D01*
X177380166Y-127511647D01*
X177456997Y-127432150D01*
X177546080Y-127339669D01*
X177645119Y-127236606D01*
X177751814Y-127125362D01*
X177863865Y-127008338D01*
X177978975Y-126887936D01*
X178094844Y-126766558D01*
X178209174Y-126646604D01*
X178319666Y-126530476D01*
X178424021Y-126420575D01*
X178519940Y-126319304D01*
X178605124Y-126229063D01*
X178677275Y-126152253D01*
X178806194Y-126014539D01*
X178806781Y-126131852D01*
X178807368Y-126249164D01*
X178009286Y-127088485D01*
X177211204Y-127927807D01*
X177195250Y-128119106D01*
X177131419Y-128884528D01*
X177120138Y-129020287D01*
X177106140Y-129190154D01*
X177093220Y-129348505D01*
X177081627Y-129492228D01*
X177071607Y-129618210D01*
X177063407Y-129723338D01*
X177057274Y-129804501D01*
X177053456Y-129858586D01*
X177052199Y-129882480D01*
X177055517Y-129893429D01*
X177070429Y-129917071D01*
X177098709Y-129952703D01*
X177112358Y-129968277D01*
X177141864Y-130001948D01*
X177201399Y-130066428D01*
X177278820Y-130147768D01*
X177375632Y-130247591D01*
X177493342Y-130367520D01*
X177633454Y-130509179D01*
X177725628Y-130602136D01*
X177854119Y-130731795D01*
X177982159Y-130861079D01*
X178105900Y-130986097D01*
X178221492Y-131102959D01*
X178325085Y-131207774D01*
X178412831Y-131296652D01*
X178480881Y-131365702D01*
X178747617Y-131636757D01*
X178699169Y-131687326D01*
X178687743Y-131698719D01*
X178654035Y-131726697D01*
X178630910Y-131737895D01*
X178612805Y-131728335D01*
X178579145Y-131699649D01*
X178538792Y-131658520D01*
X178514230Y-131632542D01*
X178468423Y-131585104D01*
X178403683Y-131518566D01*
X178322295Y-131435263D01*
X178226545Y-131337528D01*
X178118721Y-131227695D01*
X178001108Y-131108096D01*
X177875992Y-130981066D01*
X177745659Y-130848938D01*
X177024831Y-130118732D01*
X176995469Y-130498017D01*
X176989068Y-130578972D01*
X176979721Y-130687793D01*
X176971290Y-130770217D01*
X176963151Y-130830575D01*
X176954679Y-130873200D01*
X176945250Y-130902424D01*
X176934237Y-130922580D01*
X176918825Y-130950750D01*
X176906143Y-131002539D01*
X176902368Y-131077152D01*
X176902368Y-131186447D01*
X176601579Y-131186447D01*
X176601579Y-130952500D01*
X175477832Y-130952500D01*
X175412875Y-131026295D01*
X175395110Y-131045511D01*
X175298831Y-131122712D01*
X175190049Y-131170239D01*
X175072262Y-131186447D01*
X174968327Y-131177854D01*
X174850770Y-131141628D01*
X174750134Y-131076882D01*
X174730520Y-131058378D01*
X174681503Y-130998475D01*
X174638497Y-130928693D01*
X174607658Y-130859909D01*
X174595141Y-130803002D01*
X174594899Y-130794741D01*
X174593099Y-130764471D01*
X174588392Y-130743563D01*
X174578544Y-130733669D01*
X174561323Y-130736444D01*
X174534494Y-130753540D01*
X174495824Y-130786610D01*
X174443080Y-130837307D01*
X174374028Y-130907285D01*
X174286434Y-130998197D01*
X174178065Y-131111695D01*
X174120342Y-131172280D01*
X174023855Y-131273718D01*
X173932568Y-131369889D01*
X173850059Y-131457013D01*
X173779906Y-131531311D01*
X173725685Y-131589003D01*
X173690974Y-131626310D01*
X173596092Y-131729539D01*
X173537449Y-131671052D01*
X173478805Y-131612566D01*
X174204179Y-130852237D01*
X174249916Y-130804263D01*
X174412633Y-130632940D01*
X174552313Y-130484738D01*
X174669373Y-130359198D01*
X174764233Y-130255861D01*
X174831309Y-130180967D01*
X175105947Y-130180967D01*
X175108106Y-130198589D01*
X175108483Y-130200430D01*
X175126480Y-130242171D01*
X175162428Y-130261620D01*
X175273237Y-130303083D01*
X175371963Y-130372156D01*
X175449611Y-130463524D01*
X175502828Y-130573195D01*
X175528258Y-130697173D01*
X175536681Y-130802105D01*
X176798482Y-130802105D01*
X176807280Y-130764506D01*
X176808836Y-130755279D01*
X176813672Y-130714018D01*
X176820271Y-130647304D01*
X176828142Y-130560453D01*
X176836797Y-130458777D01*
X176845743Y-130347592D01*
X176875409Y-129968277D01*
X176475532Y-129562198D01*
X176402187Y-129487961D01*
X176312447Y-129397837D01*
X176231940Y-129317775D01*
X176163488Y-129250542D01*
X176109917Y-129198910D01*
X176074052Y-129165646D01*
X176058715Y-129153521D01*
X176048431Y-129159314D01*
X176017801Y-129185675D01*
X175971705Y-129229709D01*
X175914265Y-129287444D01*
X175849605Y-129354911D01*
X175832738Y-129372804D01*
X175757107Y-129452839D01*
X175666984Y-129547977D01*
X175569155Y-129651067D01*
X175470405Y-129754956D01*
X175377520Y-129852493D01*
X175371940Y-129858346D01*
X175285584Y-129949214D01*
X175219690Y-130019577D01*
X175171651Y-130072783D01*
X175138863Y-130112177D01*
X175118720Y-130141108D01*
X175108616Y-130162922D01*
X175105947Y-130180967D01*
X174831309Y-130180967D01*
X174837311Y-130174266D01*
X174889026Y-130113955D01*
X174919796Y-130074466D01*
X174930040Y-130055342D01*
X174930041Y-130055229D01*
X174928636Y-130031394D01*
X174924531Y-129977967D01*
X174918048Y-129898584D01*
X174909508Y-129796880D01*
X174899233Y-129676493D01*
X174887544Y-129541057D01*
X174874763Y-129394211D01*
X174861212Y-129239590D01*
X174847212Y-129080830D01*
X174833085Y-128921568D01*
X174819153Y-128765441D01*
X174805736Y-128616083D01*
X174793157Y-128477133D01*
X174781738Y-128352226D01*
X174771799Y-128244998D01*
X174763662Y-128159087D01*
X174757650Y-128098127D01*
X174754083Y-128065756D01*
X174746891Y-128011538D01*
X174918573Y-128011538D01*
X174920772Y-128052630D01*
X174925611Y-128121735D01*
X174932848Y-128215870D01*
X174942241Y-128332053D01*
X174953547Y-128467299D01*
X174966523Y-128618627D01*
X174980929Y-128783054D01*
X174996521Y-128957597D01*
X175008710Y-129092206D01*
X175023976Y-129259145D01*
X175038269Y-129413618D01*
X175051305Y-129552649D01*
X175062800Y-129673264D01*
X175072470Y-129772489D01*
X175080030Y-129847348D01*
X175085197Y-129894867D01*
X175087686Y-129912072D01*
X175095236Y-129906742D01*
X175122922Y-129880578D01*
X175167909Y-129835637D01*
X175227100Y-129775191D01*
X175297399Y-129702509D01*
X175375708Y-129620864D01*
X175458930Y-129533526D01*
X175543969Y-129443767D01*
X175627727Y-129354858D01*
X175707107Y-129270070D01*
X175779013Y-129192673D01*
X175840347Y-129125941D01*
X175888013Y-129073142D01*
X175918913Y-129037550D01*
X175927941Y-129025186D01*
X176169574Y-129025186D01*
X176535971Y-129391299D01*
X176625569Y-129480679D01*
X176710013Y-129564320D01*
X176775427Y-129628027D01*
X176824208Y-129673868D01*
X176858753Y-129703909D01*
X176881459Y-129720218D01*
X176894722Y-129724862D01*
X176900940Y-129719908D01*
X176902509Y-129707423D01*
X176903515Y-129687363D01*
X176907140Y-129635712D01*
X176913130Y-129557320D01*
X176921198Y-129455759D01*
X176931055Y-129334602D01*
X176942413Y-129197421D01*
X176954984Y-129047787D01*
X176968480Y-128889271D01*
X176980395Y-128749563D01*
X176992811Y-128602414D01*
X177003943Y-128468805D01*
X177013526Y-128352028D01*
X177021290Y-128255378D01*
X177026969Y-128182145D01*
X177030297Y-128135624D01*
X177031004Y-128119106D01*
X177030444Y-128119416D01*
X177014663Y-128134623D01*
X176979606Y-128170303D01*
X176928363Y-128223220D01*
X176864019Y-128290139D01*
X176789664Y-128367823D01*
X176708385Y-128453036D01*
X176623270Y-128542541D01*
X176537406Y-128633102D01*
X176453881Y-128721483D01*
X176375784Y-128804448D01*
X176306202Y-128878760D01*
X176172141Y-129022434D01*
X176169574Y-129025186D01*
X175927941Y-129025186D01*
X175929951Y-129022434D01*
X175919131Y-129007785D01*
X175887674Y-128972722D01*
X175838503Y-128920265D01*
X175774544Y-128853372D01*
X175698723Y-128774999D01*
X175613967Y-128688103D01*
X175523202Y-128595641D01*
X175429356Y-128500569D01*
X175335354Y-128405845D01*
X175244124Y-128314424D01*
X175158591Y-128229265D01*
X175081683Y-128153323D01*
X175016326Y-128089556D01*
X174965446Y-128040920D01*
X174931970Y-128010372D01*
X174918824Y-128000868D01*
X174918573Y-128011538D01*
X174746891Y-128011538D01*
X174744663Y-127994737D01*
X174379079Y-127994737D01*
X174378641Y-127714835D01*
X174378414Y-127569584D01*
X174512763Y-127569584D01*
X174512763Y-127861052D01*
X174621382Y-127861052D01*
X174631045Y-127861044D01*
X174685604Y-127859880D01*
X174715276Y-127854902D01*
X174727571Y-127843477D01*
X174730000Y-127822971D01*
X174719301Y-127792829D01*
X174682654Y-127742687D01*
X174621382Y-127677237D01*
X174512763Y-127569584D01*
X174378414Y-127569584D01*
X174378204Y-127434934D01*
X173777885Y-126825000D01*
X173177567Y-126215066D01*
X173176744Y-126099337D01*
X173175921Y-125983610D01*
X173895969Y-126713449D01*
X173965564Y-126783944D01*
X174109975Y-126929828D01*
X174233442Y-127053875D01*
X174337560Y-127157611D01*
X174423925Y-127242562D01*
X174494132Y-127310256D01*
X174549776Y-127362219D01*
X174592452Y-127399977D01*
X174623756Y-127425057D01*
X174645282Y-127438986D01*
X174658625Y-127443289D01*
X174681125Y-127441986D01*
X174693756Y-127432468D01*
X174695934Y-127406427D01*
X174690697Y-127355559D01*
X174687086Y-127323533D01*
X174682061Y-127270002D01*
X174680037Y-127234408D01*
X174679045Y-127222138D01*
X174669386Y-127208996D01*
X174642703Y-127204641D01*
X174590902Y-127206542D01*
X174577676Y-127207287D01*
X174524733Y-127206447D01*
X174487073Y-127194813D01*
X174460529Y-127175921D01*
X174836974Y-127175921D01*
X174842504Y-127238585D01*
X174845058Y-127267017D01*
X174853018Y-127344642D01*
X174860861Y-127395769D01*
X174870031Y-127425711D01*
X174881973Y-127439780D01*
X174898129Y-127443289D01*
X174912656Y-127445679D01*
X174922289Y-127457098D01*
X174927672Y-127483645D01*
X174930015Y-127531414D01*
X174930526Y-127606502D01*
X174930526Y-127769715D01*
X174983948Y-127822971D01*
X175114342Y-127952960D01*
X175298158Y-128136206D01*
X175298158Y-127994737D01*
X176300790Y-127994737D01*
X176300790Y-128312237D01*
X175478827Y-128312237D01*
X175757589Y-128600493D01*
X175810984Y-128655548D01*
X175884817Y-128731120D01*
X175948929Y-128796082D01*
X175999961Y-128847060D01*
X176034557Y-128880681D01*
X176049357Y-128893574D01*
X176054983Y-128890018D01*
X176081363Y-128866118D01*
X176126849Y-128821862D01*
X176189012Y-128759708D01*
X176265422Y-128682115D01*
X176353649Y-128591540D01*
X176451262Y-128490441D01*
X176555833Y-128381275D01*
X176660940Y-128270964D01*
X176763974Y-128162246D01*
X176847530Y-128073136D01*
X176913654Y-128001271D01*
X176964387Y-127944289D01*
X177001775Y-127899828D01*
X177027860Y-127865525D01*
X177044687Y-127839017D01*
X177054298Y-127817942D01*
X177058739Y-127799939D01*
X177059916Y-127791169D01*
X177065136Y-127742847D01*
X177071742Y-127671707D01*
X177079008Y-127585861D01*
X177086207Y-127493421D01*
X177088648Y-127461225D01*
X177095701Y-127374236D01*
X177102425Y-127299203D01*
X177108160Y-127243255D01*
X177112240Y-127213520D01*
X177120242Y-127175921D01*
X174836974Y-127175921D01*
X174460529Y-127175921D01*
X174449956Y-127168396D01*
X174443563Y-127162835D01*
X174391285Y-127095487D01*
X174370581Y-127025526D01*
X174823481Y-127025526D01*
X176703306Y-127025526D01*
X176700583Y-126958684D01*
X176985921Y-126958684D01*
X176985921Y-127025526D01*
X177061706Y-127025526D01*
X177084412Y-127025366D01*
X177118054Y-127022442D01*
X177127766Y-127012970D01*
X177120227Y-126993267D01*
X177117999Y-126989511D01*
X177092990Y-126960623D01*
X177056757Y-126928563D01*
X177020613Y-126902560D01*
X176995874Y-126891842D01*
X176993650Y-126893536D01*
X176988131Y-126916810D01*
X176985921Y-126958684D01*
X176700583Y-126958684D01*
X176698397Y-126905007D01*
X176693487Y-126784488D01*
X176593224Y-126764348D01*
X176542943Y-126755214D01*
X176458975Y-126742425D01*
X176380165Y-126732776D01*
X176267368Y-126721345D01*
X176267368Y-126858421D01*
X175498684Y-126858421D01*
X175498684Y-126737596D01*
X175402599Y-126749065D01*
X175255787Y-126773646D01*
X175108032Y-126818089D01*
X174985814Y-126880062D01*
X174887062Y-126960413D01*
X174823481Y-127025526D01*
X174370581Y-127025526D01*
X174368281Y-127017754D01*
X174375328Y-126936211D01*
X174413203Y-126857434D01*
X174416868Y-126852529D01*
X174467486Y-126810327D01*
X174533474Y-126785365D01*
X174604607Y-126778725D01*
X174670664Y-126791492D01*
X174721419Y-126824750D01*
X174738604Y-126841729D01*
X174755345Y-126845844D01*
X174779318Y-126833115D01*
X174819799Y-126801332D01*
X174832219Y-126791564D01*
X174928111Y-126729911D01*
X175041715Y-126675084D01*
X175134630Y-126641184D01*
X175632368Y-126641184D01*
X175632368Y-126724737D01*
X176133684Y-126724737D01*
X176133684Y-126641184D01*
X175632368Y-126641184D01*
X175134630Y-126641184D01*
X175162453Y-126631033D01*
X175279746Y-126601706D01*
X175383017Y-126591052D01*
X175393988Y-126590968D01*
X175454970Y-126585031D01*
X175488460Y-126568385D01*
X175498684Y-126539133D01*
X175499885Y-126529917D01*
X175506449Y-126521991D01*
X175522391Y-126516189D01*
X175551719Y-126512181D01*
X175598440Y-126509639D01*
X175666559Y-126508230D01*
X175760086Y-126507628D01*
X175883026Y-126507500D01*
X175998219Y-126507725D01*
X176096126Y-126508635D01*
X176167800Y-126510469D01*
X176217001Y-126513466D01*
X176247490Y-126517863D01*
X176263025Y-126523898D01*
X176267368Y-126531808D01*
X176281653Y-126551232D01*
X176321678Y-126563627D01*
X176336997Y-126565796D01*
X176389230Y-126573430D01*
X176458737Y-126583778D01*
X176534737Y-126595240D01*
X176576651Y-126601075D01*
X176637992Y-126607394D01*
X176681273Y-126608918D01*
X176699057Y-126605197D01*
X176702094Y-126602773D01*
X176730130Y-126596785D01*
X176780564Y-126592617D01*
X176845274Y-126591052D01*
X176985921Y-126591052D01*
X176985937Y-126641184D01*
X176985938Y-126645362D01*
G37*
%TD*%
M02*
