M48
; DRILL file {KiCad 9.0.0} date 2025-03-09T16:10:11+0400
; FORMAT={-:-/ absolute / metric / decimal}
; #@! TF.CreationDate,2025-03-09T16:10:11+04:00
; #@! TF.GenerationSoftware,Kicad,Pcbnew,9.0.0
; #@! TF.FileFunction,Plated,1,2,PTH
FMAT,2
METRIC
; #@! TA.AperFunction,Plated,PTH,ComponentDrill
T1C0.200
; #@! TA.AperFunction,Plated,PTH,ViaDrill
T2C0.500
; #@! TA.AperFunction,Plated,PTH,ComponentDrill
T3C0.600
; #@! TA.AperFunction,Plated,PTH,ComponentDrill
T4C1.000
; #@! TA.AperFunction,Plated,PTH,ComponentDrill
T5C1.100
; #@! TA.AperFunction,Plated,PTH,ComponentDrill
T6C1.520
%
G90
G05
T1
X168.525Y-109.307
X168.525Y-110.832
X169.287Y-108.545
X169.287Y-110.07
X169.287Y-111.595
X170.05Y-109.307
X170.05Y-110.832
X170.812Y-108.545
X170.812Y-110.07
X170.812Y-111.595
X171.575Y-109.307
X171.575Y-110.832
T2
X125.4Y-135.9
X128.0Y-122.55
X130.85Y-134.55
X133.9Y-134.8
X135.05Y-125.65
X135.35Y-130.4
X136.35Y-126.05
X136.85Y-134.8
X139.0Y-120.4
X140.1Y-134.55
X141.925Y-121.475
X143.15Y-134.35
X144.05Y-120.0
X144.075Y-121.75
X144.66Y-128.8
X145.8Y-110.95
X146.25Y-127.8
X147.5Y-127.05
X147.925Y-124.825
X148.0Y-129.2
X148.009Y-126.0
X149.9Y-129.3
X149.9Y-130.6
X152.3Y-101.8
X152.55Y-97.25
X153.8Y-115.4
X154.0Y-98.75
X154.065Y-133.135
X155.1Y-133.2
X155.3Y-104.95
X155.95Y-97.15
X157.72Y-116.47
X158.3Y-97.95
X159.35Y-97.15
X162.1Y-126.0
X162.825Y-97.1
X162.949Y-125.201
X163.2Y-99.3
X163.65Y-106.05
X165.8Y-116.45
X165.95Y-125.85
X166.3Y-134.3
X166.43Y-130.55
X166.65Y-124.8
X167.05Y-117.55
X167.85Y-130.55
X168.15Y-98.6
X168.4Y-134.2
X169.7Y-91.2
X169.95Y-135.3
X170.581Y-136.076
X171.05Y-117.85
X174.25Y-95.95
T4
X94.462Y-127.078
X99.462Y-97.998
X104.462Y-97.998
X109.462Y-127.078
X168.85Y-123.65
X171.39Y-123.65
X173.93Y-123.65
X176.47Y-123.65
T5
X116.5Y-113.5
X121.2Y-95.0
X121.2Y-102.0
X121.2Y-113.5
X125.333Y-113.5
X130.033Y-95.0
X130.033Y-102.0
X130.033Y-113.5
X134.167Y-113.5
X138.867Y-95.0
X138.867Y-102.0
X138.867Y-113.5
X143.0Y-113.5
X147.7Y-95.0
X147.7Y-102.0
X147.7Y-113.5
T6
X101.42Y-88.5
X106.5Y-88.5
X111.58Y-88.5
X116.66Y-88.5
X121.74Y-88.5
X126.82Y-88.5
X141.2Y-88.5
X146.28Y-88.5
X151.36Y-88.5
X156.44Y-88.5
X161.52Y-88.5
X166.6Y-88.5
T3
G00X162.86Y-132.845
M15
G01X162.86Y-133.945
M16
G05
G00X162.86Y-137.275
M15
G01X162.86Y-137.875
M16
G05
G00X171.5Y-132.845
M15
G01X171.5Y-133.945
M16
G05
G00X171.5Y-137.275
M15
G01X171.5Y-137.875
M16
G05
M30
