%TF.GenerationSoftware,KiCad,Pcbnew,9.0.0*%
%TF.CreationDate,2025-03-09T16:10:17+04:00*%
%TF.ProjectId,Arbaa_Amp_V0.1,41726261-615f-4416-9d70-5f56302e312e,rev?*%
%TF.SameCoordinates,Original*%
%TF.FileFunction,Copper,L2,Bot*%
%TF.FilePolarity,Positive*%
%FSLAX46Y46*%
G04 Gerber Fmt 4.6, Leading zero omitted, Abs format (unit mm)*
G04 Created by KiCad (PCBNEW 9.0.0) date 2025-03-09 16:10:17*
%MOMM*%
%LPD*%
G01*
G04 APERTURE LIST*
%TA.AperFunction,ComponentPad*%
%ADD10C,3.000000*%
%TD*%
%TA.AperFunction,ComponentPad*%
%ADD11R,3.000000X3.000000*%
%TD*%
%TA.AperFunction,ComponentPad*%
%ADD12R,2.000000X1.700000*%
%TD*%
%TA.AperFunction,ComponentPad*%
%ADD13O,2.000000X1.700000*%
%TD*%
%TA.AperFunction,ComponentPad*%
%ADD14C,1.650000*%
%TD*%
%TA.AperFunction,ComponentPad*%
%ADD15R,1.650000X1.650000*%
%TD*%
%TA.AperFunction,ComponentPad*%
%ADD16R,1.700000X1.700000*%
%TD*%
%TA.AperFunction,ComponentPad*%
%ADD17O,1.700000X1.700000*%
%TD*%
%TA.AperFunction,HeatsinkPad*%
%ADD18O,1.000000X2.100000*%
%TD*%
%TA.AperFunction,HeatsinkPad*%
%ADD19O,1.000000X1.600000*%
%TD*%
%TA.AperFunction,HeatsinkPad*%
%ADD20C,0.600000*%
%TD*%
%TA.AperFunction,ViaPad*%
%ADD21C,0.800000*%
%TD*%
%TA.AperFunction,Conductor*%
%ADD22C,0.300000*%
%TD*%
%TA.AperFunction,Conductor*%
%ADD23C,0.500000*%
%TD*%
%TA.AperFunction,Conductor*%
%ADD24C,0.200000*%
%TD*%
%TA.AperFunction,Conductor*%
%ADD25C,2.000000*%
%TD*%
G04 APERTURE END LIST*
D10*
%TO.P,J3,6,Pin_6*%
%TO.N,GND*%
X166600000Y-88500000D03*
%TO.P,J3,5,Pin_5*%
%TO.N,SWITCH_4{slash}IO14*%
X161520000Y-88500000D03*
%TO.P,J3,4,Pin_4*%
%TO.N,SWITCH_3{slash}IO27*%
X156440000Y-88500000D03*
%TO.P,J3,3,Pin_3*%
%TO.N,SWITCH_2{slash}IO12*%
X151360000Y-88500000D03*
%TO.P,J3,2,Pin_2*%
%TO.N,SWITCH_1{slash}IO13*%
X146280000Y-88500000D03*
D11*
%TO.P,J3,1,Pin_1*%
%TO.N,EXTRA{slash}IO17*%
X141200000Y-88500000D03*
%TD*%
D12*
%TO.P,PS1,1,AC/L*%
%TO.N,P*%
X104462500Y-97997500D03*
D13*
%TO.P,PS1,2,AC/N*%
%TO.N,N*%
X99462500Y-97997500D03*
%TO.P,PS1,3,-Vout*%
%TO.N,GND*%
X109462500Y-127077500D03*
%TO.P,PS1,4,+Vout*%
%TO.N,+5V*%
X94462500Y-127077500D03*
%TD*%
D14*
%TO.P,K4,4*%
%TO.N,Net-(J2-Pin_6)*%
X147700000Y-95000000D03*
%TO.P,K4,3*%
%TO.N,P*%
X147700000Y-102000000D03*
D15*
%TO.P,K4,1*%
%TO.N,RELAY_5V*%
X143000000Y-113500000D03*
D14*
%TO.P,K4,2*%
%TO.N,RELAY_4*%
X147700000Y-113500000D03*
%TD*%
%TO.P,K3,4*%
%TO.N,Net-(J2-Pin_5)*%
X138866667Y-95000000D03*
%TO.P,K3,3*%
%TO.N,P*%
X138866667Y-102000000D03*
D15*
%TO.P,K3,1*%
%TO.N,RELAY_5V*%
X134166667Y-113500000D03*
D14*
%TO.P,K3,2*%
%TO.N,RELAY_3*%
X138866667Y-113500000D03*
%TD*%
%TO.P,K2,4*%
%TO.N,Net-(J2-Pin_4)*%
X130033333Y-95000000D03*
%TO.P,K2,3*%
%TO.N,P*%
X130033333Y-102000000D03*
D15*
%TO.P,K2,1*%
%TO.N,RELAY_5V*%
X125333333Y-113500000D03*
D14*
%TO.P,K2,2*%
%TO.N,RELAY_2*%
X130033333Y-113500000D03*
%TD*%
%TO.P,K1,4*%
%TO.N,Net-(J2-Pin_3)*%
X121200000Y-95000000D03*
%TO.P,K1,3*%
%TO.N,P*%
X121200000Y-102000000D03*
D15*
%TO.P,K1,1*%
%TO.N,RELAY_5V*%
X116500000Y-113500000D03*
D14*
%TO.P,K1,2*%
%TO.N,RELAY_1*%
X121200000Y-113500000D03*
%TD*%
D16*
%TO.P,J4,1,Pin_1*%
%TO.N,GND*%
X168850000Y-123650000D03*
D17*
%TO.P,J4,2,Pin_2*%
%TO.N,SDA*%
X171390000Y-123650000D03*
%TO.P,J4,3,Pin_3*%
%TO.N,SCL*%
X173930000Y-123650000D03*
%TO.P,J4,4,Pin_4*%
%TO.N,+5V*%
X176470000Y-123650000D03*
%TD*%
D11*
%TO.P,J2,1,Pin_1*%
%TO.N,N*%
X101420000Y-88500000D03*
D10*
%TO.P,J2,2,Pin_2*%
%TO.N,P*%
X106500000Y-88500000D03*
%TO.P,J2,3,Pin_3*%
%TO.N,Net-(J2-Pin_3)*%
X111580000Y-88500000D03*
%TO.P,J2,4,Pin_4*%
%TO.N,Net-(J2-Pin_4)*%
X116660000Y-88500000D03*
%TO.P,J2,5,Pin_5*%
%TO.N,Net-(J2-Pin_5)*%
X121740000Y-88500000D03*
%TO.P,J2,6,Pin_6*%
%TO.N,Net-(J2-Pin_6)*%
X126820000Y-88500000D03*
%TD*%
D18*
%TO.P,J1,S1,SHIELD*%
%TO.N,GND*%
X162860000Y-133395000D03*
D19*
X162860000Y-137575000D03*
D18*
X171500000Y-133395000D03*
D19*
X171500000Y-137575000D03*
%TD*%
D20*
%TO.P,U4,39,GND*%
%TO.N,GND*%
X169287500Y-111595000D03*
X170812500Y-111595000D03*
X168525000Y-110832500D03*
X170050000Y-110832500D03*
X171575000Y-110832500D03*
X169287500Y-110070000D03*
X170812500Y-110070000D03*
X168525000Y-109307500D03*
X170050000Y-109307500D03*
X171575000Y-109307500D03*
X169287500Y-108545000D03*
X170812500Y-108545000D03*
%TD*%
D21*
%TO.N,GND*%
X135350000Y-130400000D03*
X130850000Y-134550000D03*
X125400000Y-135900000D03*
X148000000Y-129200000D03*
X174250000Y-95950000D03*
X169700000Y-91200000D03*
X154000000Y-98750000D03*
%TO.N,SIG_2{slash}IO23*%
X167050000Y-117550000D03*
%TO.N,SIG_1{slash}IO25*%
X147925000Y-124825000D03*
%TO.N,SIG_2{slash}IO23*%
X148008521Y-126000000D03*
%TO.N,SIG_3{slash}IO19*%
X147500000Y-127050000D03*
%TO.N,SIG_4{slash}IO18*%
X162949000Y-125201000D03*
%TO.N,SIG_3{slash}IO19*%
X162100000Y-126000000D03*
%TO.N,SIG_4{slash}IO18*%
X146250000Y-127800000D03*
%TO.N,SIG_1{slash}IO25*%
X165800000Y-116450000D03*
%TO.N,LED{slash}IO2*%
X144660000Y-128800000D03*
X157720000Y-116470000D03*
%TO.N,RELAY_4*%
X141925000Y-121475000D03*
%TO.N,RELAY_3*%
X139000000Y-120400000D03*
%TO.N,RELAY_4*%
X143150000Y-134350000D03*
%TO.N,RELAY_3*%
X140100000Y-134550000D03*
%TO.N,RELAY_1*%
X133900000Y-134800000D03*
%TO.N,RELAY_2*%
X136850000Y-134800000D03*
%TO.N,RELAY_5V*%
X144050000Y-120000000D03*
X144075000Y-121750000D03*
%TO.N,RELAY_2*%
X136350000Y-126050000D03*
%TO.N,RELAY_1*%
X135050000Y-125650000D03*
%TO.N,RXD*%
X165950000Y-125850000D03*
%TO.N,TXD*%
X166650000Y-124800000D03*
%TO.N,+3V3*%
X128000000Y-122550000D03*
X145800000Y-110950000D03*
%TO.N,ESP_3V3*%
X152300000Y-101800000D03*
%TO.N,EXTRA{slash}IO17*%
X163650000Y-106050000D03*
X155300000Y-104950000D03*
%TO.N,EN*%
X168150000Y-98600000D03*
X153800000Y-115400000D03*
%TO.N,SDA*%
X171050000Y-117850000D03*
%TO.N,D+*%
X167850000Y-130550000D03*
%TO.N,D-*%
X166430000Y-130550000D03*
%TO.N,Net-(J1-CC1)*%
X170581266Y-136075570D03*
%TO.N,Net-(J1-CC2)*%
X169950000Y-135300000D03*
%TO.N,D+*%
X154065000Y-133135000D03*
%TO.N,D-*%
X155100000Y-133200000D03*
%TO.N,TXD*%
X149900000Y-130600000D03*
%TO.N,RXD*%
X149900000Y-129300000D03*
%TO.N,ESP_3V3*%
X152550000Y-97250000D03*
X155950000Y-97150000D03*
X159350000Y-97150000D03*
X162825000Y-97100000D03*
%TO.N,SWITCH_3{slash}IO27*%
X158300000Y-97950000D03*
X163200000Y-99300000D03*
%TO.N,Net-(J1-CC1)*%
X166300000Y-134300000D03*
%TO.N,Net-(J1-CC2)*%
X168400000Y-134200000D03*
%TD*%
D22*
%TO.N,SIG_1{slash}IO25*%
X165800000Y-119950000D02*
X165800000Y-116450000D01*
X148425000Y-124825000D02*
X148850000Y-125250000D01*
X147925000Y-124825000D02*
X148425000Y-124825000D01*
X148850000Y-125250000D02*
X160500000Y-125250000D01*
%TO.N,SIG_2{slash}IO23*%
X167050000Y-119800000D02*
X167050000Y-117550000D01*
X160850000Y-126000000D02*
X167050000Y-119800000D01*
X148008521Y-126000000D02*
X160850000Y-126000000D01*
%TO.N,SIG_3{slash}IO19*%
X147500000Y-127050000D02*
X161050000Y-127050000D01*
X161050000Y-127050000D02*
X162100000Y-126000000D01*
%TO.N,SIG_4{slash}IO18*%
X162950000Y-125202000D02*
X162949000Y-125201000D01*
X162950000Y-126600000D02*
X162950000Y-125202000D01*
X161750000Y-127800000D02*
X162950000Y-126600000D01*
X146250000Y-127800000D02*
X161750000Y-127800000D01*
D23*
%TO.N,RELAY_5V*%
X144075000Y-121750000D02*
X144075000Y-121675000D01*
X144050000Y-121650000D02*
X144050000Y-120000000D01*
X144075000Y-121675000D02*
X144050000Y-121650000D01*
D22*
%TO.N,LED{slash}IO2*%
X145150000Y-128310000D02*
X144660000Y-128800000D01*
X146130000Y-116470000D02*
X145150000Y-117450000D01*
X157720000Y-116470000D02*
X146130000Y-116470000D01*
X145150000Y-117450000D02*
X145150000Y-128310000D01*
%TO.N,RELAY_4*%
X143150000Y-122700000D02*
X141925000Y-121475000D01*
X143150000Y-134350000D02*
X143150000Y-122700000D01*
%TO.N,RELAY_3*%
X139000000Y-120850000D02*
X139000000Y-120400000D01*
X140100000Y-121950000D02*
X139000000Y-120850000D01*
X140100000Y-134550000D02*
X140100000Y-121950000D01*
%TO.N,RELAY_2*%
X136350000Y-127700000D02*
X136350000Y-126050000D01*
X136850000Y-128200000D02*
X136350000Y-127700000D01*
X136850000Y-134800000D02*
X136850000Y-128200000D01*
%TO.N,RELAY_1*%
X133900000Y-126800000D02*
X135050000Y-125650000D01*
X133900000Y-134800000D02*
X133900000Y-126800000D01*
D23*
%TO.N,+3V3*%
X129300000Y-110950000D02*
X145800000Y-110950000D01*
X128000000Y-112250000D02*
X129300000Y-110950000D01*
X128000000Y-122550000D02*
X128000000Y-112250000D01*
D22*
%TO.N,TXD*%
X161950000Y-129950000D02*
X161300000Y-130600000D01*
X165650000Y-129950000D02*
X161950000Y-129950000D01*
X166800000Y-128800000D02*
X165650000Y-129950000D01*
X166800000Y-125600000D02*
X166800000Y-128800000D01*
X166650000Y-124800000D02*
X166650000Y-125450000D01*
X166650000Y-125450000D02*
X166800000Y-125600000D01*
X161300000Y-130600000D02*
X149900000Y-130600000D01*
%TO.N,RXD*%
X166200000Y-126100000D02*
X165950000Y-125850000D01*
X166200000Y-128450000D02*
X166200000Y-126100000D01*
X166100000Y-128550000D02*
X166200000Y-128450000D01*
X165350000Y-129300000D02*
X166100000Y-128550000D01*
X149900000Y-129300000D02*
X165350000Y-129300000D01*
D23*
%TO.N,ESP_3V3*%
X162824000Y-97099000D02*
X162825000Y-97100000D01*
X158800000Y-97099000D02*
X162824000Y-97099000D01*
X158800000Y-97099000D02*
X159299000Y-97099000D01*
X159299000Y-97099000D02*
X159350000Y-97150000D01*
X156801000Y-97099000D02*
X158800000Y-97099000D01*
X155500000Y-97250000D02*
X156650000Y-97250000D01*
X156650000Y-97250000D02*
X156801000Y-97099000D01*
X152550000Y-97250000D02*
X155500000Y-97250000D01*
X155850000Y-97250000D02*
X155950000Y-97150000D01*
X155500000Y-97250000D02*
X155850000Y-97250000D01*
X152300000Y-97500000D02*
X152550000Y-97250000D01*
X152300000Y-101800000D02*
X152300000Y-97500000D01*
D22*
%TO.N,EXTRA{slash}IO17*%
X162550000Y-104950000D02*
X155300000Y-104950000D01*
X163650000Y-106050000D02*
X162550000Y-104950000D01*
%TO.N,EN*%
X167100000Y-114350000D02*
X166050000Y-115400000D01*
X167100000Y-99650000D02*
X167100000Y-114350000D01*
X166050000Y-115400000D02*
X153800000Y-115400000D01*
X168150000Y-98600000D02*
X167100000Y-99650000D01*
D24*
%TO.N,D-*%
X161873738Y-130858063D02*
X162080947Y-130650855D01*
X162080947Y-130650855D02*
X162181802Y-130550000D01*
X161414119Y-131317683D02*
X161873738Y-130858063D01*
X162181802Y-130550000D02*
X166430000Y-130550000D01*
X160602813Y-132128989D02*
X161414119Y-131317683D01*
X160602813Y-132128989D02*
X160258284Y-132473518D01*
X155275000Y-133200000D02*
X155200000Y-133275000D01*
X159531802Y-133200000D02*
X155275000Y-133200000D01*
X160258284Y-132473518D02*
X159531802Y-133200000D01*
D22*
%TO.N,SDA*%
X171390000Y-122790000D02*
X171390000Y-123650000D01*
X171050000Y-117850000D02*
X171050000Y-122450000D01*
X171050000Y-122450000D02*
X171390000Y-122790000D01*
D24*
%TO.N,D+*%
X154065000Y-133207100D02*
X154065000Y-133135000D01*
D22*
%TO.N,Net-(J1-CC1)*%
X166300000Y-135025000D02*
X166300000Y-134300000D01*
X167425000Y-136150000D02*
X166300000Y-135025000D01*
X170581266Y-136075570D02*
X170506836Y-136150000D01*
X170506836Y-136150000D02*
X167425000Y-136150000D01*
%TO.N,Net-(J1-CC2)*%
X168350000Y-134850000D02*
X168350000Y-134250000D01*
X168350000Y-134250000D02*
X168400000Y-134200000D01*
X168800000Y-135300000D02*
X168350000Y-134850000D01*
X169950000Y-135300000D02*
X168800000Y-135300000D01*
%TO.N,SWITCH_3{slash}IO27*%
X159650000Y-99300000D02*
X158300000Y-97950000D01*
X163200000Y-99300000D02*
X159650000Y-99300000D01*
D25*
%TO.N,Net-(J2-Pin_6)*%
X134700000Y-88500000D02*
X126820000Y-88500000D01*
X138200000Y-92000000D02*
X134700000Y-88500000D01*
X141500000Y-92000000D02*
X138200000Y-92000000D01*
X147700000Y-95000000D02*
X144500000Y-95000000D01*
X144500000Y-95000000D02*
X141500000Y-92000000D01*
%TO.N,Net-(J2-Pin_4)*%
X124900000Y-95000000D02*
X130033333Y-95000000D01*
X117486342Y-91786342D02*
X121686342Y-91786342D01*
X116660000Y-90960000D02*
X117486342Y-91786342D01*
X116660000Y-88500000D02*
X116660000Y-90960000D01*
X121686342Y-91786342D02*
X124900000Y-95000000D01*
%TO.N,Net-(J2-Pin_5)*%
X121740000Y-88640000D02*
X121740000Y-88500000D01*
X122100000Y-89000000D02*
X121740000Y-88640000D01*
X122240000Y-89000000D02*
X122100000Y-89000000D01*
X123800000Y-90560000D02*
X123800000Y-90500000D01*
X124940000Y-91700000D02*
X123800000Y-90560000D01*
X137400000Y-95000000D02*
X134100000Y-91700000D01*
X123740000Y-90500000D02*
X122240000Y-89000000D01*
X134100000Y-91700000D02*
X124940000Y-91700000D01*
X138866667Y-95000000D02*
X137400000Y-95000000D01*
%TO.N,Net-(J2-Pin_3)*%
X112900000Y-95000000D02*
X121200000Y-95000000D01*
X111580000Y-93680000D02*
X112900000Y-95000000D01*
X111580000Y-88500000D02*
X111580000Y-93680000D01*
%TO.N,P*%
X106300000Y-102000000D02*
X121200000Y-102000000D01*
X104462500Y-100162500D02*
X106300000Y-102000000D01*
X104462500Y-97997500D02*
X104462500Y-100162500D01*
X147700000Y-102000000D02*
X121200000Y-102000000D01*
X104462500Y-94237500D02*
X104462500Y-97997500D01*
X106500000Y-92200000D02*
X104462500Y-94237500D01*
X106500000Y-88500000D02*
X106500000Y-92200000D01*
%TO.N,N*%
X99462500Y-94237500D02*
X99462500Y-97997500D01*
X101420000Y-88500000D02*
X101420000Y-92280000D01*
X101420000Y-92280000D02*
X99462500Y-94237500D01*
D24*
%TO.N,D+*%
X160331461Y-133036737D02*
X159931364Y-133436834D01*
X159748902Y-133550000D02*
X159697902Y-133601000D01*
X159818198Y-133550000D02*
X159748902Y-133550000D01*
X159931364Y-133436834D02*
X159818198Y-133550000D01*
X159697902Y-133601000D02*
X155690364Y-133601000D01*
X155690364Y-133601000D02*
X155390364Y-133901000D01*
X155390364Y-133901000D02*
X154758900Y-133901000D01*
X154758900Y-133901000D02*
X154065000Y-133207100D01*
X160664875Y-132703323D02*
X160331461Y-133036737D01*
X162368198Y-131000000D02*
X161339112Y-132029086D01*
X160879492Y-132488705D02*
X160664875Y-132703323D01*
X161339112Y-132029086D02*
X160879492Y-132488705D01*
X167850000Y-130550000D02*
X167400000Y-131000000D01*
X167400000Y-131000000D02*
X166971364Y-131000000D01*
X166971364Y-131000000D02*
X166720364Y-131251000D01*
X166720364Y-131251000D02*
X166139636Y-131251000D01*
X166139636Y-131251000D02*
X165888636Y-131000000D01*
X165888636Y-131000000D02*
X162368198Y-131000000D01*
D22*
%TO.N,SIG_1{slash}IO25*%
X160500000Y-125250000D02*
X165800000Y-119950000D01*
%TD*%
%TA.AperFunction,Conductor*%
%TO.N,GND*%
G36*
X182003736Y-85000726D02*
G01*
X182293796Y-85018271D01*
X182308659Y-85020076D01*
X182590798Y-85071780D01*
X182605335Y-85075363D01*
X182879172Y-85160695D01*
X182893163Y-85166000D01*
X183154743Y-85283727D01*
X183167989Y-85290680D01*
X183413465Y-85439075D01*
X183425776Y-85447573D01*
X183535748Y-85533730D01*
X183651573Y-85624473D01*
X183662781Y-85634403D01*
X183865596Y-85837218D01*
X183875526Y-85848426D01*
X183995481Y-86001538D01*
X184052422Y-86074217D01*
X184060926Y-86086537D01*
X184201633Y-86319295D01*
X184209316Y-86332004D01*
X184216275Y-86345263D01*
X184319720Y-86575109D01*
X184329283Y-86644321D01*
X184299909Y-86707716D01*
X184240925Y-86745167D01*
X184206644Y-86750000D01*
X183937519Y-86750000D01*
X183870480Y-86730315D01*
X183824725Y-86677511D01*
X183822958Y-86673452D01*
X183798048Y-86613314D01*
X183798041Y-86613299D01*
X183666924Y-86386196D01*
X183507281Y-86178148D01*
X183507274Y-86178140D01*
X183321860Y-85992726D01*
X183321851Y-85992718D01*
X183113803Y-85833075D01*
X182886700Y-85701958D01*
X182886690Y-85701953D01*
X182644428Y-85601605D01*
X182644421Y-85601603D01*
X182644419Y-85601602D01*
X182391116Y-85533730D01*
X182333339Y-85526123D01*
X182131127Y-85499500D01*
X182131120Y-85499500D01*
X181868880Y-85499500D01*
X181868872Y-85499500D01*
X181637772Y-85529926D01*
X181608884Y-85533730D01*
X181355581Y-85601602D01*
X181355571Y-85601605D01*
X181113309Y-85701953D01*
X181113299Y-85701958D01*
X180886196Y-85833075D01*
X180678148Y-85992718D01*
X180492718Y-86178148D01*
X180333075Y-86386196D01*
X180201958Y-86613299D01*
X180201951Y-86613314D01*
X180177042Y-86673452D01*
X180133201Y-86727856D01*
X180066907Y-86749921D01*
X180062481Y-86750000D01*
X178940000Y-86750000D01*
X178940000Y-100902772D01*
X178920315Y-100969811D01*
X178867511Y-101015566D01*
X178848095Y-101022546D01*
X178806815Y-101033607D01*
X178806814Y-101033607D01*
X178692686Y-101099500D01*
X178692683Y-101099502D01*
X178599502Y-101192683D01*
X178599500Y-101192686D01*
X178533608Y-101306812D01*
X178499500Y-101434108D01*
X178499500Y-120065891D01*
X178533608Y-120193187D01*
X178546014Y-120214674D01*
X178599500Y-120307314D01*
X178692686Y-120400500D01*
X178791521Y-120457563D01*
X178806789Y-120466378D01*
X178806814Y-120466392D01*
X178848094Y-120477453D01*
X178907753Y-120513817D01*
X178938283Y-120576663D01*
X178940000Y-120597227D01*
X178940000Y-134750000D01*
X180629173Y-134750000D01*
X180696212Y-134769685D01*
X180741967Y-134822489D01*
X180751911Y-134891647D01*
X180722886Y-134955203D01*
X180704663Y-134972372D01*
X180683721Y-134988441D01*
X180678141Y-134992724D01*
X180678140Y-134992726D01*
X180492718Y-135178148D01*
X180333075Y-135386196D01*
X180201958Y-135613299D01*
X180201953Y-135613309D01*
X180101605Y-135855571D01*
X180101602Y-135855581D01*
X180033730Y-136108885D01*
X179999500Y-136368872D01*
X179999500Y-136631127D01*
X180024551Y-136821398D01*
X180033730Y-136891116D01*
X180101602Y-137144418D01*
X180101605Y-137144428D01*
X180201953Y-137386690D01*
X180201958Y-137386700D01*
X180333075Y-137613803D01*
X180492718Y-137821851D01*
X180492726Y-137821860D01*
X180678140Y-138007274D01*
X180678148Y-138007281D01*
X180886196Y-138166924D01*
X181113299Y-138298041D01*
X181113309Y-138298046D01*
X181289202Y-138370903D01*
X181355581Y-138398398D01*
X181608884Y-138466270D01*
X181868880Y-138500500D01*
X181868887Y-138500500D01*
X182131113Y-138500500D01*
X182131120Y-138500500D01*
X182391116Y-138466270D01*
X182644419Y-138398398D01*
X182886697Y-138298043D01*
X183113803Y-138166924D01*
X183321851Y-138007282D01*
X183321855Y-138007277D01*
X183321860Y-138007274D01*
X183507274Y-137821860D01*
X183507277Y-137821855D01*
X183507282Y-137821851D01*
X183666924Y-137613803D01*
X183798043Y-137386697D01*
X183898398Y-137144419D01*
X183966270Y-136891116D01*
X184000500Y-136631120D01*
X184000500Y-136368880D01*
X183966270Y-136108884D01*
X183898398Y-135855581D01*
X183898394Y-135855571D01*
X183798046Y-135613309D01*
X183798041Y-135613299D01*
X183666924Y-135386196D01*
X183544414Y-135226540D01*
X183507282Y-135178149D01*
X183507281Y-135178148D01*
X183507274Y-135178140D01*
X183321858Y-134992724D01*
X183321853Y-134992720D01*
X183321851Y-134992718D01*
X183295338Y-134972373D01*
X183254137Y-134915946D01*
X183249983Y-134846200D01*
X183284196Y-134785280D01*
X183345914Y-134752528D01*
X183370827Y-134750000D01*
X184375500Y-134750000D01*
X184442539Y-134769685D01*
X184488294Y-134822489D01*
X184499500Y-134874000D01*
X184499500Y-136496249D01*
X184499274Y-136503736D01*
X184481728Y-136793794D01*
X184479923Y-136808659D01*
X184428219Y-137090798D01*
X184424635Y-137105336D01*
X184339306Y-137379167D01*
X184333997Y-137393168D01*
X184216275Y-137654736D01*
X184209316Y-137667995D01*
X184060928Y-137913459D01*
X184052422Y-137925782D01*
X183875526Y-138151573D01*
X183865596Y-138162781D01*
X183662781Y-138365596D01*
X183651573Y-138375526D01*
X183425782Y-138552422D01*
X183413459Y-138560928D01*
X183167995Y-138709316D01*
X183154736Y-138716275D01*
X182893168Y-138833997D01*
X182879167Y-138839306D01*
X182605336Y-138924635D01*
X182590798Y-138928219D01*
X182308659Y-138979923D01*
X182293794Y-138981728D01*
X182003736Y-138999274D01*
X181996249Y-138999500D01*
X172021735Y-138999500D01*
X171954696Y-138979815D01*
X171908941Y-138927011D01*
X171898997Y-138857853D01*
X171928022Y-138794297D01*
X171968766Y-138764916D01*
X171968308Y-138764059D01*
X171973684Y-138761185D01*
X172137462Y-138651751D01*
X172137466Y-138651748D01*
X172276748Y-138512466D01*
X172276751Y-138512462D01*
X172386185Y-138348684D01*
X172386192Y-138348671D01*
X172461569Y-138166693D01*
X172461572Y-138166681D01*
X172499999Y-137973495D01*
X172500000Y-137973492D01*
X172500000Y-137825000D01*
X171800000Y-137825000D01*
X171800000Y-137325000D01*
X172500000Y-137325000D01*
X172500000Y-137176508D01*
X172499999Y-137176504D01*
X172461572Y-136983318D01*
X172461569Y-136983306D01*
X172386192Y-136801328D01*
X172386185Y-136801315D01*
X172276751Y-136637537D01*
X172276748Y-136637533D01*
X172137466Y-136498251D01*
X172137462Y-136498248D01*
X171973684Y-136388814D01*
X171973671Y-136388807D01*
X171791691Y-136313429D01*
X171791683Y-136313427D01*
X171750000Y-136305135D01*
X171750000Y-137108011D01*
X171740060Y-137090795D01*
X171684205Y-137034940D01*
X171615796Y-136995444D01*
X171539496Y-136975000D01*
X171460504Y-136975000D01*
X171384204Y-136995444D01*
X171315795Y-137034940D01*
X171259940Y-137090795D01*
X171250000Y-137108011D01*
X171250000Y-136731418D01*
X171269685Y-136664379D01*
X171278146Y-136652754D01*
X171280725Y-136649609D01*
X171280730Y-136649605D01*
X171379279Y-136502117D01*
X171447160Y-136338236D01*
X171452095Y-136313429D01*
X171470222Y-136222297D01*
X171470222Y-136222296D01*
X171481766Y-136164263D01*
X171481766Y-135986876D01*
X171481765Y-135986874D01*
X171447162Y-135812911D01*
X171447159Y-135812902D01*
X171379282Y-135649029D01*
X171379275Y-135649016D01*
X171280730Y-135501535D01*
X171280727Y-135501531D01*
X171155304Y-135376108D01*
X171155300Y-135376105D01*
X171007810Y-135277555D01*
X170911969Y-135237857D01*
X170910583Y-135236740D01*
X170908822Y-135236502D01*
X170883488Y-135214905D01*
X170857566Y-135194016D01*
X170856572Y-135191960D01*
X170855651Y-135191175D01*
X170852697Y-135183944D01*
X170840731Y-135159190D01*
X170838983Y-135153410D01*
X170815894Y-135037334D01*
X170771381Y-134929870D01*
X170769603Y-134923989D01*
X170769368Y-134894953D01*
X170766264Y-134866078D01*
X170769089Y-134860432D01*
X170769039Y-134854121D01*
X170784542Y-134829563D01*
X170797540Y-134803599D01*
X170802967Y-134800378D01*
X170806338Y-134795040D01*
X170832658Y-134782762D01*
X170857629Y-134767947D01*
X170863936Y-134768172D01*
X170869657Y-134765504D01*
X170898431Y-134769404D01*
X170927454Y-134770441D01*
X170935640Y-134774448D01*
X170938894Y-134774889D01*
X170942065Y-134777592D01*
X170957185Y-134784993D01*
X171026316Y-134831185D01*
X171026328Y-134831192D01*
X171208308Y-134906569D01*
X171250000Y-134914862D01*
X171250000Y-134111988D01*
X171259940Y-134129205D01*
X171315795Y-134185060D01*
X171384204Y-134224556D01*
X171460504Y-134245000D01*
X171539496Y-134245000D01*
X171615796Y-134224556D01*
X171684205Y-134185060D01*
X171740060Y-134129205D01*
X171750000Y-134111988D01*
X171750000Y-134914862D01*
X171791690Y-134906569D01*
X171791692Y-134906569D01*
X171973671Y-134831192D01*
X171973684Y-134831185D01*
X172137462Y-134721751D01*
X172137466Y-134721748D01*
X172276748Y-134582466D01*
X172276751Y-134582462D01*
X172386185Y-134418684D01*
X172386192Y-134418671D01*
X172461569Y-134236693D01*
X172461572Y-134236681D01*
X172499999Y-134043495D01*
X172500000Y-134043492D01*
X172500000Y-133645000D01*
X171800000Y-133645000D01*
X171800000Y-133145000D01*
X172500000Y-133145000D01*
X172500000Y-132746508D01*
X172499999Y-132746504D01*
X172461572Y-132553318D01*
X172461569Y-132553306D01*
X172386192Y-132371328D01*
X172386185Y-132371315D01*
X172276751Y-132207537D01*
X172276748Y-132207533D01*
X172137466Y-132068251D01*
X172137462Y-132068248D01*
X171973684Y-131958814D01*
X171973671Y-131958807D01*
X171791691Y-131883429D01*
X171791683Y-131883427D01*
X171750000Y-131875135D01*
X171750000Y-132678011D01*
X171740060Y-132660795D01*
X171684205Y-132604940D01*
X171615796Y-132565444D01*
X171539496Y-132545000D01*
X171460504Y-132545000D01*
X171384204Y-132565444D01*
X171315795Y-132604940D01*
X171259940Y-132660795D01*
X171250000Y-132678011D01*
X171250000Y-131875136D01*
X171249999Y-131875135D01*
X171208316Y-131883427D01*
X171208308Y-131883429D01*
X171026328Y-131958807D01*
X171026315Y-131958814D01*
X170862537Y-132068248D01*
X170862533Y-132068251D01*
X170723251Y-132207533D01*
X170723248Y-132207537D01*
X170613814Y-132371315D01*
X170613807Y-132371328D01*
X170538430Y-132553306D01*
X170538427Y-132553318D01*
X170500000Y-132746504D01*
X170500000Y-133145000D01*
X171200000Y-133145000D01*
X171200000Y-133645000D01*
X170661784Y-133645000D01*
X170594745Y-133625315D01*
X170554397Y-133583000D01*
X170530515Y-133541635D01*
X170423365Y-133434485D01*
X170357750Y-133396602D01*
X170292136Y-133358719D01*
X170200266Y-133334103D01*
X170145766Y-133319500D01*
X169994234Y-133319500D01*
X169847863Y-133358719D01*
X169716635Y-133434485D01*
X169716632Y-133434487D01*
X169609487Y-133541632D01*
X169609485Y-133541635D01*
X169533719Y-133672863D01*
X169494500Y-133819234D01*
X169494500Y-133865848D01*
X169474815Y-133932887D01*
X169422011Y-133978642D01*
X169352853Y-133988586D01*
X169289297Y-133959561D01*
X169255939Y-133913300D01*
X169198016Y-133773459D01*
X169198009Y-133773446D01*
X169099464Y-133625965D01*
X169099461Y-133625961D01*
X168974038Y-133500538D01*
X168974034Y-133500535D01*
X168826553Y-133401990D01*
X168826540Y-133401983D01*
X168662667Y-133334106D01*
X168662658Y-133334103D01*
X168488694Y-133299500D01*
X168488691Y-133299500D01*
X168311309Y-133299500D01*
X168311306Y-133299500D01*
X168137341Y-133334103D01*
X168137332Y-133334106D01*
X167973459Y-133401983D01*
X167973446Y-133401990D01*
X167825965Y-133500535D01*
X167825961Y-133500538D01*
X167700538Y-133625961D01*
X167700535Y-133625965D01*
X167601990Y-133773446D01*
X167601983Y-133773459D01*
X167534106Y-133937332D01*
X167534103Y-133937341D01*
X167499500Y-134111304D01*
X167499500Y-134288695D01*
X167534103Y-134462658D01*
X167534106Y-134462667D01*
X167601984Y-134626542D01*
X167601985Y-134626543D01*
X167601987Y-134626547D01*
X167658622Y-134711306D01*
X167678602Y-134741208D01*
X167683412Y-134754544D01*
X167690243Y-134763088D01*
X167694751Y-134785982D01*
X167698840Y-134797319D01*
X167699500Y-134803688D01*
X167699500Y-134914069D01*
X167722246Y-135028416D01*
X167723373Y-135034082D01*
X167724499Y-135039745D01*
X167773533Y-135158125D01*
X167809796Y-135212396D01*
X167834563Y-135249464D01*
X167844726Y-135264673D01*
X167867872Y-135287819D01*
X167878484Y-135307255D01*
X167892985Y-135323989D01*
X167894901Y-135337320D01*
X167901357Y-135349142D01*
X167899777Y-135371228D01*
X167902929Y-135393147D01*
X167897333Y-135405398D01*
X167896373Y-135418834D01*
X167883102Y-135436560D01*
X167873904Y-135456703D01*
X167862572Y-135463985D01*
X167854501Y-135474767D01*
X167833755Y-135482504D01*
X167815126Y-135494477D01*
X167793207Y-135497628D01*
X167789037Y-135499184D01*
X167780191Y-135499500D01*
X167745808Y-135499500D01*
X167678769Y-135479815D01*
X167658127Y-135463181D01*
X167099266Y-134904320D01*
X167065781Y-134842997D01*
X167070765Y-134773305D01*
X167083843Y-134747752D01*
X167098013Y-134726547D01*
X167165894Y-134562666D01*
X167166557Y-134559337D01*
X167189236Y-134445320D01*
X167200500Y-134388691D01*
X167200500Y-134211309D01*
X167200500Y-134211306D01*
X167200499Y-134211304D01*
X167165896Y-134037341D01*
X167165893Y-134037332D01*
X167163071Y-134030520D01*
X167124473Y-133937334D01*
X167098016Y-133873459D01*
X167098009Y-133873446D01*
X166999464Y-133725965D01*
X166999461Y-133725961D01*
X166874038Y-133600538D01*
X166874034Y-133600535D01*
X166726553Y-133501990D01*
X166726540Y-133501983D01*
X166562667Y-133434106D01*
X166562658Y-133434103D01*
X166388694Y-133399500D01*
X166388691Y-133399500D01*
X166211309Y-133399500D01*
X166211306Y-133399500D01*
X166037341Y-133434103D01*
X166037332Y-133434106D01*
X165873459Y-133501983D01*
X165873446Y-133501990D01*
X165725965Y-133600535D01*
X165725961Y-133600538D01*
X165600538Y-133725961D01*
X165600535Y-133725965D01*
X165501990Y-133873446D01*
X165501983Y-133873459D01*
X165434106Y-134037332D01*
X165434103Y-134037341D01*
X165399500Y-134211304D01*
X165399500Y-134388695D01*
X165434103Y-134562658D01*
X165434106Y-134562667D01*
X165501983Y-134726540D01*
X165501990Y-134726553D01*
X165600534Y-134874033D01*
X165600535Y-134874034D01*
X165600536Y-134874035D01*
X165613180Y-134886679D01*
X165625675Y-134909562D01*
X165641421Y-134930336D01*
X165643648Y-134942475D01*
X165646665Y-134947999D01*
X165649129Y-134964778D01*
X165649500Y-134969564D01*
X165649500Y-135089069D01*
X165663237Y-135158127D01*
X165664677Y-135165369D01*
X165664678Y-135165374D01*
X165674497Y-135214736D01*
X165674499Y-135214744D01*
X165688880Y-135249464D01*
X165723535Y-135333127D01*
X165778839Y-135415896D01*
X165794726Y-135439673D01*
X167010327Y-136655274D01*
X167010330Y-136655276D01*
X167067067Y-136693186D01*
X167116873Y-136726465D01*
X167235256Y-136775501D01*
X167235260Y-136775501D01*
X167235261Y-136775502D01*
X167360928Y-136800500D01*
X167360931Y-136800500D01*
X170007728Y-136800500D01*
X170074767Y-136820185D01*
X170076567Y-136821363D01*
X170154719Y-136873583D01*
X170154721Y-136873584D01*
X170154725Y-136873586D01*
X170277629Y-136924493D01*
X170318600Y-136941464D01*
X170318602Y-136941464D01*
X170318607Y-136941466D01*
X170416451Y-136960928D01*
X170478362Y-136993312D01*
X170512936Y-137054028D01*
X170513878Y-137106734D01*
X170500000Y-137176509D01*
X170500000Y-137325000D01*
X171200000Y-137325000D01*
X171200000Y-137825000D01*
X170500000Y-137825000D01*
X170500000Y-137973495D01*
X170538427Y-138166681D01*
X170538430Y-138166693D01*
X170613807Y-138348671D01*
X170613814Y-138348684D01*
X170723248Y-138512462D01*
X170723251Y-138512466D01*
X170862533Y-138651748D01*
X170862537Y-138651751D01*
X171026315Y-138761185D01*
X171031692Y-138764059D01*
X171031059Y-138765243D01*
X171080121Y-138804780D01*
X171102186Y-138871074D01*
X171084907Y-138938773D01*
X171033770Y-138986384D01*
X170978265Y-138999500D01*
X163381735Y-138999500D01*
X163314696Y-138979815D01*
X163268941Y-138927011D01*
X163258997Y-138857853D01*
X163288022Y-138794297D01*
X163328766Y-138764916D01*
X163328308Y-138764059D01*
X163333684Y-138761185D01*
X163497462Y-138651751D01*
X163497466Y-138651748D01*
X163636748Y-138512466D01*
X163636751Y-138512462D01*
X163746185Y-138348684D01*
X163746192Y-138348671D01*
X163821569Y-138166693D01*
X163821572Y-138166681D01*
X163859999Y-137973495D01*
X163860000Y-137973492D01*
X163860000Y-137825000D01*
X163160000Y-137825000D01*
X163160000Y-137325000D01*
X163860000Y-137325000D01*
X163860000Y-137176508D01*
X163859999Y-137176504D01*
X163821572Y-136983318D01*
X163821569Y-136983306D01*
X163746192Y-136801328D01*
X163746185Y-136801315D01*
X163636751Y-136637537D01*
X163636748Y-136637533D01*
X163497466Y-136498251D01*
X163497462Y-136498248D01*
X163333684Y-136388814D01*
X163333671Y-136388807D01*
X163151691Y-136313429D01*
X163151683Y-136313427D01*
X163110000Y-136305135D01*
X163110000Y-137108011D01*
X163100060Y-137090795D01*
X163044205Y-137034940D01*
X162975796Y-136995444D01*
X162899496Y-136975000D01*
X162820504Y-136975000D01*
X162744204Y-136995444D01*
X162675795Y-137034940D01*
X162619940Y-137090795D01*
X162610000Y-137108011D01*
X162610000Y-136305136D01*
X162609999Y-136305135D01*
X162568316Y-136313427D01*
X162568308Y-136313429D01*
X162386328Y-136388807D01*
X162386315Y-136388814D01*
X162222537Y-136498248D01*
X162222533Y-136498251D01*
X162083251Y-136637533D01*
X162083248Y-136637537D01*
X161973814Y-136801315D01*
X161973807Y-136801328D01*
X161898430Y-136983306D01*
X161898427Y-136983318D01*
X161860000Y-137176504D01*
X161860000Y-137325000D01*
X162560000Y-137325000D01*
X162560000Y-137825000D01*
X161860000Y-137825000D01*
X161860000Y-137973495D01*
X161898427Y-138166681D01*
X161898430Y-138166693D01*
X161973807Y-138348671D01*
X161973814Y-138348684D01*
X162083248Y-138512462D01*
X162083251Y-138512466D01*
X162222533Y-138651748D01*
X162222537Y-138651751D01*
X162386315Y-138761185D01*
X162391692Y-138764059D01*
X162391059Y-138765243D01*
X162440121Y-138804780D01*
X162462186Y-138871074D01*
X162444907Y-138938773D01*
X162393770Y-138986384D01*
X162338265Y-138999500D01*
X93003751Y-138999500D01*
X92996264Y-138999274D01*
X92706205Y-138981728D01*
X92691340Y-138979923D01*
X92409201Y-138928219D01*
X92394663Y-138924635D01*
X92120832Y-138839306D01*
X92106831Y-138833997D01*
X91845263Y-138716275D01*
X91832004Y-138709316D01*
X91586540Y-138560928D01*
X91574217Y-138552422D01*
X91507943Y-138500500D01*
X91348426Y-138375526D01*
X91337218Y-138365596D01*
X91134403Y-138162781D01*
X91124473Y-138151573D01*
X91095867Y-138115060D01*
X90947573Y-137925776D01*
X90939075Y-137913465D01*
X90790680Y-137667989D01*
X90783727Y-137654743D01*
X90666000Y-137393163D01*
X90660693Y-137379167D01*
X90575364Y-137105336D01*
X90571780Y-137090798D01*
X90544414Y-136941466D01*
X90520075Y-136808657D01*
X90518271Y-136793794D01*
X90517164Y-136775501D01*
X90500726Y-136503736D01*
X90500500Y-136496249D01*
X90500500Y-136368872D01*
X90999500Y-136368872D01*
X90999500Y-136631127D01*
X91024551Y-136821398D01*
X91033730Y-136891116D01*
X91101602Y-137144418D01*
X91101605Y-137144428D01*
X91201953Y-137386690D01*
X91201958Y-137386700D01*
X91333075Y-137613803D01*
X91492718Y-137821851D01*
X91492726Y-137821860D01*
X91678140Y-138007274D01*
X91678148Y-138007281D01*
X91886196Y-138166924D01*
X92113299Y-138298041D01*
X92113309Y-138298046D01*
X92289202Y-138370903D01*
X92355581Y-138398398D01*
X92608884Y-138466270D01*
X92868880Y-138500500D01*
X92868887Y-138500500D01*
X93131113Y-138500500D01*
X93131120Y-138500500D01*
X93391116Y-138466270D01*
X93644419Y-138398398D01*
X93886697Y-138298043D01*
X94113803Y-138166924D01*
X94321851Y-138007282D01*
X94321855Y-138007277D01*
X94321860Y-138007274D01*
X94507274Y-137821860D01*
X94507277Y-137821855D01*
X94507282Y-137821851D01*
X94666924Y-137613803D01*
X94798043Y-137386697D01*
X94898398Y-137144419D01*
X94966270Y-136891116D01*
X95000500Y-136631120D01*
X95000500Y-136368880D01*
X94966270Y-136108884D01*
X94898398Y-135855581D01*
X94898394Y-135855571D01*
X94798046Y-135613309D01*
X94798041Y-135613299D01*
X94666924Y-135386196D01*
X94544414Y-135226540D01*
X94507282Y-135178149D01*
X94507281Y-135178148D01*
X94507274Y-135178140D01*
X94321860Y-134992726D01*
X94321851Y-134992718D01*
X94113803Y-134833075D01*
X94078345Y-134812604D01*
X93902888Y-134711304D01*
X132999500Y-134711304D01*
X132999500Y-134888695D01*
X133034103Y-135062658D01*
X133034106Y-135062667D01*
X133101983Y-135226540D01*
X133101990Y-135226553D01*
X133200535Y-135374034D01*
X133200538Y-135374038D01*
X133325961Y-135499461D01*
X133325965Y-135499464D01*
X133473446Y-135598009D01*
X133473459Y-135598016D01*
X133596363Y-135648923D01*
X133637334Y-135665894D01*
X133637336Y-135665894D01*
X133637341Y-135665896D01*
X133811304Y-135700499D01*
X133811307Y-135700500D01*
X133811309Y-135700500D01*
X133988693Y-135700500D01*
X133988694Y-135700499D01*
X134046682Y-135688964D01*
X134162658Y-135665896D01*
X134162661Y-135665894D01*
X134162666Y-135665894D01*
X134326547Y-135598013D01*
X134474035Y-135499464D01*
X134599464Y-135374035D01*
X134698013Y-135226547D01*
X134703875Y-135212396D01*
X134712664Y-135191175D01*
X134765894Y-135062666D01*
X134770454Y-135039745D01*
X134800499Y-134888695D01*
X134800500Y-134888693D01*
X134800500Y-134711306D01*
X134800499Y-134711304D01*
X134765896Y-134537341D01*
X134765893Y-134537332D01*
X134698016Y-134373459D01*
X134698009Y-134373446D01*
X134599464Y-134225965D01*
X134599461Y-134225961D01*
X134586819Y-134213319D01*
X134553334Y-134151996D01*
X134550500Y-134125638D01*
X134550500Y-127120808D01*
X134570185Y-127053769D01*
X134586819Y-127033127D01*
X135033127Y-126586819D01*
X135094450Y-126553334D01*
X135120808Y-126550500D01*
X135138693Y-126550500D01*
X135138694Y-126550499D01*
X135196682Y-126538964D01*
X135312658Y-126515896D01*
X135312661Y-126515894D01*
X135312666Y-126515894D01*
X135426683Y-126468666D01*
X135456251Y-126465487D01*
X135485422Y-126459743D01*
X135490606Y-126461794D01*
X135496152Y-126461198D01*
X135522747Y-126474510D01*
X135550391Y-126485448D01*
X135555430Y-126490870D01*
X135558631Y-126492473D01*
X135574850Y-126510892D01*
X135576080Y-126512605D01*
X135650536Y-126624035D01*
X135670324Y-126643823D01*
X135676215Y-126652025D01*
X135684567Y-126675845D01*
X135696665Y-126697999D01*
X135698579Y-126715805D01*
X135699335Y-126717959D01*
X135698974Y-126719472D01*
X135699500Y-126724361D01*
X135699500Y-127764069D01*
X135706747Y-127800499D01*
X135706747Y-127800502D01*
X135724497Y-127889736D01*
X135724499Y-127889744D01*
X135752342Y-127956964D01*
X135773535Y-128008127D01*
X135840006Y-128107609D01*
X135844726Y-128114673D01*
X135844727Y-128114674D01*
X136163181Y-128433127D01*
X136196666Y-128494450D01*
X136199500Y-128520808D01*
X136199500Y-134125638D01*
X136179815Y-134192677D01*
X136163181Y-134213319D01*
X136150538Y-134225961D01*
X136150535Y-134225965D01*
X136051990Y-134373446D01*
X136051983Y-134373459D01*
X135984106Y-134537332D01*
X135984103Y-134537341D01*
X135949500Y-134711304D01*
X135949500Y-134888695D01*
X135984103Y-135062658D01*
X135984106Y-135062667D01*
X136051983Y-135226540D01*
X136051990Y-135226553D01*
X136150535Y-135374034D01*
X136150538Y-135374038D01*
X136275961Y-135499461D01*
X136275965Y-135499464D01*
X136423446Y-135598009D01*
X136423459Y-135598016D01*
X136546363Y-135648923D01*
X136587334Y-135665894D01*
X136587336Y-135665894D01*
X136587341Y-135665896D01*
X136761304Y-135700499D01*
X136761307Y-135700500D01*
X136761309Y-135700500D01*
X136938693Y-135700500D01*
X136938694Y-135700499D01*
X136996682Y-135688964D01*
X137112658Y-135665896D01*
X137112661Y-135665894D01*
X137112666Y-135665894D01*
X137276547Y-135598013D01*
X137424035Y-135499464D01*
X137549464Y-135374035D01*
X137648013Y-135226547D01*
X137653875Y-135212396D01*
X137662664Y-135191175D01*
X137715894Y-135062666D01*
X137720454Y-135039745D01*
X137750499Y-134888695D01*
X137750500Y-134888693D01*
X137750500Y-134711306D01*
X137750499Y-134711304D01*
X137715896Y-134537341D01*
X137715893Y-134537332D01*
X137648016Y-134373459D01*
X137648009Y-134373446D01*
X137549464Y-134225965D01*
X137549461Y-134225961D01*
X137536819Y-134213319D01*
X137503334Y-134151996D01*
X137500500Y-134125638D01*
X137500500Y-128135928D01*
X137475502Y-128010261D01*
X137475501Y-128010260D01*
X137475501Y-128010256D01*
X137426465Y-127891873D01*
X137397159Y-127848013D01*
X137397159Y-127848012D01*
X137355275Y-127785328D01*
X137036819Y-127466872D01*
X137003334Y-127405549D01*
X137000500Y-127379191D01*
X137000500Y-126724361D01*
X137020185Y-126657322D01*
X137036816Y-126636682D01*
X137049464Y-126624035D01*
X137148013Y-126476547D01*
X137215894Y-126312666D01*
X137223078Y-126276553D01*
X137250499Y-126138695D01*
X137250500Y-126138693D01*
X137250500Y-125961306D01*
X137250499Y-125961304D01*
X137215896Y-125787341D01*
X137215893Y-125787332D01*
X137148016Y-125623459D01*
X137148009Y-125623446D01*
X137049464Y-125475965D01*
X137049461Y-125475961D01*
X136924038Y-125350538D01*
X136924034Y-125350535D01*
X136776553Y-125251990D01*
X136776540Y-125251983D01*
X136612667Y-125184106D01*
X136612658Y-125184103D01*
X136438694Y-125149500D01*
X136438691Y-125149500D01*
X136261309Y-125149500D01*
X136261306Y-125149500D01*
X136087341Y-125184103D01*
X136087337Y-125184105D01*
X136087335Y-125184105D01*
X136087334Y-125184106D01*
X136058183Y-125196180D01*
X135973315Y-125231333D01*
X135903846Y-125238800D01*
X135841367Y-125207525D01*
X135822762Y-125185662D01*
X135749464Y-125075965D01*
X135749461Y-125075961D01*
X135624038Y-124950538D01*
X135624034Y-124950535D01*
X135476553Y-124851990D01*
X135476540Y-124851983D01*
X135312667Y-124784106D01*
X135312658Y-124784103D01*
X135138694Y-124749500D01*
X135138691Y-124749500D01*
X134961309Y-124749500D01*
X134961306Y-124749500D01*
X134787341Y-124784103D01*
X134787332Y-124784106D01*
X134623459Y-124851983D01*
X134623446Y-124851990D01*
X134475965Y-124950535D01*
X134475961Y-124950538D01*
X134350538Y-125075961D01*
X134350535Y-125075965D01*
X134251990Y-125223446D01*
X134251983Y-125223459D01*
X134184106Y-125387332D01*
X134184103Y-125387341D01*
X134149500Y-125561304D01*
X134149500Y-125579191D01*
X134129815Y-125646230D01*
X134113181Y-125666872D01*
X133394727Y-126385325D01*
X133394724Y-126385328D01*
X133352840Y-126448012D01*
X133352841Y-126448013D01*
X133323534Y-126491874D01*
X133274499Y-126610255D01*
X133274497Y-126610261D01*
X133249500Y-126735928D01*
X133249500Y-134125638D01*
X133229815Y-134192677D01*
X133213181Y-134213319D01*
X133200538Y-134225961D01*
X133200535Y-134225965D01*
X133101990Y-134373446D01*
X133101983Y-134373459D01*
X133034106Y-134537332D01*
X133034103Y-134537341D01*
X132999500Y-134711304D01*
X93902888Y-134711304D01*
X93886700Y-134701958D01*
X93886690Y-134701953D01*
X93644428Y-134601605D01*
X93644421Y-134601603D01*
X93644419Y-134601602D01*
X93391116Y-134533730D01*
X93333339Y-134526123D01*
X93131127Y-134499500D01*
X93131120Y-134499500D01*
X92868880Y-134499500D01*
X92868872Y-134499500D01*
X92637772Y-134529926D01*
X92608884Y-134533730D01*
X92427013Y-134582462D01*
X92355581Y-134601602D01*
X92355571Y-134601605D01*
X92113309Y-134701953D01*
X92113299Y-134701958D01*
X91886196Y-134833075D01*
X91678148Y-134992718D01*
X91492718Y-135178148D01*
X91333075Y-135386196D01*
X91201958Y-135613299D01*
X91201953Y-135613309D01*
X91101605Y-135855571D01*
X91101602Y-135855581D01*
X91033730Y-136108885D01*
X90999500Y-136368872D01*
X90500500Y-136368872D01*
X90500500Y-126971213D01*
X92962000Y-126971213D01*
X92962000Y-127183786D01*
X92995253Y-127393739D01*
X93060944Y-127595914D01*
X93157451Y-127785320D01*
X93282390Y-127957286D01*
X93432713Y-128107609D01*
X93604679Y-128232548D01*
X93604681Y-128232549D01*
X93604684Y-128232551D01*
X93794088Y-128329057D01*
X93996257Y-128394746D01*
X94206213Y-128428000D01*
X94206214Y-128428000D01*
X94718786Y-128428000D01*
X94718787Y-128428000D01*
X94928743Y-128394746D01*
X95130912Y-128329057D01*
X95320316Y-128232551D01*
X95354378Y-128207804D01*
X95492286Y-128107609D01*
X95492288Y-128107606D01*
X95492292Y-128107604D01*
X95642604Y-127957292D01*
X95642606Y-127957288D01*
X95642609Y-127957286D01*
X95767548Y-127785320D01*
X95767547Y-127785320D01*
X95767551Y-127785316D01*
X95864057Y-127595912D01*
X95929746Y-127393743D01*
X95963000Y-127183787D01*
X95963000Y-126971213D01*
X95963000Y-126971212D01*
X95949181Y-126883961D01*
X95940238Y-126827500D01*
X107985269Y-126827500D01*
X109029488Y-126827500D01*
X108996575Y-126884507D01*
X108962500Y-127011674D01*
X108962500Y-127143326D01*
X108996575Y-127270493D01*
X109029488Y-127327500D01*
X107985269Y-127327500D01*
X107995742Y-127393626D01*
X107995742Y-127393629D01*
X108061404Y-127595717D01*
X108157879Y-127785057D01*
X108282772Y-127956959D01*
X108282776Y-127956964D01*
X108433035Y-128107223D01*
X108433040Y-128107227D01*
X108604942Y-128232120D01*
X108794282Y-128328595D01*
X108996370Y-128394257D01*
X109206254Y-128427500D01*
X109212500Y-128427500D01*
X109212500Y-127510512D01*
X109269507Y-127543425D01*
X109396674Y-127577500D01*
X109528326Y-127577500D01*
X109655493Y-127543425D01*
X109712500Y-127510512D01*
X109712500Y-128427500D01*
X109718746Y-128427500D01*
X109928627Y-128394257D01*
X109928630Y-128394257D01*
X110130717Y-128328595D01*
X110320057Y-128232120D01*
X110491959Y-128107227D01*
X110491964Y-128107223D01*
X110642223Y-127956964D01*
X110642227Y-127956959D01*
X110767120Y-127785057D01*
X110863595Y-127595717D01*
X110929257Y-127393629D01*
X110929257Y-127393626D01*
X110939731Y-127327500D01*
X109895512Y-127327500D01*
X109928425Y-127270493D01*
X109962500Y-127143326D01*
X109962500Y-127011674D01*
X109928425Y-126884507D01*
X109895512Y-126827500D01*
X110939731Y-126827500D01*
X110929257Y-126761373D01*
X110929257Y-126761370D01*
X110863595Y-126559282D01*
X110767120Y-126369942D01*
X110642227Y-126198040D01*
X110642223Y-126198035D01*
X110491964Y-126047776D01*
X110491959Y-126047772D01*
X110320057Y-125922879D01*
X110130717Y-125826404D01*
X109928629Y-125760742D01*
X109718746Y-125727500D01*
X109712500Y-125727500D01*
X109712500Y-126644488D01*
X109655493Y-126611575D01*
X109528326Y-126577500D01*
X109396674Y-126577500D01*
X109269507Y-126611575D01*
X109212500Y-126644488D01*
X109212500Y-125727500D01*
X109206254Y-125727500D01*
X108996372Y-125760742D01*
X108996369Y-125760742D01*
X108794282Y-125826404D01*
X108604942Y-125922879D01*
X108433040Y-126047772D01*
X108433035Y-126047776D01*
X108282776Y-126198035D01*
X108282772Y-126198040D01*
X108157879Y-126369942D01*
X108061404Y-126559282D01*
X107995742Y-126761370D01*
X107995742Y-126761373D01*
X107985269Y-126827500D01*
X95940238Y-126827500D01*
X95933612Y-126785665D01*
X95929746Y-126761257D01*
X95864057Y-126559088D01*
X95767551Y-126369684D01*
X95767549Y-126369681D01*
X95767548Y-126369679D01*
X95642609Y-126197713D01*
X95492286Y-126047390D01*
X95320320Y-125922451D01*
X95130914Y-125825944D01*
X95130913Y-125825943D01*
X95130912Y-125825943D01*
X94928743Y-125760254D01*
X94928741Y-125760253D01*
X94928740Y-125760253D01*
X94767457Y-125734708D01*
X94718787Y-125727000D01*
X94206213Y-125727000D01*
X94157542Y-125734708D01*
X93996260Y-125760253D01*
X93794085Y-125825944D01*
X93604679Y-125922451D01*
X93432713Y-126047390D01*
X93282390Y-126197713D01*
X93157451Y-126369679D01*
X93060944Y-126559085D01*
X93060943Y-126559087D01*
X93060943Y-126559088D01*
X93039841Y-126624033D01*
X92995253Y-126761260D01*
X92962000Y-126971213D01*
X90500500Y-126971213D01*
X90500500Y-122461304D01*
X127099500Y-122461304D01*
X127099500Y-122638695D01*
X127134103Y-122812658D01*
X127134106Y-122812667D01*
X127201983Y-122976540D01*
X127201990Y-122976553D01*
X127300535Y-123124034D01*
X127300538Y-123124038D01*
X127425961Y-123249461D01*
X127425965Y-123249464D01*
X127573446Y-123348009D01*
X127573459Y-123348016D01*
X127696363Y-123398923D01*
X127737334Y-123415894D01*
X127737336Y-123415894D01*
X127737341Y-123415896D01*
X127911304Y-123450499D01*
X127911307Y-123450500D01*
X127911309Y-123450500D01*
X128088693Y-123450500D01*
X128088694Y-123450499D01*
X128146682Y-123438964D01*
X128262658Y-123415896D01*
X128262661Y-123415894D01*
X128262666Y-123415894D01*
X128426547Y-123348013D01*
X128574035Y-123249464D01*
X128699464Y-123124035D01*
X128798013Y-122976547D01*
X128865894Y-122812666D01*
X128874339Y-122770213D01*
X128891027Y-122686314D01*
X128900500Y-122638691D01*
X128900500Y-122461309D01*
X128900500Y-122461306D01*
X128900499Y-122461304D01*
X128865896Y-122287341D01*
X128865893Y-122287332D01*
X128837774Y-122219446D01*
X128798013Y-122123453D01*
X128798011Y-122123451D01*
X128798011Y-122123449D01*
X128771398Y-122083620D01*
X128750520Y-122016942D01*
X128750500Y-122014729D01*
X128750500Y-120311304D01*
X138099500Y-120311304D01*
X138099500Y-120488695D01*
X138134103Y-120662658D01*
X138134106Y-120662667D01*
X138201983Y-120826540D01*
X138201990Y-120826553D01*
X138300534Y-120974033D01*
X138300535Y-120974034D01*
X138300536Y-120974035D01*
X138362895Y-121036394D01*
X138389773Y-121076620D01*
X138423533Y-121158124D01*
X138423534Y-121158126D01*
X138423535Y-121158127D01*
X138459754Y-121212334D01*
X138494726Y-121264673D01*
X138494727Y-121264674D01*
X139413181Y-122183127D01*
X139446666Y-122244450D01*
X139449500Y-122270808D01*
X139449500Y-133875638D01*
X139429815Y-133942677D01*
X139413181Y-133963319D01*
X139400538Y-133975961D01*
X139400535Y-133975965D01*
X139301990Y-134123446D01*
X139301983Y-134123459D01*
X139234106Y-134287332D01*
X139234103Y-134287341D01*
X139199500Y-134461304D01*
X139199500Y-134638695D01*
X139234103Y-134812658D01*
X139234106Y-134812667D01*
X139301983Y-134976540D01*
X139301990Y-134976553D01*
X139400535Y-135124034D01*
X139400538Y-135124038D01*
X139525961Y-135249461D01*
X139525965Y-135249464D01*
X139673446Y-135348009D01*
X139673459Y-135348016D01*
X139741276Y-135376106D01*
X139837334Y-135415894D01*
X139837336Y-135415894D01*
X139837341Y-135415896D01*
X140011304Y-135450499D01*
X140011307Y-135450500D01*
X140011309Y-135450500D01*
X140188693Y-135450500D01*
X140188694Y-135450499D01*
X140258772Y-135436560D01*
X140362658Y-135415896D01*
X140362661Y-135415894D01*
X140362666Y-135415894D01*
X140502535Y-135357958D01*
X140526540Y-135348016D01*
X140526540Y-135348015D01*
X140526547Y-135348013D01*
X140674035Y-135249464D01*
X140799464Y-135124035D01*
X140898013Y-134976547D01*
X140965894Y-134812666D01*
X140965907Y-134812604D01*
X141000499Y-134638695D01*
X141000500Y-134638693D01*
X141000500Y-134461306D01*
X141000499Y-134461304D01*
X140965896Y-134287341D01*
X140965893Y-134287332D01*
X140898016Y-134123459D01*
X140898009Y-134123446D01*
X140799464Y-133975965D01*
X140799461Y-133975961D01*
X140786819Y-133963319D01*
X140753334Y-133901996D01*
X140750500Y-133875638D01*
X140750500Y-121885928D01*
X140725502Y-121760261D01*
X140725501Y-121760260D01*
X140725501Y-121760256D01*
X140676465Y-121641873D01*
X140605277Y-121535331D01*
X140605275Y-121535329D01*
X140605273Y-121535326D01*
X140537845Y-121467898D01*
X140456251Y-121386304D01*
X141024500Y-121386304D01*
X141024500Y-121563695D01*
X141059103Y-121737658D01*
X141059106Y-121737667D01*
X141126983Y-121901540D01*
X141126990Y-121901553D01*
X141225535Y-122049034D01*
X141225538Y-122049038D01*
X141350961Y-122174461D01*
X141350965Y-122174464D01*
X141498446Y-122273009D01*
X141498459Y-122273016D01*
X141579064Y-122306403D01*
X141662334Y-122340894D01*
X141662336Y-122340894D01*
X141662341Y-122340896D01*
X141836304Y-122375499D01*
X141836307Y-122375500D01*
X141836309Y-122375500D01*
X141854192Y-122375500D01*
X141921231Y-122395185D01*
X141941873Y-122411819D01*
X142463181Y-122933127D01*
X142496666Y-122994450D01*
X142499500Y-123020808D01*
X142499500Y-133675638D01*
X142479815Y-133742677D01*
X142463181Y-133763319D01*
X142450538Y-133775961D01*
X142450535Y-133775965D01*
X142351990Y-133923446D01*
X142351983Y-133923459D01*
X142284106Y-134087332D01*
X142284103Y-134087341D01*
X142249500Y-134261304D01*
X142249500Y-134438695D01*
X142284103Y-134612658D01*
X142284106Y-134612667D01*
X142351983Y-134776540D01*
X142351990Y-134776553D01*
X142450535Y-134924034D01*
X142450538Y-134924038D01*
X142575961Y-135049461D01*
X142575965Y-135049464D01*
X142723446Y-135148009D01*
X142723459Y-135148016D01*
X142834515Y-135194016D01*
X142887334Y-135215894D01*
X142887336Y-135215894D01*
X142887341Y-135215896D01*
X143061304Y-135250499D01*
X143061307Y-135250500D01*
X143061309Y-135250500D01*
X143238693Y-135250500D01*
X143238694Y-135250499D01*
X143309063Y-135236502D01*
X143412658Y-135215896D01*
X143412661Y-135215894D01*
X143412666Y-135215894D01*
X143576547Y-135148013D01*
X143724035Y-135049464D01*
X143849464Y-134924035D01*
X143948013Y-134776547D01*
X143948883Y-134774448D01*
X143968725Y-134726544D01*
X144015894Y-134612666D01*
X144018095Y-134601605D01*
X144046001Y-134461309D01*
X144050500Y-134438691D01*
X144050500Y-134261309D01*
X144050500Y-134261306D01*
X144050499Y-134261304D01*
X144015896Y-134087341D01*
X144015893Y-134087332D01*
X144009467Y-134071819D01*
X143994424Y-134035500D01*
X143948016Y-133923459D01*
X143948009Y-133923446D01*
X143849464Y-133775965D01*
X143849461Y-133775961D01*
X143836819Y-133763319D01*
X143803334Y-133701996D01*
X143800500Y-133675638D01*
X143800500Y-129513362D01*
X143820185Y-129446323D01*
X143872989Y-129400568D01*
X143942147Y-129390624D01*
X144005703Y-129419649D01*
X144012181Y-129425681D01*
X144085961Y-129499461D01*
X144085965Y-129499464D01*
X144233446Y-129598009D01*
X144233459Y-129598016D01*
X144338086Y-129641353D01*
X144397334Y-129665894D01*
X144397336Y-129665894D01*
X144397341Y-129665896D01*
X144571304Y-129700499D01*
X144571307Y-129700500D01*
X144571309Y-129700500D01*
X144748693Y-129700500D01*
X144748694Y-129700499D01*
X144831124Y-129684103D01*
X144922658Y-129665896D01*
X144922661Y-129665894D01*
X144922666Y-129665894D01*
X145086547Y-129598013D01*
X145234035Y-129499464D01*
X145359464Y-129374035D01*
X145458013Y-129226547D01*
X145525894Y-129062666D01*
X145530932Y-129037341D01*
X145560499Y-128888695D01*
X145560500Y-128888693D01*
X145560500Y-128870808D01*
X145567489Y-128847004D01*
X145570355Y-128822364D01*
X145578094Y-128810888D01*
X145580185Y-128803769D01*
X145588626Y-128792168D01*
X145592495Y-128787450D01*
X145655277Y-128724669D01*
X145704859Y-128650462D01*
X145708707Y-128645772D01*
X145732758Y-128629380D01*
X145755090Y-128610717D01*
X145761284Y-128609938D01*
X145766443Y-128606423D01*
X145795539Y-128605636D01*
X145824415Y-128602009D01*
X145833566Y-128604607D01*
X145836287Y-128604534D01*
X145838921Y-128606127D01*
X145852032Y-128609850D01*
X145987334Y-128665894D01*
X145987336Y-128665894D01*
X145987341Y-128665896D01*
X146161304Y-128700499D01*
X146161307Y-128700500D01*
X146161309Y-128700500D01*
X146338693Y-128700500D01*
X146338694Y-128700499D01*
X146396682Y-128688964D01*
X146512658Y-128665896D01*
X146512661Y-128665894D01*
X146512666Y-128665894D01*
X146676547Y-128598013D01*
X146824035Y-128499464D01*
X146829049Y-128494450D01*
X146836681Y-128486819D01*
X146898004Y-128453334D01*
X146924362Y-128450500D01*
X149176638Y-128450500D01*
X149243677Y-128470185D01*
X149289432Y-128522989D01*
X149299376Y-128592147D01*
X149270351Y-128655703D01*
X149264319Y-128662181D01*
X149200538Y-128725961D01*
X149200535Y-128725965D01*
X149101990Y-128873446D01*
X149101983Y-128873459D01*
X149034106Y-129037332D01*
X149034103Y-129037341D01*
X148999500Y-129211304D01*
X148999500Y-129388695D01*
X149034103Y-129562658D01*
X149034106Y-129562667D01*
X149101983Y-129726540D01*
X149101990Y-129726553D01*
X149203920Y-129879100D01*
X149202131Y-129880295D01*
X149225635Y-129935672D01*
X149213829Y-130004537D01*
X149203495Y-130020616D01*
X149203920Y-130020900D01*
X149101990Y-130173446D01*
X149101983Y-130173459D01*
X149034106Y-130337332D01*
X149034103Y-130337341D01*
X148999500Y-130511304D01*
X148999500Y-130688695D01*
X149034103Y-130862658D01*
X149034106Y-130862667D01*
X149101983Y-131026540D01*
X149101990Y-131026553D01*
X149200535Y-131174034D01*
X149200538Y-131174038D01*
X149325961Y-131299461D01*
X149325965Y-131299464D01*
X149473446Y-131398009D01*
X149473459Y-131398016D01*
X149596363Y-131448923D01*
X149637334Y-131465894D01*
X149637336Y-131465894D01*
X149637341Y-131465896D01*
X149811304Y-131500499D01*
X149811307Y-131500500D01*
X149811309Y-131500500D01*
X149988693Y-131500500D01*
X149988694Y-131500499D01*
X150089137Y-131480520D01*
X150162658Y-131465896D01*
X150162661Y-131465894D01*
X150162666Y-131465894D01*
X150326547Y-131398013D01*
X150474035Y-131299464D01*
X150474038Y-131299461D01*
X150486681Y-131286819D01*
X150548004Y-131253334D01*
X150574362Y-131250500D01*
X160332704Y-131250500D01*
X160399743Y-131270185D01*
X160445498Y-131322989D01*
X160455442Y-131392147D01*
X160426417Y-131455703D01*
X160420385Y-131462181D01*
X160234097Y-131648469D01*
X159882501Y-132000064D01*
X159882498Y-132000067D01*
X159319386Y-132563181D01*
X159258063Y-132596666D01*
X159231705Y-132599500D01*
X155824361Y-132599500D01*
X155757322Y-132579815D01*
X155736684Y-132563185D01*
X155674035Y-132500536D01*
X155674034Y-132500535D01*
X155674033Y-132500534D01*
X155526553Y-132401990D01*
X155526540Y-132401983D01*
X155362667Y-132334106D01*
X155362658Y-132334103D01*
X155188694Y-132299500D01*
X155188691Y-132299500D01*
X155011309Y-132299500D01*
X155011306Y-132299500D01*
X154837341Y-132334103D01*
X154837332Y-132334106D01*
X154682445Y-132398262D01*
X154612976Y-132405731D01*
X154566102Y-132386803D01*
X154491552Y-132336990D01*
X154491540Y-132336983D01*
X154327667Y-132269106D01*
X154327658Y-132269103D01*
X154153694Y-132234500D01*
X154153691Y-132234500D01*
X153976309Y-132234500D01*
X153976306Y-132234500D01*
X153802341Y-132269103D01*
X153802332Y-132269106D01*
X153638459Y-132336983D01*
X153638446Y-132336990D01*
X153490965Y-132435535D01*
X153490961Y-132435538D01*
X153365538Y-132560961D01*
X153365535Y-132560965D01*
X153266990Y-132708446D01*
X153266983Y-132708459D01*
X153199106Y-132872332D01*
X153199103Y-132872341D01*
X153164500Y-133046304D01*
X153164500Y-133223695D01*
X153199103Y-133397658D01*
X153199106Y-133397667D01*
X153266983Y-133561540D01*
X153266990Y-133561553D01*
X153365535Y-133709034D01*
X153365538Y-133709038D01*
X153490961Y-133834461D01*
X153490965Y-133834464D01*
X153638446Y-133933009D01*
X153638459Y-133933016D01*
X153742140Y-133975961D01*
X153802334Y-134000894D01*
X153802336Y-134000894D01*
X153802341Y-134000896D01*
X153976304Y-134035499D01*
X153976307Y-134035500D01*
X153976309Y-134035500D01*
X153992802Y-134035500D01*
X154059841Y-134055185D01*
X154080483Y-134071819D01*
X154390184Y-134381520D01*
X154527115Y-134460577D01*
X154679843Y-134501501D01*
X154679846Y-134501501D01*
X154845554Y-134501501D01*
X154845570Y-134501500D01*
X155303695Y-134501500D01*
X155303711Y-134501501D01*
X155311307Y-134501501D01*
X155469418Y-134501501D01*
X155469421Y-134501501D01*
X155622149Y-134460577D01*
X155685644Y-134423918D01*
X155759080Y-134381520D01*
X155870884Y-134269716D01*
X155870884Y-134269714D01*
X155881090Y-134259509D01*
X155881096Y-134259502D01*
X155902782Y-134237817D01*
X155964106Y-134204333D01*
X155990461Y-134201500D01*
X159611233Y-134201500D01*
X159611249Y-134201501D01*
X159618845Y-134201501D01*
X159776956Y-134201501D01*
X159776959Y-134201501D01*
X159929687Y-134160577D01*
X159976215Y-134133713D01*
X159987777Y-134127823D01*
X159996682Y-134123858D01*
X160049983Y-134109577D01*
X160115788Y-134071584D01*
X160186914Y-134030520D01*
X160298718Y-133918716D01*
X160298718Y-133918714D01*
X160308919Y-133908514D01*
X160308923Y-133908508D01*
X160411883Y-133805550D01*
X160411882Y-133805550D01*
X160811981Y-133405453D01*
X160811982Y-133405451D01*
X161145395Y-133072039D01*
X161145395Y-133072037D01*
X161162831Y-133054602D01*
X161162833Y-133054599D01*
X161360012Y-132857420D01*
X161360011Y-132857420D01*
X161667564Y-132549867D01*
X161728885Y-132516384D01*
X161798577Y-132521368D01*
X161854510Y-132563240D01*
X161878927Y-132628704D01*
X161876861Y-132661740D01*
X161860000Y-132746510D01*
X161860000Y-133145000D01*
X162560000Y-133145000D01*
X162560000Y-133645000D01*
X161860000Y-133645000D01*
X161860000Y-134043495D01*
X161898427Y-134236681D01*
X161898430Y-134236693D01*
X161973807Y-134418671D01*
X161973814Y-134418684D01*
X162083248Y-134582462D01*
X162083251Y-134582466D01*
X162222533Y-134721748D01*
X162222537Y-134721751D01*
X162386315Y-134831185D01*
X162386328Y-134831192D01*
X162568308Y-134906569D01*
X162610000Y-134914862D01*
X162610000Y-134111988D01*
X162619940Y-134129205D01*
X162675795Y-134185060D01*
X162744204Y-134224556D01*
X162820504Y-134245000D01*
X162899496Y-134245000D01*
X162975796Y-134224556D01*
X163044205Y-134185060D01*
X163100060Y-134129205D01*
X163110000Y-134111988D01*
X163110000Y-134914862D01*
X163151690Y-134906569D01*
X163151692Y-134906569D01*
X163333671Y-134831192D01*
X163333684Y-134831185D01*
X163497462Y-134721751D01*
X163497466Y-134721748D01*
X163636748Y-134582466D01*
X163636751Y-134582462D01*
X163746185Y-134418684D01*
X163746186Y-134418682D01*
X163750129Y-134409163D01*
X163793968Y-134354757D01*
X163860261Y-134332689D01*
X163927961Y-134349965D01*
X163933400Y-134353647D01*
X163936634Y-134355514D01*
X163936635Y-134355515D01*
X164067865Y-134431281D01*
X164214234Y-134470500D01*
X164214236Y-134470500D01*
X164365764Y-134470500D01*
X164365766Y-134470500D01*
X164512135Y-134431281D01*
X164643365Y-134355515D01*
X164750515Y-134248365D01*
X164826281Y-134117135D01*
X164865500Y-133970766D01*
X164865500Y-133819234D01*
X164826281Y-133672865D01*
X164750515Y-133541635D01*
X164643365Y-133434485D01*
X164577750Y-133396602D01*
X164512136Y-133358719D01*
X164420266Y-133334103D01*
X164365766Y-133319500D01*
X164214234Y-133319500D01*
X164067863Y-133358719D01*
X163936635Y-133434485D01*
X163936632Y-133434487D01*
X163829487Y-133541632D01*
X163829483Y-133541638D01*
X163805603Y-133583000D01*
X163755036Y-133631216D01*
X163698216Y-133645000D01*
X163160000Y-133645000D01*
X163160000Y-133145000D01*
X163860000Y-133145000D01*
X163860000Y-132746508D01*
X163859999Y-132746504D01*
X163821572Y-132553318D01*
X163821569Y-132553306D01*
X163746192Y-132371328D01*
X163746185Y-132371315D01*
X163636751Y-132207537D01*
X163636748Y-132207533D01*
X163497466Y-132068251D01*
X163497462Y-132068248D01*
X163333684Y-131958814D01*
X163333671Y-131958807D01*
X163151693Y-131883430D01*
X163151681Y-131883427D01*
X162964109Y-131846117D01*
X162902198Y-131813733D01*
X162867624Y-131753017D01*
X162871363Y-131683247D01*
X162912229Y-131626575D01*
X162977247Y-131600994D01*
X162988300Y-131600500D01*
X165588538Y-131600500D01*
X165655577Y-131620185D01*
X165676219Y-131636819D01*
X165770920Y-131731520D01*
X165770922Y-131731521D01*
X165770926Y-131731524D01*
X165907845Y-131810573D01*
X165907852Y-131810577D01*
X166060579Y-131851501D01*
X166060581Y-131851501D01*
X166226290Y-131851501D01*
X166226306Y-131851500D01*
X166633695Y-131851500D01*
X166633711Y-131851501D01*
X166641307Y-131851501D01*
X166799418Y-131851501D01*
X166799421Y-131851501D01*
X166952149Y-131810577D01*
X167002268Y-131781639D01*
X167089080Y-131731520D01*
X167183782Y-131636817D01*
X167210713Y-131622111D01*
X167236527Y-131605523D01*
X167242726Y-131604631D01*
X167245103Y-131603334D01*
X167271462Y-131600500D01*
X167313331Y-131600500D01*
X167313347Y-131600501D01*
X167320943Y-131600501D01*
X167479054Y-131600501D01*
X167479057Y-131600501D01*
X167631785Y-131559577D01*
X167685632Y-131528488D01*
X167768716Y-131480520D01*
X167773464Y-131475771D01*
X167786138Y-131468168D01*
X167813366Y-131461076D01*
X167839612Y-131450930D01*
X167849931Y-131450500D01*
X167938693Y-131450500D01*
X167938694Y-131450499D01*
X167996682Y-131438964D01*
X168112658Y-131415896D01*
X168112661Y-131415894D01*
X168112666Y-131415894D01*
X168276547Y-131348013D01*
X168424035Y-131249464D01*
X168549464Y-131124035D01*
X168648013Y-130976547D01*
X168715894Y-130812666D01*
X168750500Y-130638691D01*
X168750500Y-130461309D01*
X168750500Y-130461306D01*
X168750499Y-130461304D01*
X168715896Y-130287341D01*
X168715893Y-130287332D01*
X168648016Y-130123459D01*
X168648009Y-130123446D01*
X168549464Y-129975965D01*
X168549461Y-129975961D01*
X168424038Y-129850538D01*
X168424034Y-129850535D01*
X168276553Y-129751990D01*
X168276540Y-129751983D01*
X168112667Y-129684106D01*
X168112658Y-129684103D01*
X167938694Y-129649500D01*
X167938691Y-129649500D01*
X167761309Y-129649500D01*
X167761306Y-129649500D01*
X167587341Y-129684103D01*
X167587332Y-129684106D01*
X167423459Y-129751983D01*
X167423446Y-129751990D01*
X167275965Y-129850535D01*
X167275961Y-129850538D01*
X167227681Y-129898819D01*
X167225827Y-129899830D01*
X167224755Y-129901651D01*
X167195302Y-129916498D01*
X167166358Y-129932304D01*
X167164250Y-129932153D01*
X167162365Y-129933104D01*
X167129573Y-129929673D01*
X167096666Y-129927320D01*
X167094312Y-129925984D01*
X167092875Y-129925834D01*
X167086119Y-129921333D01*
X167062470Y-129907911D01*
X167057139Y-129903640D01*
X167004035Y-129850536D01*
X166924620Y-129797472D01*
X166920432Y-129794117D01*
X166903373Y-129769696D01*
X166884266Y-129746834D01*
X166883578Y-129741360D01*
X166880420Y-129736839D01*
X166879271Y-129707069D01*
X166875559Y-129677509D01*
X166877939Y-129672533D01*
X166877727Y-129667021D01*
X166892857Y-129641353D01*
X166905714Y-129614481D01*
X166910240Y-129609704D01*
X167305277Y-129214669D01*
X167376466Y-129108126D01*
X167425501Y-128989743D01*
X167437915Y-128927333D01*
X167450500Y-128864071D01*
X167450500Y-125535928D01*
X167425502Y-125410261D01*
X167425501Y-125410260D01*
X167425501Y-125410256D01*
X167420853Y-125399035D01*
X167412505Y-125378880D01*
X167405036Y-125309411D01*
X167423964Y-125262538D01*
X167448013Y-125226547D01*
X167515894Y-125062666D01*
X167529526Y-124994129D01*
X167561910Y-124932222D01*
X167622625Y-124897647D01*
X167692395Y-124901386D01*
X167725453Y-124919056D01*
X167757907Y-124943350D01*
X167757913Y-124943354D01*
X167892620Y-124993596D01*
X167892627Y-124993598D01*
X167952155Y-124999999D01*
X167952172Y-125000000D01*
X168600000Y-125000000D01*
X168600000Y-124083012D01*
X168657007Y-124115925D01*
X168784174Y-124150000D01*
X168915826Y-124150000D01*
X169042993Y-124115925D01*
X169100000Y-124083012D01*
X169100000Y-125000000D01*
X169747828Y-125000000D01*
X169747844Y-124999999D01*
X169807372Y-124993598D01*
X169807379Y-124993596D01*
X169942086Y-124943354D01*
X169942093Y-124943350D01*
X170057187Y-124857190D01*
X170057190Y-124857187D01*
X170143350Y-124742093D01*
X170143354Y-124742086D01*
X170192422Y-124610529D01*
X170234293Y-124554595D01*
X170299757Y-124530178D01*
X170368030Y-124545030D01*
X170396285Y-124566181D01*
X170510213Y-124680109D01*
X170682179Y-124805048D01*
X170682181Y-124805049D01*
X170682184Y-124805051D01*
X170871588Y-124901557D01*
X171073757Y-124967246D01*
X171283713Y-125000500D01*
X171283714Y-125000500D01*
X171496286Y-125000500D01*
X171496287Y-125000500D01*
X171706243Y-124967246D01*
X171908412Y-124901557D01*
X172097816Y-124805051D01*
X172139931Y-124774453D01*
X172269786Y-124680109D01*
X172269788Y-124680106D01*
X172269792Y-124680104D01*
X172420104Y-124529792D01*
X172420106Y-124529788D01*
X172420109Y-124529786D01*
X172545048Y-124357820D01*
X172545047Y-124357820D01*
X172545051Y-124357816D01*
X172549514Y-124349054D01*
X172597488Y-124298259D01*
X172665308Y-124281463D01*
X172731444Y-124303999D01*
X172770486Y-124349056D01*
X172774951Y-124357820D01*
X172899890Y-124529786D01*
X173050213Y-124680109D01*
X173222179Y-124805048D01*
X173222181Y-124805049D01*
X173222184Y-124805051D01*
X173411588Y-124901557D01*
X173613757Y-124967246D01*
X173823713Y-125000500D01*
X173823714Y-125000500D01*
X174036286Y-125000500D01*
X174036287Y-125000500D01*
X174246243Y-124967246D01*
X174448412Y-124901557D01*
X174637816Y-124805051D01*
X174679931Y-124774453D01*
X174809786Y-124680109D01*
X174809788Y-124680106D01*
X174809792Y-124680104D01*
X174960104Y-124529792D01*
X174960106Y-124529788D01*
X174960109Y-124529786D01*
X175085048Y-124357820D01*
X175085047Y-124357820D01*
X175085051Y-124357816D01*
X175089514Y-124349054D01*
X175137488Y-124298259D01*
X175205308Y-124281463D01*
X175271444Y-124303999D01*
X175310486Y-124349056D01*
X175314951Y-124357820D01*
X175439890Y-124529786D01*
X175590213Y-124680109D01*
X175762179Y-124805048D01*
X175762181Y-124805049D01*
X175762184Y-124805051D01*
X175951588Y-124901557D01*
X176153757Y-124967246D01*
X176363713Y-125000500D01*
X176363714Y-125000500D01*
X176576286Y-125000500D01*
X176576287Y-125000500D01*
X176786243Y-124967246D01*
X176988412Y-124901557D01*
X177177816Y-124805051D01*
X177219931Y-124774453D01*
X177349786Y-124680109D01*
X177349788Y-124680106D01*
X177349792Y-124680104D01*
X177500104Y-124529792D01*
X177500106Y-124529788D01*
X177500109Y-124529786D01*
X177625048Y-124357820D01*
X177625047Y-124357820D01*
X177625051Y-124357816D01*
X177721557Y-124168412D01*
X177787246Y-123966243D01*
X177820500Y-123756287D01*
X177820500Y-123543713D01*
X177787246Y-123333757D01*
X177721557Y-123131588D01*
X177625051Y-122942184D01*
X177625049Y-122942181D01*
X177625048Y-122942179D01*
X177500109Y-122770213D01*
X177349786Y-122619890D01*
X177177820Y-122494951D01*
X176988414Y-122398444D01*
X176988413Y-122398443D01*
X176988412Y-122398443D01*
X176786243Y-122332754D01*
X176786241Y-122332753D01*
X176786240Y-122332753D01*
X176624957Y-122307208D01*
X176576287Y-122299500D01*
X176363713Y-122299500D01*
X176315042Y-122307208D01*
X176153760Y-122332753D01*
X175951585Y-122398444D01*
X175762179Y-122494951D01*
X175590213Y-122619890D01*
X175439890Y-122770213D01*
X175314949Y-122942182D01*
X175310484Y-122950946D01*
X175262509Y-123001742D01*
X175194688Y-123018536D01*
X175128553Y-122995998D01*
X175089516Y-122950946D01*
X175085050Y-122942182D01*
X174960109Y-122770213D01*
X174809786Y-122619890D01*
X174637820Y-122494951D01*
X174448414Y-122398444D01*
X174448413Y-122398443D01*
X174448412Y-122398443D01*
X174246243Y-122332754D01*
X174246241Y-122332753D01*
X174246240Y-122332753D01*
X174084957Y-122307208D01*
X174036287Y-122299500D01*
X173823713Y-122299500D01*
X173775042Y-122307208D01*
X173613760Y-122332753D01*
X173411585Y-122398444D01*
X173222179Y-122494951D01*
X173050213Y-122619890D01*
X172899890Y-122770213D01*
X172774949Y-122942182D01*
X172770484Y-122950946D01*
X172722509Y-123001742D01*
X172654688Y-123018536D01*
X172588553Y-122995998D01*
X172549516Y-122950946D01*
X172545050Y-122942182D01*
X172420109Y-122770213D01*
X172269786Y-122619890D01*
X172097819Y-122494951D01*
X172097818Y-122494950D01*
X172097816Y-122494949D01*
X171940740Y-122414914D01*
X171908675Y-122391426D01*
X171900448Y-122383070D01*
X171895277Y-122375331D01*
X171736522Y-122216576D01*
X171736140Y-122216188D01*
X171719846Y-122185788D01*
X171703334Y-122155549D01*
X171703257Y-122154839D01*
X171703133Y-122154607D01*
X171703175Y-122154073D01*
X171700500Y-122129191D01*
X171700500Y-118524361D01*
X171720185Y-118457322D01*
X171736816Y-118436682D01*
X171749464Y-118424035D01*
X171848013Y-118276547D01*
X171915894Y-118112666D01*
X171950500Y-117938691D01*
X171950500Y-117761309D01*
X171950500Y-117761306D01*
X171950499Y-117761304D01*
X171915896Y-117587341D01*
X171915893Y-117587332D01*
X171848016Y-117423459D01*
X171848009Y-117423446D01*
X171749464Y-117275965D01*
X171749461Y-117275961D01*
X171624038Y-117150538D01*
X171624034Y-117150535D01*
X171476553Y-117051990D01*
X171476540Y-117051983D01*
X171312667Y-116984106D01*
X171312658Y-116984103D01*
X171138694Y-116949500D01*
X171138691Y-116949500D01*
X170961309Y-116949500D01*
X170961306Y-116949500D01*
X170787341Y-116984103D01*
X170787332Y-116984106D01*
X170623459Y-117051983D01*
X170623446Y-117051990D01*
X170475965Y-117150535D01*
X170475961Y-117150538D01*
X170350538Y-117275961D01*
X170350535Y-117275965D01*
X170251990Y-117423446D01*
X170251983Y-117423459D01*
X170184106Y-117587332D01*
X170184103Y-117587341D01*
X170149500Y-117761304D01*
X170149500Y-117938695D01*
X170184103Y-118112658D01*
X170184106Y-118112667D01*
X170251983Y-118276540D01*
X170251990Y-118276553D01*
X170350534Y-118424033D01*
X170350535Y-118424034D01*
X170350536Y-118424035D01*
X170363180Y-118436679D01*
X170396665Y-118497999D01*
X170399500Y-118524361D01*
X170399500Y-122514070D01*
X170410373Y-122568729D01*
X170404146Y-122638321D01*
X170361284Y-122693499D01*
X170295394Y-122716744D01*
X170227397Y-122700677D01*
X170178881Y-122650398D01*
X170172574Y-122636255D01*
X170143354Y-122557913D01*
X170143350Y-122557906D01*
X170057190Y-122442812D01*
X170057187Y-122442809D01*
X169942093Y-122356649D01*
X169942086Y-122356645D01*
X169807379Y-122306403D01*
X169807372Y-122306401D01*
X169747844Y-122300000D01*
X169100000Y-122300000D01*
X169100000Y-123216988D01*
X169042993Y-123184075D01*
X168915826Y-123150000D01*
X168784174Y-123150000D01*
X168657007Y-123184075D01*
X168600000Y-123216988D01*
X168600000Y-122300000D01*
X167952155Y-122300000D01*
X167892627Y-122306401D01*
X167892620Y-122306403D01*
X167757913Y-122356645D01*
X167757906Y-122356649D01*
X167642812Y-122442809D01*
X167642809Y-122442812D01*
X167556649Y-122557906D01*
X167556645Y-122557913D01*
X167506403Y-122692620D01*
X167506401Y-122692627D01*
X167500000Y-122752155D01*
X167500000Y-123400000D01*
X168416988Y-123400000D01*
X168384075Y-123457007D01*
X168350000Y-123584174D01*
X168350000Y-123715826D01*
X168384075Y-123842993D01*
X168416988Y-123900000D01*
X167500000Y-123900000D01*
X167500000Y-124077138D01*
X167480315Y-124144177D01*
X167427511Y-124189932D01*
X167358353Y-124199876D01*
X167294797Y-124170851D01*
X167288319Y-124164819D01*
X167224038Y-124100538D01*
X167224034Y-124100535D01*
X167076553Y-124001990D01*
X167076540Y-124001983D01*
X166912667Y-123934106D01*
X166912658Y-123934103D01*
X166738694Y-123899500D01*
X166738691Y-123899500D01*
X166561309Y-123899500D01*
X166561306Y-123899500D01*
X166387341Y-123934103D01*
X166387332Y-123934106D01*
X166223459Y-124001983D01*
X166223446Y-124001990D01*
X166075965Y-124100535D01*
X166075961Y-124100538D01*
X165950538Y-124225961D01*
X165950535Y-124225965D01*
X165851990Y-124373446D01*
X165851983Y-124373459D01*
X165784106Y-124537332D01*
X165784103Y-124537341D01*
X165749500Y-124711304D01*
X165749500Y-124875501D01*
X165729815Y-124942540D01*
X165677011Y-124988295D01*
X165672953Y-124990062D01*
X165523455Y-125051985D01*
X165523446Y-125051990D01*
X165375965Y-125150535D01*
X165375961Y-125150538D01*
X165250538Y-125275961D01*
X165250535Y-125275965D01*
X165151990Y-125423446D01*
X165151983Y-125423459D01*
X165084106Y-125587332D01*
X165084103Y-125587341D01*
X165049500Y-125761304D01*
X165049500Y-125938695D01*
X165084103Y-126112658D01*
X165084106Y-126112667D01*
X165151983Y-126276540D01*
X165151990Y-126276553D01*
X165250535Y-126424034D01*
X165250538Y-126424038D01*
X165375961Y-126549461D01*
X165375965Y-126549464D01*
X165486686Y-126623446D01*
X165494391Y-126628594D01*
X165539196Y-126682206D01*
X165549500Y-126731696D01*
X165549500Y-128129192D01*
X165529815Y-128196231D01*
X165513181Y-128216873D01*
X165116873Y-128613181D01*
X165055550Y-128646666D01*
X165029192Y-128649500D01*
X162022352Y-128649500D01*
X161955313Y-128629815D01*
X161909558Y-128577011D01*
X161899614Y-128507853D01*
X161928639Y-128444297D01*
X161974900Y-128410939D01*
X162058125Y-128376466D01*
X162058127Y-128376465D01*
X162082385Y-128360257D01*
X162129082Y-128329055D01*
X162164669Y-128305277D01*
X163455276Y-127014670D01*
X163526465Y-126908127D01*
X163530039Y-126899500D01*
X163547817Y-126856579D01*
X163575501Y-126789744D01*
X163576312Y-126785665D01*
X163600500Y-126664069D01*
X163600500Y-125874361D01*
X163620185Y-125807322D01*
X163636822Y-125786677D01*
X163648462Y-125775037D01*
X163648464Y-125775035D01*
X163747013Y-125627547D01*
X163814894Y-125463666D01*
X163815646Y-125459888D01*
X163849499Y-125289695D01*
X163849500Y-125289693D01*
X163849500Y-125112306D01*
X163849499Y-125112304D01*
X163814896Y-124938341D01*
X163814893Y-124938332D01*
X163747016Y-124774459D01*
X163747009Y-124774446D01*
X163648464Y-124626965D01*
X163648461Y-124626961D01*
X163523037Y-124501537D01*
X163513567Y-124495209D01*
X163496026Y-124483489D01*
X163451223Y-124429879D01*
X163442514Y-124360554D01*
X163472668Y-124297527D01*
X163477218Y-124292726D01*
X167555277Y-120214669D01*
X167626465Y-120108127D01*
X167675501Y-119989744D01*
X167676379Y-119985331D01*
X167678744Y-119973446D01*
X167700500Y-119864071D01*
X167700500Y-118224361D01*
X167720185Y-118157322D01*
X167736816Y-118136682D01*
X167749464Y-118124035D01*
X167848013Y-117976547D01*
X167915894Y-117812666D01*
X167950500Y-117638691D01*
X167950500Y-117461309D01*
X167950500Y-117461306D01*
X167950499Y-117461304D01*
X167915896Y-117287341D01*
X167915893Y-117287332D01*
X167848016Y-117123459D01*
X167848009Y-117123446D01*
X167749464Y-116975965D01*
X167749461Y-116975961D01*
X167624038Y-116850538D01*
X167624034Y-116850535D01*
X167476553Y-116751990D01*
X167476540Y-116751983D01*
X167312667Y-116684106D01*
X167312658Y-116684103D01*
X167138694Y-116649500D01*
X167138691Y-116649500D01*
X166961309Y-116649500D01*
X166961304Y-116649500D01*
X166848138Y-116672010D01*
X166778546Y-116665783D01*
X166723369Y-116622919D01*
X166700125Y-116557030D01*
X166700500Y-116540243D01*
X166700500Y-116361306D01*
X166700499Y-116361304D01*
X166665896Y-116187341D01*
X166665893Y-116187332D01*
X166598016Y-116023459D01*
X166598009Y-116023446D01*
X166553805Y-115957290D01*
X166532927Y-115890612D01*
X166551412Y-115823232D01*
X166569221Y-115800723D01*
X167605276Y-114764670D01*
X167676465Y-114658127D01*
X167725501Y-114539744D01*
X167733506Y-114499500D01*
X167750500Y-114414069D01*
X167750500Y-99970808D01*
X167770185Y-99903769D01*
X167786819Y-99883127D01*
X168133127Y-99536819D01*
X168194450Y-99503334D01*
X168220808Y-99500500D01*
X168238693Y-99500500D01*
X168238694Y-99500499D01*
X168296682Y-99488964D01*
X168412658Y-99465896D01*
X168412661Y-99465894D01*
X168412666Y-99465894D01*
X168576547Y-99398013D01*
X168724035Y-99299464D01*
X168849464Y-99174035D01*
X168948013Y-99026547D01*
X169015894Y-98862666D01*
X169018315Y-98850499D01*
X169050499Y-98688695D01*
X169050500Y-98688693D01*
X169050500Y-98511306D01*
X169050499Y-98511304D01*
X169015896Y-98337341D01*
X169015893Y-98337332D01*
X168948016Y-98173459D01*
X168948009Y-98173446D01*
X168849464Y-98025965D01*
X168849461Y-98025961D01*
X168724038Y-97900538D01*
X168724034Y-97900535D01*
X168576553Y-97801990D01*
X168576540Y-97801983D01*
X168412667Y-97734106D01*
X168412658Y-97734103D01*
X168238694Y-97699500D01*
X168238691Y-97699500D01*
X168061309Y-97699500D01*
X168061306Y-97699500D01*
X167887341Y-97734103D01*
X167887332Y-97734106D01*
X167723459Y-97801983D01*
X167723446Y-97801990D01*
X167575965Y-97900535D01*
X167575961Y-97900538D01*
X167450538Y-98025961D01*
X167450535Y-98025965D01*
X167351990Y-98173446D01*
X167351983Y-98173459D01*
X167284106Y-98337332D01*
X167284103Y-98337341D01*
X167249500Y-98511304D01*
X167249500Y-98529191D01*
X167229815Y-98596230D01*
X167213181Y-98616872D01*
X166594727Y-99235325D01*
X166594724Y-99235328D01*
X166537041Y-99321659D01*
X166523535Y-99341871D01*
X166474499Y-99460255D01*
X166474497Y-99460261D01*
X166449500Y-99585928D01*
X166449500Y-114029192D01*
X166429815Y-114096231D01*
X166413181Y-114116873D01*
X165816873Y-114713181D01*
X165755550Y-114746666D01*
X165729192Y-114749500D01*
X154474362Y-114749500D01*
X154407323Y-114729815D01*
X154386681Y-114713181D01*
X154374038Y-114700538D01*
X154374034Y-114700535D01*
X154226553Y-114601990D01*
X154226540Y-114601983D01*
X154062667Y-114534106D01*
X154062658Y-114534103D01*
X153888694Y-114499500D01*
X153888691Y-114499500D01*
X153711309Y-114499500D01*
X153711306Y-114499500D01*
X153537341Y-114534103D01*
X153537332Y-114534106D01*
X153373459Y-114601983D01*
X153373446Y-114601990D01*
X153225965Y-114700535D01*
X153225961Y-114700538D01*
X153100538Y-114825961D01*
X153100535Y-114825965D01*
X153001990Y-114973446D01*
X153001983Y-114973459D01*
X152934106Y-115137332D01*
X152934103Y-115137341D01*
X152899500Y-115311304D01*
X152899500Y-115488695D01*
X152935294Y-115668641D01*
X152933234Y-115669050D01*
X152933766Y-115729385D01*
X152896511Y-115788494D01*
X152833214Y-115818078D01*
X152814486Y-115819500D01*
X146065929Y-115819500D01*
X145940261Y-115844497D01*
X145940255Y-115844499D01*
X145821870Y-115893535D01*
X145715331Y-115964722D01*
X145715324Y-115964728D01*
X144644725Y-117035328D01*
X144644724Y-117035329D01*
X144591436Y-117115083D01*
X144591435Y-117115083D01*
X144573536Y-117141870D01*
X144573534Y-117141874D01*
X144524499Y-117260255D01*
X144524497Y-117260261D01*
X144499500Y-117385928D01*
X144499500Y-119025916D01*
X144479815Y-119092955D01*
X144427011Y-119138710D01*
X144357853Y-119148654D01*
X144328050Y-119140478D01*
X144312667Y-119134106D01*
X144312658Y-119134103D01*
X144138694Y-119099500D01*
X144138691Y-119099500D01*
X143961309Y-119099500D01*
X143961306Y-119099500D01*
X143787341Y-119134103D01*
X143787332Y-119134106D01*
X143623459Y-119201983D01*
X143623446Y-119201990D01*
X143475965Y-119300535D01*
X143475961Y-119300538D01*
X143350538Y-119425961D01*
X143350535Y-119425965D01*
X143251990Y-119573446D01*
X143251983Y-119573459D01*
X143184106Y-119737332D01*
X143184103Y-119737341D01*
X143149500Y-119911304D01*
X143149500Y-120088695D01*
X143184103Y-120262658D01*
X143184106Y-120262667D01*
X143251984Y-120426542D01*
X143251985Y-120426543D01*
X143251987Y-120426547D01*
X143278602Y-120466378D01*
X143299480Y-120533055D01*
X143299500Y-120535269D01*
X143299500Y-121252144D01*
X143279815Y-121319183D01*
X143278602Y-121321035D01*
X143276988Y-121323449D01*
X143276987Y-121323452D01*
X143209106Y-121487332D01*
X143209104Y-121487340D01*
X143195992Y-121553259D01*
X143191282Y-121562263D01*
X143190557Y-121572401D01*
X143175360Y-121592700D01*
X143163607Y-121615170D01*
X143154774Y-121620199D01*
X143148685Y-121628334D01*
X143124929Y-121637194D01*
X143102891Y-121649744D01*
X143092742Y-121649199D01*
X143083221Y-121652751D01*
X143058442Y-121647360D01*
X143033121Y-121646003D01*
X143023060Y-121639663D01*
X143014948Y-121637899D01*
X142986694Y-121616748D01*
X142861819Y-121491873D01*
X142828334Y-121430550D01*
X142825500Y-121404192D01*
X142825500Y-121386306D01*
X142825499Y-121386304D01*
X142790896Y-121212341D01*
X142790893Y-121212332D01*
X142723016Y-121048459D01*
X142723009Y-121048446D01*
X142624464Y-120900965D01*
X142624461Y-120900961D01*
X142499038Y-120775538D01*
X142499034Y-120775535D01*
X142351553Y-120676990D01*
X142351540Y-120676983D01*
X142187667Y-120609106D01*
X142187658Y-120609103D01*
X142013694Y-120574500D01*
X142013691Y-120574500D01*
X141836309Y-120574500D01*
X141836306Y-120574500D01*
X141662341Y-120609103D01*
X141662332Y-120609106D01*
X141498459Y-120676983D01*
X141498446Y-120676990D01*
X141350965Y-120775535D01*
X141350961Y-120775538D01*
X141225538Y-120900961D01*
X141225535Y-120900965D01*
X141126990Y-121048446D01*
X141126983Y-121048459D01*
X141059106Y-121212332D01*
X141059103Y-121212341D01*
X141024500Y-121386304D01*
X140456251Y-121386304D01*
X139885443Y-120815497D01*
X139851958Y-120754174D01*
X139856942Y-120684483D01*
X139858564Y-120680361D01*
X139865894Y-120662666D01*
X139900500Y-120488691D01*
X139900500Y-120311309D01*
X139900500Y-120311306D01*
X139900499Y-120311304D01*
X139865896Y-120137341D01*
X139865893Y-120137332D01*
X139798016Y-119973459D01*
X139798009Y-119973446D01*
X139699464Y-119825965D01*
X139699461Y-119825961D01*
X139574038Y-119700538D01*
X139574034Y-119700535D01*
X139426553Y-119601990D01*
X139426540Y-119601983D01*
X139262667Y-119534106D01*
X139262658Y-119534103D01*
X139088694Y-119499500D01*
X139088691Y-119499500D01*
X138911309Y-119499500D01*
X138911306Y-119499500D01*
X138737341Y-119534103D01*
X138737332Y-119534106D01*
X138573459Y-119601983D01*
X138573446Y-119601990D01*
X138425965Y-119700535D01*
X138425961Y-119700538D01*
X138300538Y-119825961D01*
X138300535Y-119825965D01*
X138201990Y-119973446D01*
X138201983Y-119973459D01*
X138134106Y-120137332D01*
X138134103Y-120137341D01*
X138099500Y-120311304D01*
X128750500Y-120311304D01*
X128750500Y-114371040D01*
X128770185Y-114304001D01*
X128822989Y-114258246D01*
X128892147Y-114248302D01*
X128955703Y-114277327D01*
X128974814Y-114298150D01*
X129022298Y-114363505D01*
X129169828Y-114511035D01*
X129338619Y-114633670D01*
X129386619Y-114658127D01*
X129524512Y-114728387D01*
X129524514Y-114728387D01*
X129524517Y-114728389D01*
X129580768Y-114746666D01*
X129722943Y-114792862D01*
X129929009Y-114825500D01*
X129929014Y-114825500D01*
X130137657Y-114825500D01*
X130343722Y-114792862D01*
X130542149Y-114728389D01*
X130728047Y-114633670D01*
X130896838Y-114511035D01*
X131044368Y-114363505D01*
X131167003Y-114194714D01*
X131261722Y-114008816D01*
X131326195Y-113810389D01*
X131358833Y-113604324D01*
X131358833Y-113395675D01*
X131326195Y-113189610D01*
X131261720Y-112991179D01*
X131167002Y-112805285D01*
X131088104Y-112696692D01*
X131088103Y-112696689D01*
X131044372Y-112636501D01*
X131044368Y-112636495D01*
X131035008Y-112627135D01*
X132841167Y-112627135D01*
X132841167Y-114372870D01*
X132841168Y-114372876D01*
X132847575Y-114432483D01*
X132897869Y-114567328D01*
X132897873Y-114567335D01*
X132984119Y-114682544D01*
X132984122Y-114682547D01*
X133099331Y-114768793D01*
X133099338Y-114768797D01*
X133234184Y-114819091D01*
X133234183Y-114819091D01*
X133241111Y-114819835D01*
X133293794Y-114825500D01*
X135039539Y-114825499D01*
X135099150Y-114819091D01*
X135233998Y-114768796D01*
X135349213Y-114682546D01*
X135435463Y-114567331D01*
X135485758Y-114432483D01*
X135492167Y-114372873D01*
X135492166Y-113395675D01*
X137541167Y-113395675D01*
X137541167Y-113604324D01*
X137573804Y-113810389D01*
X137638279Y-114008820D01*
X137693335Y-114116873D01*
X137732997Y-114194714D01*
X137855632Y-114363505D01*
X138003162Y-114511035D01*
X138171953Y-114633670D01*
X138219953Y-114658127D01*
X138357846Y-114728387D01*
X138357848Y-114728387D01*
X138357851Y-114728389D01*
X138414102Y-114746666D01*
X138556277Y-114792862D01*
X138762343Y-114825500D01*
X138762348Y-114825500D01*
X138970991Y-114825500D01*
X139177056Y-114792862D01*
X139375483Y-114728389D01*
X139561381Y-114633670D01*
X139730172Y-114511035D01*
X139877702Y-114363505D01*
X140000337Y-114194714D01*
X140095056Y-114008816D01*
X140159529Y-113810389D01*
X140192167Y-113604324D01*
X140192167Y-113395675D01*
X140159529Y-113189610D01*
X140095054Y-112991179D01*
X140000336Y-112805285D01*
X139921438Y-112696692D01*
X139921437Y-112696689D01*
X139877706Y-112636501D01*
X139877702Y-112636495D01*
X139868342Y-112627135D01*
X141674500Y-112627135D01*
X141674500Y-114372870D01*
X141674501Y-114372876D01*
X141680908Y-114432483D01*
X141731202Y-114567328D01*
X141731206Y-114567335D01*
X141817452Y-114682544D01*
X141817455Y-114682547D01*
X141932664Y-114768793D01*
X141932671Y-114768797D01*
X142067517Y-114819091D01*
X142067516Y-114819091D01*
X142074444Y-114819835D01*
X142127127Y-114825500D01*
X143872872Y-114825499D01*
X143932483Y-114819091D01*
X144067331Y-114768796D01*
X144182546Y-114682546D01*
X144268796Y-114567331D01*
X144319091Y-114432483D01*
X144325500Y-114372873D01*
X144325499Y-113395675D01*
X146374500Y-113395675D01*
X146374500Y-113604324D01*
X146407137Y-113810389D01*
X146471612Y-114008820D01*
X146526668Y-114116873D01*
X146566330Y-114194714D01*
X146688965Y-114363505D01*
X146836495Y-114511035D01*
X147005286Y-114633670D01*
X147053286Y-114658127D01*
X147191179Y-114728387D01*
X147191181Y-114728387D01*
X147191184Y-114728389D01*
X147247435Y-114746666D01*
X147389610Y-114792862D01*
X147595676Y-114825500D01*
X147595681Y-114825500D01*
X147804324Y-114825500D01*
X148010389Y-114792862D01*
X148208816Y-114728389D01*
X148394714Y-114633670D01*
X148563505Y-114511035D01*
X148711035Y-114363505D01*
X148833670Y-114194714D01*
X148928389Y-114008816D01*
X148992862Y-113810389D01*
X149025500Y-113604324D01*
X149025500Y-113395675D01*
X148992862Y-113189610D01*
X148928387Y-112991179D01*
X148833669Y-112805285D01*
X148754771Y-112696692D01*
X148711035Y-112636495D01*
X148563505Y-112488965D01*
X148394714Y-112366330D01*
X148208820Y-112271612D01*
X148010389Y-112207137D01*
X147804324Y-112174500D01*
X147804319Y-112174500D01*
X147595681Y-112174500D01*
X147595676Y-112174500D01*
X147389610Y-112207137D01*
X147191179Y-112271612D01*
X147005285Y-112366330D01*
X146836493Y-112488966D01*
X146688966Y-112636493D01*
X146566330Y-112805285D01*
X146471612Y-112991179D01*
X146407137Y-113189610D01*
X146374500Y-113395675D01*
X144325499Y-113395675D01*
X144325499Y-112627128D01*
X144319091Y-112567517D01*
X144297421Y-112509418D01*
X144268797Y-112432671D01*
X144268793Y-112432664D01*
X144182547Y-112317455D01*
X144182544Y-112317452D01*
X144067335Y-112231206D01*
X144067328Y-112231202D01*
X143932482Y-112180908D01*
X143932483Y-112180908D01*
X143872883Y-112174501D01*
X143872881Y-112174500D01*
X143872873Y-112174500D01*
X143872864Y-112174500D01*
X142127129Y-112174500D01*
X142127123Y-112174501D01*
X142067516Y-112180908D01*
X141932671Y-112231202D01*
X141932664Y-112231206D01*
X141817455Y-112317452D01*
X141817452Y-112317455D01*
X141731206Y-112432664D01*
X141731202Y-112432671D01*
X141680908Y-112567517D01*
X141674501Y-112627116D01*
X141674501Y-112627123D01*
X141674500Y-112627135D01*
X139868342Y-112627135D01*
X139730172Y-112488965D01*
X139561381Y-112366330D01*
X139375487Y-112271612D01*
X139177056Y-112207137D01*
X138970991Y-112174500D01*
X138970986Y-112174500D01*
X138762348Y-112174500D01*
X138762343Y-112174500D01*
X138556277Y-112207137D01*
X138357846Y-112271612D01*
X138171952Y-112366330D01*
X138003160Y-112488966D01*
X137855633Y-112636493D01*
X137732997Y-112805285D01*
X137638279Y-112991179D01*
X137573804Y-113189610D01*
X137541167Y-113395675D01*
X135492166Y-113395675D01*
X135492166Y-112627128D01*
X135485758Y-112567517D01*
X135464088Y-112509418D01*
X135435464Y-112432671D01*
X135435460Y-112432664D01*
X135349214Y-112317455D01*
X135349211Y-112317452D01*
X135234002Y-112231206D01*
X135233995Y-112231202D01*
X135099149Y-112180908D01*
X135099150Y-112180908D01*
X135039550Y-112174501D01*
X135039548Y-112174500D01*
X135039540Y-112174500D01*
X135039531Y-112174500D01*
X133293796Y-112174500D01*
X133293790Y-112174501D01*
X133234183Y-112180908D01*
X133099338Y-112231202D01*
X133099331Y-112231206D01*
X132984122Y-112317452D01*
X132984119Y-112317455D01*
X132897873Y-112432664D01*
X132897869Y-112432671D01*
X132847575Y-112567517D01*
X132841168Y-112627116D01*
X132841168Y-112627123D01*
X132841167Y-112627135D01*
X131035008Y-112627135D01*
X130896838Y-112488965D01*
X130728047Y-112366330D01*
X130542153Y-112271612D01*
X130343722Y-112207137D01*
X130137657Y-112174500D01*
X130137652Y-112174500D01*
X129929014Y-112174500D01*
X129929009Y-112174500D01*
X129722943Y-112207137D01*
X129524512Y-112271612D01*
X129338618Y-112366330D01*
X129173994Y-112485938D01*
X129108187Y-112509418D01*
X129040133Y-112493593D01*
X128991439Y-112443487D01*
X128977563Y-112375009D01*
X129002912Y-112309900D01*
X129013419Y-112297947D01*
X129574548Y-111736819D01*
X129635871Y-111703334D01*
X129662229Y-111700500D01*
X145264730Y-111700500D01*
X145331769Y-111720185D01*
X145333622Y-111721399D01*
X145373447Y-111748010D01*
X145373450Y-111748011D01*
X145373453Y-111748013D01*
X145537334Y-111815894D01*
X145537336Y-111815894D01*
X145537341Y-111815896D01*
X145711304Y-111850499D01*
X145711307Y-111850500D01*
X145711309Y-111850500D01*
X145888693Y-111850500D01*
X145888694Y-111850499D01*
X145946682Y-111838964D01*
X146062658Y-111815896D01*
X146062661Y-111815894D01*
X146062666Y-111815894D01*
X146226547Y-111748013D01*
X146374035Y-111649464D01*
X146499464Y-111524035D01*
X146598013Y-111376547D01*
X146665894Y-111212666D01*
X146700500Y-111038691D01*
X146700500Y-110861309D01*
X146700500Y-110861306D01*
X146700499Y-110861304D01*
X146665896Y-110687341D01*
X146665893Y-110687332D01*
X146598016Y-110523459D01*
X146598009Y-110523446D01*
X146499464Y-110375965D01*
X146499461Y-110375961D01*
X146374038Y-110250538D01*
X146374034Y-110250535D01*
X146226553Y-110151990D01*
X146226540Y-110151983D01*
X146062667Y-110084106D01*
X146062658Y-110084103D01*
X145888694Y-110049500D01*
X145888691Y-110049500D01*
X145711309Y-110049500D01*
X145711306Y-110049500D01*
X145537341Y-110084103D01*
X145537332Y-110084106D01*
X145373452Y-110151987D01*
X145373447Y-110151989D01*
X145333622Y-110178601D01*
X145266945Y-110199480D01*
X145264730Y-110199500D01*
X129226076Y-110199500D01*
X129197242Y-110205234D01*
X129197243Y-110205235D01*
X129081093Y-110228339D01*
X129081083Y-110228342D01*
X129001081Y-110261479D01*
X129001082Y-110261480D01*
X128944505Y-110284915D01*
X128862372Y-110339795D01*
X128821585Y-110367047D01*
X128821581Y-110367050D01*
X127417045Y-111771586D01*
X127387444Y-111815891D01*
X127387442Y-111815894D01*
X127334914Y-111894507D01*
X127278343Y-112031082D01*
X127278340Y-112031092D01*
X127249500Y-112176079D01*
X127249500Y-122014729D01*
X127229815Y-122081768D01*
X127228602Y-122083620D01*
X127201988Y-122123449D01*
X127201987Y-122123452D01*
X127134106Y-122287332D01*
X127134103Y-122287341D01*
X127099500Y-122461304D01*
X90500500Y-122461304D01*
X90500500Y-112627135D01*
X115174500Y-112627135D01*
X115174500Y-114372870D01*
X115174501Y-114372876D01*
X115180908Y-114432483D01*
X115231202Y-114567328D01*
X115231206Y-114567335D01*
X115317452Y-114682544D01*
X115317455Y-114682547D01*
X115432664Y-114768793D01*
X115432671Y-114768797D01*
X115567517Y-114819091D01*
X115567516Y-114819091D01*
X115574444Y-114819835D01*
X115627127Y-114825500D01*
X117372872Y-114825499D01*
X117432483Y-114819091D01*
X117567331Y-114768796D01*
X117682546Y-114682546D01*
X117768796Y-114567331D01*
X117819091Y-114432483D01*
X117825500Y-114372873D01*
X117825499Y-113395675D01*
X119874500Y-113395675D01*
X119874500Y-113604324D01*
X119907137Y-113810389D01*
X119971612Y-114008820D01*
X120026668Y-114116873D01*
X120066330Y-114194714D01*
X120188965Y-114363505D01*
X120336495Y-114511035D01*
X120505286Y-114633670D01*
X120553286Y-114658127D01*
X120691179Y-114728387D01*
X120691181Y-114728387D01*
X120691184Y-114728389D01*
X120747435Y-114746666D01*
X120889610Y-114792862D01*
X121095676Y-114825500D01*
X121095681Y-114825500D01*
X121304324Y-114825500D01*
X121510389Y-114792862D01*
X121708816Y-114728389D01*
X121894714Y-114633670D01*
X122063505Y-114511035D01*
X122211035Y-114363505D01*
X122333670Y-114194714D01*
X122428389Y-114008816D01*
X122492862Y-113810389D01*
X122525500Y-113604324D01*
X122525500Y-113395675D01*
X122492862Y-113189610D01*
X122428387Y-112991179D01*
X122333669Y-112805285D01*
X122254771Y-112696692D01*
X122254770Y-112696689D01*
X122211039Y-112636501D01*
X122211035Y-112636495D01*
X122201675Y-112627135D01*
X124007833Y-112627135D01*
X124007833Y-114372870D01*
X124007834Y-114372876D01*
X124014241Y-114432483D01*
X124064535Y-114567328D01*
X124064539Y-114567335D01*
X124150785Y-114682544D01*
X124150788Y-114682547D01*
X124265997Y-114768793D01*
X124266004Y-114768797D01*
X124400850Y-114819091D01*
X124400849Y-114819091D01*
X124407777Y-114819835D01*
X124460460Y-114825500D01*
X126206205Y-114825499D01*
X126265816Y-114819091D01*
X126400664Y-114768796D01*
X126515879Y-114682546D01*
X126602129Y-114567331D01*
X126652424Y-114432483D01*
X126658833Y-114372873D01*
X126658832Y-112627128D01*
X126652424Y-112567517D01*
X126630754Y-112509418D01*
X126602130Y-112432671D01*
X126602126Y-112432664D01*
X126515880Y-112317455D01*
X126515877Y-112317452D01*
X126400668Y-112231206D01*
X126400661Y-112231202D01*
X126265815Y-112180908D01*
X126265816Y-112180908D01*
X126206216Y-112174501D01*
X126206214Y-112174500D01*
X126206206Y-112174500D01*
X126206197Y-112174500D01*
X124460462Y-112174500D01*
X124460456Y-112174501D01*
X124400849Y-112180908D01*
X124266004Y-112231202D01*
X124265997Y-112231206D01*
X124150788Y-112317452D01*
X124150785Y-112317455D01*
X124064539Y-112432664D01*
X124064535Y-112432671D01*
X124014241Y-112567517D01*
X124007834Y-112627116D01*
X124007834Y-112627123D01*
X124007833Y-112627135D01*
X122201675Y-112627135D01*
X122063505Y-112488965D01*
X121894714Y-112366330D01*
X121708820Y-112271612D01*
X121510389Y-112207137D01*
X121304324Y-112174500D01*
X121304319Y-112174500D01*
X121095681Y-112174500D01*
X121095676Y-112174500D01*
X120889610Y-112207137D01*
X120691179Y-112271612D01*
X120505285Y-112366330D01*
X120336493Y-112488966D01*
X120188966Y-112636493D01*
X120066330Y-112805285D01*
X119971612Y-112991179D01*
X119907137Y-113189610D01*
X119874500Y-113395675D01*
X117825499Y-113395675D01*
X117825499Y-112627128D01*
X117819091Y-112567517D01*
X117797421Y-112509418D01*
X117768797Y-112432671D01*
X117768793Y-112432664D01*
X117682547Y-112317455D01*
X117682544Y-112317452D01*
X117567335Y-112231206D01*
X117567328Y-112231202D01*
X117432482Y-112180908D01*
X117432483Y-112180908D01*
X117372883Y-112174501D01*
X117372881Y-112174500D01*
X117372873Y-112174500D01*
X117372864Y-112174500D01*
X115627129Y-112174500D01*
X115627123Y-112174501D01*
X115567516Y-112180908D01*
X115432671Y-112231202D01*
X115432664Y-112231206D01*
X115317455Y-112317452D01*
X115317452Y-112317455D01*
X115231206Y-112432664D01*
X115231202Y-112432671D01*
X115180908Y-112567517D01*
X115174501Y-112627116D01*
X115174501Y-112627123D01*
X115174500Y-112627135D01*
X90500500Y-112627135D01*
X90500500Y-108768956D01*
X90520185Y-108701917D01*
X90572989Y-108656162D01*
X90624089Y-108644957D01*
X149550000Y-108450000D01*
X149550000Y-108400000D01*
X149550000Y-108399788D01*
X149538528Y-105038695D01*
X149537923Y-104861304D01*
X154399500Y-104861304D01*
X154399500Y-105038695D01*
X154434103Y-105212658D01*
X154434106Y-105212667D01*
X154501983Y-105376540D01*
X154501990Y-105376553D01*
X154600535Y-105524034D01*
X154600538Y-105524038D01*
X154725961Y-105649461D01*
X154725965Y-105649464D01*
X154873446Y-105748009D01*
X154873459Y-105748016D01*
X154968378Y-105787332D01*
X155037334Y-105815894D01*
X155037336Y-105815894D01*
X155037341Y-105815896D01*
X155211304Y-105850499D01*
X155211307Y-105850500D01*
X155211309Y-105850500D01*
X155388693Y-105850500D01*
X155388694Y-105850499D01*
X155446682Y-105838964D01*
X155562658Y-105815896D01*
X155562661Y-105815894D01*
X155562666Y-105815894D01*
X155726547Y-105748013D01*
X155874035Y-105649464D01*
X155874038Y-105649461D01*
X155886681Y-105636819D01*
X155948004Y-105603334D01*
X155974362Y-105600500D01*
X162229192Y-105600500D01*
X162296231Y-105620185D01*
X162316873Y-105636819D01*
X162713181Y-106033127D01*
X162746666Y-106094450D01*
X162749500Y-106120808D01*
X162749500Y-106138695D01*
X162784103Y-106312658D01*
X162784106Y-106312667D01*
X162851983Y-106476540D01*
X162851990Y-106476553D01*
X162950535Y-106624034D01*
X162950538Y-106624038D01*
X163075961Y-106749461D01*
X163075965Y-106749464D01*
X163223446Y-106848009D01*
X163223459Y-106848016D01*
X163346363Y-106898923D01*
X163387334Y-106915894D01*
X163387336Y-106915894D01*
X163387341Y-106915896D01*
X163561304Y-106950499D01*
X163561307Y-106950500D01*
X163561309Y-106950500D01*
X163738693Y-106950500D01*
X163738694Y-106950499D01*
X163796682Y-106938964D01*
X163912658Y-106915896D01*
X163912661Y-106915894D01*
X163912666Y-106915894D01*
X164076547Y-106848013D01*
X164224035Y-106749464D01*
X164349464Y-106624035D01*
X164448013Y-106476547D01*
X164515894Y-106312666D01*
X164550500Y-106138691D01*
X164550500Y-105961309D01*
X164550500Y-105961306D01*
X164550499Y-105961304D01*
X164515896Y-105787341D01*
X164515893Y-105787332D01*
X164448016Y-105623459D01*
X164448009Y-105623446D01*
X164349464Y-105475965D01*
X164349461Y-105475961D01*
X164224038Y-105350538D01*
X164224034Y-105350535D01*
X164076553Y-105251990D01*
X164076540Y-105251983D01*
X163912667Y-105184106D01*
X163912658Y-105184103D01*
X163738694Y-105149500D01*
X163738691Y-105149500D01*
X163720808Y-105149500D01*
X163653769Y-105129815D01*
X163633127Y-105113181D01*
X162964674Y-104444727D01*
X162964673Y-104444726D01*
X162964669Y-104444723D01*
X162858127Y-104373535D01*
X162739744Y-104324499D01*
X162739738Y-104324497D01*
X162614071Y-104299500D01*
X162614069Y-104299500D01*
X155974362Y-104299500D01*
X155907323Y-104279815D01*
X155886681Y-104263181D01*
X155874038Y-104250538D01*
X155874034Y-104250535D01*
X155726553Y-104151990D01*
X155726540Y-104151983D01*
X155562667Y-104084106D01*
X155562658Y-104084103D01*
X155388694Y-104049500D01*
X155388691Y-104049500D01*
X155211309Y-104049500D01*
X155211306Y-104049500D01*
X155037341Y-104084103D01*
X155037332Y-104084106D01*
X154873459Y-104151983D01*
X154873446Y-104151990D01*
X154725965Y-104250535D01*
X154725961Y-104250538D01*
X154600538Y-104375961D01*
X154600535Y-104375965D01*
X154501990Y-104523446D01*
X154501983Y-104523459D01*
X154434106Y-104687332D01*
X154434103Y-104687341D01*
X154399500Y-104861304D01*
X149537923Y-104861304D01*
X149527172Y-101711304D01*
X151399500Y-101711304D01*
X151399500Y-101888695D01*
X151434103Y-102062658D01*
X151434106Y-102062667D01*
X151501983Y-102226540D01*
X151501990Y-102226553D01*
X151600535Y-102374034D01*
X151600538Y-102374038D01*
X151725961Y-102499461D01*
X151725965Y-102499464D01*
X151873446Y-102598009D01*
X151873459Y-102598016D01*
X151996363Y-102648923D01*
X152037334Y-102665894D01*
X152037336Y-102665894D01*
X152037341Y-102665896D01*
X152211304Y-102700499D01*
X152211307Y-102700500D01*
X152211309Y-102700500D01*
X152388693Y-102700500D01*
X152388694Y-102700499D01*
X152446682Y-102688964D01*
X152562658Y-102665896D01*
X152562661Y-102665894D01*
X152562666Y-102665894D01*
X152726547Y-102598013D01*
X152874035Y-102499464D01*
X152999464Y-102374035D01*
X153098013Y-102226547D01*
X153165894Y-102062666D01*
X153200500Y-101888691D01*
X153200500Y-101711309D01*
X153200500Y-101711306D01*
X153200499Y-101711304D01*
X153165896Y-101537341D01*
X153165893Y-101537332D01*
X153098013Y-101373453D01*
X153098011Y-101373451D01*
X153098011Y-101373449D01*
X153071398Y-101333620D01*
X153050520Y-101266942D01*
X153050500Y-101264729D01*
X153050500Y-98124500D01*
X153070185Y-98057461D01*
X153122989Y-98011706D01*
X153174500Y-98000500D01*
X155426082Y-98000500D01*
X155625505Y-98000500D01*
X155672953Y-98009937D01*
X155687334Y-98015894D01*
X155687338Y-98015894D01*
X155687341Y-98015896D01*
X155861304Y-98050499D01*
X155861307Y-98050500D01*
X155861309Y-98050500D01*
X156038693Y-98050500D01*
X156038694Y-98050499D01*
X156098058Y-98038691D01*
X156212658Y-98015896D01*
X156212659Y-98015895D01*
X156212666Y-98015894D01*
X156227046Y-98009937D01*
X156274495Y-98000500D01*
X156723920Y-98000500D01*
X156821462Y-97981096D01*
X156868913Y-97971658D01*
X157005495Y-97915084D01*
X157058888Y-97879408D01*
X157072380Y-97870392D01*
X157139059Y-97849520D01*
X157141263Y-97849500D01*
X157275500Y-97849500D01*
X157342539Y-97869185D01*
X157388294Y-97921989D01*
X157399500Y-97973500D01*
X157399500Y-98038695D01*
X157434103Y-98212658D01*
X157434106Y-98212667D01*
X157501983Y-98376540D01*
X157501990Y-98376553D01*
X157600535Y-98524034D01*
X157600538Y-98524038D01*
X157725961Y-98649461D01*
X157725965Y-98649464D01*
X157873446Y-98748009D01*
X157873459Y-98748016D01*
X157960172Y-98783933D01*
X158037334Y-98815894D01*
X158037336Y-98815894D01*
X158037341Y-98815896D01*
X158211304Y-98850499D01*
X158211307Y-98850500D01*
X158211309Y-98850500D01*
X158229192Y-98850500D01*
X158296231Y-98870185D01*
X158316873Y-98886819D01*
X159235324Y-99805271D01*
X159235327Y-99805274D01*
X159286917Y-99839745D01*
X159341866Y-99876461D01*
X159341872Y-99876464D01*
X159341873Y-99876465D01*
X159460256Y-99925501D01*
X159460260Y-99925501D01*
X159460261Y-99925502D01*
X159585928Y-99950500D01*
X159585931Y-99950500D01*
X162525638Y-99950500D01*
X162592677Y-99970185D01*
X162613319Y-99986819D01*
X162625961Y-99999461D01*
X162625965Y-99999464D01*
X162773446Y-100098009D01*
X162773459Y-100098016D01*
X162896363Y-100148923D01*
X162937334Y-100165894D01*
X162937336Y-100165894D01*
X162937341Y-100165896D01*
X163111304Y-100200499D01*
X163111307Y-100200500D01*
X163111309Y-100200500D01*
X163288693Y-100200500D01*
X163288694Y-100200499D01*
X163346682Y-100188964D01*
X163462658Y-100165896D01*
X163462661Y-100165894D01*
X163462666Y-100165894D01*
X163626547Y-100098013D01*
X163774035Y-99999464D01*
X163899464Y-99874035D01*
X163998013Y-99726547D01*
X164065894Y-99562666D01*
X164071036Y-99536819D01*
X164098646Y-99398013D01*
X164100500Y-99388691D01*
X164100500Y-99211309D01*
X164100500Y-99211306D01*
X164100499Y-99211304D01*
X164065896Y-99037341D01*
X164065893Y-99037332D01*
X163998016Y-98873459D01*
X163998009Y-98873446D01*
X163899464Y-98725965D01*
X163899461Y-98725961D01*
X163774038Y-98600538D01*
X163774034Y-98600535D01*
X163626553Y-98501990D01*
X163626540Y-98501983D01*
X163462667Y-98434106D01*
X163462658Y-98434103D01*
X163288694Y-98399500D01*
X163288691Y-98399500D01*
X163111309Y-98399500D01*
X163111306Y-98399500D01*
X162937341Y-98434103D01*
X162937332Y-98434106D01*
X162773459Y-98501983D01*
X162773446Y-98501990D01*
X162625965Y-98600535D01*
X162625961Y-98600538D01*
X162613319Y-98613181D01*
X162551996Y-98646666D01*
X162525638Y-98649500D01*
X159970808Y-98649500D01*
X159903769Y-98629815D01*
X159883127Y-98613181D01*
X159504103Y-98234157D01*
X159470618Y-98172834D01*
X159475602Y-98103142D01*
X159517474Y-98047209D01*
X159567589Y-98024860D01*
X159612666Y-98015894D01*
X159776547Y-97948013D01*
X159892706Y-97870397D01*
X159959382Y-97849520D01*
X159961596Y-97849500D01*
X162288234Y-97849500D01*
X162355273Y-97869185D01*
X162357110Y-97870388D01*
X162398453Y-97898013D01*
X162398456Y-97898014D01*
X162398457Y-97898015D01*
X162507707Y-97943267D01*
X162562334Y-97965894D01*
X162562336Y-97965894D01*
X162562341Y-97965896D01*
X162736304Y-98000499D01*
X162736307Y-98000500D01*
X162736309Y-98000500D01*
X162913693Y-98000500D01*
X162913694Y-98000499D01*
X162971682Y-97988964D01*
X163087658Y-97965896D01*
X163087661Y-97965894D01*
X163087666Y-97965894D01*
X163251547Y-97898013D01*
X163399035Y-97799464D01*
X163524464Y-97674035D01*
X163623013Y-97526547D01*
X163690894Y-97362666D01*
X163725500Y-97188691D01*
X163725500Y-97011309D01*
X163725500Y-97011306D01*
X163725499Y-97011304D01*
X163690896Y-96837341D01*
X163690893Y-96837332D01*
X163623016Y-96673459D01*
X163623009Y-96673446D01*
X163524464Y-96525965D01*
X163524461Y-96525961D01*
X163399038Y-96400538D01*
X163399034Y-96400535D01*
X163251553Y-96301990D01*
X163251540Y-96301983D01*
X163087667Y-96234106D01*
X163087658Y-96234103D01*
X162913694Y-96199500D01*
X162913691Y-96199500D01*
X162736309Y-96199500D01*
X162736306Y-96199500D01*
X162562341Y-96234103D01*
X162562332Y-96234106D01*
X162398457Y-96301984D01*
X162398455Y-96301985D01*
X162360118Y-96327602D01*
X162293440Y-96348480D01*
X162291227Y-96348500D01*
X159792793Y-96348500D01*
X159745341Y-96339061D01*
X159612667Y-96284106D01*
X159612658Y-96284103D01*
X159438694Y-96249500D01*
X159438691Y-96249500D01*
X159261309Y-96249500D01*
X159261306Y-96249500D01*
X159087341Y-96284103D01*
X159087332Y-96284106D01*
X158954659Y-96339061D01*
X158907207Y-96348500D01*
X156727080Y-96348500D01*
X156582093Y-96377340D01*
X156582090Y-96377341D01*
X156582088Y-96377341D01*
X156582087Y-96377342D01*
X156567529Y-96383372D01*
X156539858Y-96394833D01*
X156470389Y-96402299D01*
X156423518Y-96383372D01*
X156376552Y-96351990D01*
X156376549Y-96351988D01*
X156376547Y-96351987D01*
X156376544Y-96351985D01*
X156376539Y-96351983D01*
X156212667Y-96284106D01*
X156212658Y-96284103D01*
X156038694Y-96249500D01*
X156038691Y-96249500D01*
X155861309Y-96249500D01*
X155861306Y-96249500D01*
X155687341Y-96284103D01*
X155687332Y-96284106D01*
X155523459Y-96351983D01*
X155523446Y-96351990D01*
X155375965Y-96450535D01*
X155375961Y-96450538D01*
X155363319Y-96463181D01*
X155301996Y-96496666D01*
X155275638Y-96499500D01*
X153085270Y-96499500D01*
X153018231Y-96479815D01*
X153016378Y-96478601D01*
X152976552Y-96451989D01*
X152976547Y-96451987D01*
X152812667Y-96384106D01*
X152812658Y-96384103D01*
X152638694Y-96349500D01*
X152638691Y-96349500D01*
X152461309Y-96349500D01*
X152461306Y-96349500D01*
X152287341Y-96384103D01*
X152287332Y-96384106D01*
X152123459Y-96451983D01*
X152123446Y-96451990D01*
X151975965Y-96550535D01*
X151975961Y-96550538D01*
X151850538Y-96675961D01*
X151850535Y-96675965D01*
X151751990Y-96823446D01*
X151751983Y-96823459D01*
X151684107Y-96987329D01*
X151684104Y-96987339D01*
X151665252Y-97082113D01*
X151646741Y-97126806D01*
X151634916Y-97144505D01*
X151578342Y-97281086D01*
X151578340Y-97281092D01*
X151549500Y-97426079D01*
X151549500Y-101264729D01*
X151529815Y-101331768D01*
X151528602Y-101333620D01*
X151501988Y-101373449D01*
X151501987Y-101373452D01*
X151434106Y-101537332D01*
X151434103Y-101537341D01*
X151399500Y-101711304D01*
X149527172Y-101711304D01*
X149500000Y-93750000D01*
X148572616Y-93750000D01*
X148505577Y-93730315D01*
X148499730Y-93726318D01*
X148486433Y-93716657D01*
X148275996Y-93609433D01*
X148051368Y-93536446D01*
X147818097Y-93499500D01*
X147818092Y-93499500D01*
X145172890Y-93499500D01*
X145105851Y-93479815D01*
X145085209Y-93463181D01*
X142477512Y-90855485D01*
X142477511Y-90855484D01*
X142458825Y-90841908D01*
X142297664Y-90724816D01*
X142255000Y-90669486D01*
X142249021Y-90599873D01*
X142281627Y-90538078D01*
X142342466Y-90503721D01*
X142370551Y-90500499D01*
X142747871Y-90500499D01*
X142747872Y-90500499D01*
X142807483Y-90494091D01*
X142942331Y-90443796D01*
X143057546Y-90357546D01*
X143143796Y-90242331D01*
X143194091Y-90107483D01*
X143200500Y-90047873D01*
X143200499Y-88368872D01*
X144279500Y-88368872D01*
X144279500Y-88631127D01*
X144291423Y-88721684D01*
X144313730Y-88891116D01*
X144367109Y-89090330D01*
X144381602Y-89144418D01*
X144381605Y-89144428D01*
X144481953Y-89386690D01*
X144481958Y-89386700D01*
X144613075Y-89613803D01*
X144772718Y-89821851D01*
X144772726Y-89821860D01*
X144958140Y-90007274D01*
X144958148Y-90007281D01*
X145166196Y-90166924D01*
X145393299Y-90298041D01*
X145393309Y-90298046D01*
X145635571Y-90398394D01*
X145635581Y-90398398D01*
X145888884Y-90466270D01*
X146137188Y-90498960D01*
X146148864Y-90500498D01*
X146148880Y-90500500D01*
X146148887Y-90500500D01*
X146411113Y-90500500D01*
X146411120Y-90500500D01*
X146671116Y-90466270D01*
X146924419Y-90398398D01*
X147101340Y-90325114D01*
X147166690Y-90298046D01*
X147166691Y-90298045D01*
X147166697Y-90298043D01*
X147393803Y-90166924D01*
X147601851Y-90007282D01*
X147601855Y-90007277D01*
X147601860Y-90007274D01*
X147787274Y-89821860D01*
X147787277Y-89821855D01*
X147787282Y-89821851D01*
X147946924Y-89613803D01*
X148078043Y-89386697D01*
X148178398Y-89144419D01*
X148246270Y-88891116D01*
X148280500Y-88631120D01*
X148280500Y-88368880D01*
X148280499Y-88368872D01*
X149359500Y-88368872D01*
X149359500Y-88631127D01*
X149371423Y-88721684D01*
X149393730Y-88891116D01*
X149447109Y-89090330D01*
X149461602Y-89144418D01*
X149461605Y-89144428D01*
X149561953Y-89386690D01*
X149561958Y-89386700D01*
X149693075Y-89613803D01*
X149852718Y-89821851D01*
X149852726Y-89821860D01*
X150038140Y-90007274D01*
X150038148Y-90007281D01*
X150246196Y-90166924D01*
X150473299Y-90298041D01*
X150473309Y-90298046D01*
X150715571Y-90398394D01*
X150715581Y-90398398D01*
X150968884Y-90466270D01*
X151217188Y-90498960D01*
X151228864Y-90500498D01*
X151228880Y-90500500D01*
X151228887Y-90500500D01*
X151491113Y-90500500D01*
X151491120Y-90500500D01*
X151751116Y-90466270D01*
X152004419Y-90398398D01*
X152181340Y-90325114D01*
X152246690Y-90298046D01*
X152246691Y-90298045D01*
X152246697Y-90298043D01*
X152473803Y-90166924D01*
X152681851Y-90007282D01*
X152681855Y-90007277D01*
X152681860Y-90007274D01*
X152867274Y-89821860D01*
X152867277Y-89821855D01*
X152867282Y-89821851D01*
X153026924Y-89613803D01*
X153158043Y-89386697D01*
X153258398Y-89144419D01*
X153326270Y-88891116D01*
X153360500Y-88631120D01*
X153360500Y-88368880D01*
X153360499Y-88368872D01*
X154439500Y-88368872D01*
X154439500Y-88631127D01*
X154451423Y-88721684D01*
X154473730Y-88891116D01*
X154527109Y-89090330D01*
X154541602Y-89144418D01*
X154541605Y-89144428D01*
X154641953Y-89386690D01*
X154641958Y-89386700D01*
X154773075Y-89613803D01*
X154932718Y-89821851D01*
X154932726Y-89821860D01*
X155118140Y-90007274D01*
X155118148Y-90007281D01*
X155326196Y-90166924D01*
X155553299Y-90298041D01*
X155553309Y-90298046D01*
X155795571Y-90398394D01*
X155795581Y-90398398D01*
X156048884Y-90466270D01*
X156297188Y-90498960D01*
X156308864Y-90500498D01*
X156308880Y-90500500D01*
X156308887Y-90500500D01*
X156571113Y-90500500D01*
X156571120Y-90500500D01*
X156831116Y-90466270D01*
X157084419Y-90398398D01*
X157261340Y-90325114D01*
X157326690Y-90298046D01*
X157326691Y-90298045D01*
X157326697Y-90298043D01*
X157553803Y-90166924D01*
X157761851Y-90007282D01*
X157761855Y-90007277D01*
X157761860Y-90007274D01*
X157947274Y-89821860D01*
X157947277Y-89821855D01*
X157947282Y-89821851D01*
X158106924Y-89613803D01*
X158238043Y-89386697D01*
X158338398Y-89144419D01*
X158406270Y-88891116D01*
X158440500Y-88631120D01*
X158440500Y-88368880D01*
X158440499Y-88368872D01*
X159519500Y-88368872D01*
X159519500Y-88631127D01*
X159531423Y-88721684D01*
X159553730Y-88891116D01*
X159607109Y-89090330D01*
X159621602Y-89144418D01*
X159621605Y-89144428D01*
X159721953Y-89386690D01*
X159721958Y-89386700D01*
X159853075Y-89613803D01*
X160012718Y-89821851D01*
X160012726Y-89821860D01*
X160198140Y-90007274D01*
X160198148Y-90007281D01*
X160406196Y-90166924D01*
X160633299Y-90298041D01*
X160633309Y-90298046D01*
X160875571Y-90398394D01*
X160875581Y-90398398D01*
X161128884Y-90466270D01*
X161377188Y-90498960D01*
X161388864Y-90500498D01*
X161388880Y-90500500D01*
X161388887Y-90500500D01*
X161651113Y-90500500D01*
X161651120Y-90500500D01*
X161911116Y-90466270D01*
X162164419Y-90398398D01*
X162341340Y-90325114D01*
X162406690Y-90298046D01*
X162406691Y-90298045D01*
X162406697Y-90298043D01*
X162633803Y-90166924D01*
X162841851Y-90007282D01*
X162841855Y-90007277D01*
X162841860Y-90007274D01*
X163027274Y-89821860D01*
X163027277Y-89821855D01*
X163027282Y-89821851D01*
X163186924Y-89613803D01*
X163318043Y-89386697D01*
X163418398Y-89144419D01*
X163486270Y-88891116D01*
X163520500Y-88631120D01*
X163520500Y-88368905D01*
X164600000Y-88368905D01*
X164600000Y-88631094D01*
X164634220Y-88891009D01*
X164634222Y-88891020D01*
X164702075Y-89144255D01*
X164802404Y-89386471D01*
X164802409Y-89386482D01*
X164933488Y-89613516D01*
X164933494Y-89613524D01*
X165020080Y-89726365D01*
X165914767Y-88831677D01*
X165926497Y-88859995D01*
X166009670Y-88984472D01*
X166115528Y-89090330D01*
X166240005Y-89173503D01*
X166268320Y-89185231D01*
X165373633Y-90079917D01*
X165373633Y-90079918D01*
X165486475Y-90166505D01*
X165486483Y-90166511D01*
X165713517Y-90297590D01*
X165713528Y-90297595D01*
X165955744Y-90397924D01*
X166208979Y-90465777D01*
X166208990Y-90465779D01*
X166468905Y-90499999D01*
X166468920Y-90500000D01*
X166731080Y-90500000D01*
X166731094Y-90499999D01*
X166991009Y-90465779D01*
X166991020Y-90465777D01*
X167244255Y-90397924D01*
X167486471Y-90297595D01*
X167486482Y-90297590D01*
X167713516Y-90166511D01*
X167713534Y-90166499D01*
X167826365Y-90079919D01*
X167826365Y-90079917D01*
X166931679Y-89185231D01*
X166959995Y-89173503D01*
X167084472Y-89090330D01*
X167190330Y-88984472D01*
X167273503Y-88859995D01*
X167285231Y-88831679D01*
X168179917Y-89726365D01*
X168179919Y-89726365D01*
X168266499Y-89613534D01*
X168266511Y-89613516D01*
X168397590Y-89386482D01*
X168397595Y-89386471D01*
X168497924Y-89144255D01*
X168565777Y-88891020D01*
X168565779Y-88891009D01*
X168599999Y-88631094D01*
X168600000Y-88631080D01*
X168600000Y-88368919D01*
X168599999Y-88368905D01*
X168565779Y-88108990D01*
X168565777Y-88108979D01*
X168497924Y-87855744D01*
X168397595Y-87613528D01*
X168397590Y-87613517D01*
X168266511Y-87386483D01*
X168266505Y-87386475D01*
X168179918Y-87273633D01*
X168179917Y-87273633D01*
X167285231Y-88168320D01*
X167273503Y-88140005D01*
X167190330Y-88015528D01*
X167084472Y-87909670D01*
X166959995Y-87826497D01*
X166931677Y-87814767D01*
X167826365Y-86920080D01*
X167713524Y-86833494D01*
X167713516Y-86833488D01*
X167486482Y-86702409D01*
X167486471Y-86702404D01*
X167244255Y-86602075D01*
X166991020Y-86534222D01*
X166991009Y-86534220D01*
X166731094Y-86500000D01*
X166468905Y-86500000D01*
X166208990Y-86534220D01*
X166208979Y-86534222D01*
X165955744Y-86602075D01*
X165713528Y-86702404D01*
X165713517Y-86702409D01*
X165486471Y-86833496D01*
X165373633Y-86920079D01*
X165373633Y-86920080D01*
X166268321Y-87814768D01*
X166240005Y-87826497D01*
X166115528Y-87909670D01*
X166009670Y-88015528D01*
X165926497Y-88140005D01*
X165914768Y-88168321D01*
X165020080Y-87273633D01*
X165020079Y-87273633D01*
X164933496Y-87386471D01*
X164802409Y-87613517D01*
X164802404Y-87613528D01*
X164702075Y-87855744D01*
X164634222Y-88108979D01*
X164634220Y-88108990D01*
X164600000Y-88368905D01*
X163520500Y-88368905D01*
X163520500Y-88368880D01*
X163486270Y-88108884D01*
X163418398Y-87855581D01*
X163406351Y-87826497D01*
X163318046Y-87613309D01*
X163318041Y-87613299D01*
X163186924Y-87386196D01*
X163027281Y-87178148D01*
X163027274Y-87178140D01*
X162841860Y-86992726D01*
X162841851Y-86992718D01*
X162633803Y-86833075D01*
X162406700Y-86701958D01*
X162406690Y-86701953D01*
X162164428Y-86601605D01*
X162164421Y-86601603D01*
X162164419Y-86601602D01*
X161911116Y-86533730D01*
X161853339Y-86526123D01*
X161651127Y-86499500D01*
X161651120Y-86499500D01*
X161388880Y-86499500D01*
X161388872Y-86499500D01*
X161157772Y-86529926D01*
X161128884Y-86533730D01*
X160974455Y-86575109D01*
X160875581Y-86601602D01*
X160875571Y-86601605D01*
X160633309Y-86701953D01*
X160633299Y-86701958D01*
X160406196Y-86833075D01*
X160198148Y-86992718D01*
X160012718Y-87178148D01*
X159853075Y-87386196D01*
X159721958Y-87613299D01*
X159721953Y-87613309D01*
X159621605Y-87855571D01*
X159621602Y-87855581D01*
X159553730Y-88108884D01*
X159553716Y-88108990D01*
X159519500Y-88368872D01*
X158440499Y-88368872D01*
X158406270Y-88108884D01*
X158338398Y-87855581D01*
X158326351Y-87826497D01*
X158238046Y-87613309D01*
X158238041Y-87613299D01*
X158106924Y-87386196D01*
X157947281Y-87178148D01*
X157947274Y-87178140D01*
X157761860Y-86992726D01*
X157761851Y-86992718D01*
X157553803Y-86833075D01*
X157326700Y-86701958D01*
X157326690Y-86701953D01*
X157084428Y-86601605D01*
X157084421Y-86601603D01*
X157084419Y-86601602D01*
X156831116Y-86533730D01*
X156773339Y-86526123D01*
X156571127Y-86499500D01*
X156571120Y-86499500D01*
X156308880Y-86499500D01*
X156308872Y-86499500D01*
X156077772Y-86529926D01*
X156048884Y-86533730D01*
X155894455Y-86575109D01*
X155795581Y-86601602D01*
X155795571Y-86601605D01*
X155553309Y-86701953D01*
X155553299Y-86701958D01*
X155326196Y-86833075D01*
X155118148Y-86992718D01*
X154932718Y-87178148D01*
X154773075Y-87386196D01*
X154641958Y-87613299D01*
X154641953Y-87613309D01*
X154541605Y-87855571D01*
X154541602Y-87855581D01*
X154473730Y-88108884D01*
X154473716Y-88108990D01*
X154439500Y-88368872D01*
X153360499Y-88368872D01*
X153326270Y-88108884D01*
X153258398Y-87855581D01*
X153246351Y-87826497D01*
X153158046Y-87613309D01*
X153158041Y-87613299D01*
X153026924Y-87386196D01*
X152867281Y-87178148D01*
X152867274Y-87178140D01*
X152681860Y-86992726D01*
X152681851Y-86992718D01*
X152473803Y-86833075D01*
X152246700Y-86701958D01*
X152246690Y-86701953D01*
X152004428Y-86601605D01*
X152004421Y-86601603D01*
X152004419Y-86601602D01*
X151751116Y-86533730D01*
X151693339Y-86526123D01*
X151491127Y-86499500D01*
X151491120Y-86499500D01*
X151228880Y-86499500D01*
X151228872Y-86499500D01*
X150997772Y-86529926D01*
X150968884Y-86533730D01*
X150814455Y-86575109D01*
X150715581Y-86601602D01*
X150715571Y-86601605D01*
X150473309Y-86701953D01*
X150473299Y-86701958D01*
X150246196Y-86833075D01*
X150038148Y-86992718D01*
X149852718Y-87178148D01*
X149693075Y-87386196D01*
X149561958Y-87613299D01*
X149561953Y-87613309D01*
X149461605Y-87855571D01*
X149461602Y-87855581D01*
X149393730Y-88108884D01*
X149393716Y-88108990D01*
X149359500Y-88368872D01*
X148280499Y-88368872D01*
X148246270Y-88108884D01*
X148178398Y-87855581D01*
X148166351Y-87826497D01*
X148078046Y-87613309D01*
X148078041Y-87613299D01*
X147946924Y-87386196D01*
X147787281Y-87178148D01*
X147787274Y-87178140D01*
X147601860Y-86992726D01*
X147601851Y-86992718D01*
X147393803Y-86833075D01*
X147166700Y-86701958D01*
X147166690Y-86701953D01*
X146924428Y-86601605D01*
X146924421Y-86601603D01*
X146924419Y-86601602D01*
X146671116Y-86533730D01*
X146613339Y-86526123D01*
X146411127Y-86499500D01*
X146411120Y-86499500D01*
X146148880Y-86499500D01*
X146148872Y-86499500D01*
X145917772Y-86529926D01*
X145888884Y-86533730D01*
X145734455Y-86575109D01*
X145635581Y-86601602D01*
X145635571Y-86601605D01*
X145393309Y-86701953D01*
X145393299Y-86701958D01*
X145166196Y-86833075D01*
X144958148Y-86992718D01*
X144772718Y-87178148D01*
X144613075Y-87386196D01*
X144481958Y-87613299D01*
X144481953Y-87613309D01*
X144381605Y-87855571D01*
X144381602Y-87855581D01*
X144313730Y-88108884D01*
X144313716Y-88108990D01*
X144279500Y-88368872D01*
X143200499Y-88368872D01*
X143200499Y-86952128D01*
X143194091Y-86892517D01*
X143184172Y-86865924D01*
X143143797Y-86757671D01*
X143143793Y-86757664D01*
X143057547Y-86642455D01*
X143057544Y-86642452D01*
X142942335Y-86556206D01*
X142942328Y-86556202D01*
X142807482Y-86505908D01*
X142807483Y-86505908D01*
X142747883Y-86499501D01*
X142747881Y-86499500D01*
X142747873Y-86499500D01*
X142747864Y-86499500D01*
X139652129Y-86499500D01*
X139652123Y-86499501D01*
X139592516Y-86505908D01*
X139457671Y-86556202D01*
X139457664Y-86556206D01*
X139342455Y-86642452D01*
X139342452Y-86642455D01*
X139256206Y-86757664D01*
X139256202Y-86757671D01*
X139205908Y-86892517D01*
X139199501Y-86952116D01*
X139199501Y-86952123D01*
X139199500Y-86952135D01*
X139199500Y-90047870D01*
X139199501Y-90047876D01*
X139205908Y-90107483D01*
X139256202Y-90242328D01*
X139256204Y-90242331D01*
X139300265Y-90301189D01*
X139324683Y-90366652D01*
X139309832Y-90434925D01*
X139260427Y-90484331D01*
X139200999Y-90499500D01*
X138971555Y-90499500D01*
X138904516Y-90479815D01*
X138858761Y-90427011D01*
X138847558Y-90376310D01*
X138813237Y-85125310D01*
X138832483Y-85058144D01*
X138884986Y-85012045D01*
X138937234Y-85000500D01*
X181934108Y-85000500D01*
X181996249Y-85000500D01*
X182003736Y-85000726D01*
G37*
%TD.AperFunction*%
%TD*%
%TA.AperFunction,Conductor*%
%TO.N,GND*%
G36*
X164877268Y-116070185D02*
G01*
X164923023Y-116122989D01*
X164932967Y-116192147D01*
X164931846Y-116198691D01*
X164899500Y-116361304D01*
X164899500Y-116538695D01*
X164934103Y-116712658D01*
X164934106Y-116712667D01*
X165001983Y-116876540D01*
X165001990Y-116876553D01*
X165100534Y-117024033D01*
X165100535Y-117024034D01*
X165100536Y-117024035D01*
X165113180Y-117036679D01*
X165146665Y-117097999D01*
X165149500Y-117124361D01*
X165149500Y-119629192D01*
X165129815Y-119696231D01*
X165113181Y-119716873D01*
X160266873Y-124563181D01*
X160205550Y-124596666D01*
X160179192Y-124599500D01*
X149170808Y-124599500D01*
X149103769Y-124579815D01*
X149083127Y-124563181D01*
X148839674Y-124319727D01*
X148839673Y-124319726D01*
X148839669Y-124319723D01*
X148733127Y-124248535D01*
X148614744Y-124199499D01*
X148599518Y-124196470D01*
X148537610Y-124164084D01*
X148536033Y-124162534D01*
X148499038Y-124125538D01*
X148499034Y-124125535D01*
X148351553Y-124026990D01*
X148351540Y-124026983D01*
X148187667Y-123959106D01*
X148187658Y-123959103D01*
X148013694Y-123924500D01*
X148013691Y-123924500D01*
X147836309Y-123924500D01*
X147836306Y-123924500D01*
X147662341Y-123959103D01*
X147662332Y-123959106D01*
X147498459Y-124026983D01*
X147498446Y-124026990D01*
X147350965Y-124125535D01*
X147350961Y-124125538D01*
X147225538Y-124250961D01*
X147225535Y-124250965D01*
X147126990Y-124398446D01*
X147126983Y-124398459D01*
X147059106Y-124562332D01*
X147059103Y-124562341D01*
X147024500Y-124736304D01*
X147024500Y-124913695D01*
X147059103Y-125087658D01*
X147059106Y-125087667D01*
X147126983Y-125251540D01*
X147126990Y-125251553D01*
X147228920Y-125404100D01*
X147227062Y-125405341D01*
X147250463Y-125460439D01*
X147238670Y-125529306D01*
X147230401Y-125543679D01*
X147210511Y-125573448D01*
X147210504Y-125573460D01*
X147142627Y-125737332D01*
X147142624Y-125737341D01*
X147108021Y-125911304D01*
X147108021Y-126088695D01*
X147116472Y-126131180D01*
X147110245Y-126200772D01*
X147067382Y-126255949D01*
X147063746Y-126258473D01*
X146925965Y-126350535D01*
X146925961Y-126350538D01*
X146800538Y-126475961D01*
X146800535Y-126475965D01*
X146701990Y-126623446D01*
X146701983Y-126623459D01*
X146634106Y-126787332D01*
X146634104Y-126787340D01*
X146625591Y-126830139D01*
X146593206Y-126892050D01*
X146532490Y-126926624D01*
X146479783Y-126927564D01*
X146338695Y-126899500D01*
X146338691Y-126899500D01*
X146161309Y-126899500D01*
X146161306Y-126899500D01*
X145987341Y-126934103D01*
X145987332Y-126934106D01*
X145971950Y-126940478D01*
X145902480Y-126947945D01*
X145840002Y-126916669D01*
X145804351Y-126856579D01*
X145800500Y-126825916D01*
X145800500Y-117892333D01*
X146537250Y-117120500D01*
X157045638Y-117120500D01*
X157112677Y-117140185D01*
X157133319Y-117156819D01*
X157145961Y-117169461D01*
X157145965Y-117169464D01*
X157293446Y-117268009D01*
X157293459Y-117268016D01*
X157416363Y-117318923D01*
X157457334Y-117335894D01*
X157457336Y-117335894D01*
X157457341Y-117335896D01*
X157631304Y-117370499D01*
X157631307Y-117370500D01*
X157631309Y-117370500D01*
X157808693Y-117370500D01*
X157808694Y-117370499D01*
X157866682Y-117358964D01*
X157982658Y-117335896D01*
X157982661Y-117335894D01*
X157982666Y-117335894D01*
X158146547Y-117268013D01*
X158294035Y-117169464D01*
X158419464Y-117044035D01*
X158518013Y-116896547D01*
X158585894Y-116732666D01*
X158589873Y-116712666D01*
X158620499Y-116558695D01*
X158620500Y-116558693D01*
X158620500Y-116381306D01*
X158620499Y-116381304D01*
X158584706Y-116201359D01*
X158586765Y-116200949D01*
X158586234Y-116140615D01*
X158623489Y-116081506D01*
X158686786Y-116051922D01*
X158705514Y-116050500D01*
X164810229Y-116050500D01*
X164877268Y-116070185D01*
G37*
%TD.AperFunction*%
%TD*%
M02*
